{
classes = (
{
automatic = 1;

glyphs = (
{
glyphname = .notdef;
lastChange = "2014-06-07 03:45:21 -0500";
layers = (
{
layerId = "6B6936E6-7670-4A82-900D-EAF583C971AF";
name = Regular;
paths = (
{
closed = 1;
nodes = (
"88 -177 LINE SMOOTH",
"78 -177 OFFCURVE",
"73 -172 OFFCURVE",
"73 -162 CURVE SMOOTH",
"73 768 LINE SMOOTH",
"73 778 OFFCURVE",
"78 783 OFFCURVE",
"88 783 CURVE SMOOTH",
"538 783 LINE SMOOTH",
"548 783 OFFCURVE",
"553 778 OFFCURVE",
"553 768 CURVE SMOOTH",
"553 -162 LINE SMOOTH",
"553 -172 OFFCURVE",
"548 -177 OFFCURVE",
"538 -177 CURVE SMOOTH"
);
},
{
closed = 1;
nodes = (
"139 2 LINE SMOOTH",
"139 -8 OFFCURVE",
"144 -13 OFFCURVE",
"154 -13 CURVE SMOOTH",
"473 -13 LINE SMOOTH",
"483 -13 OFFCURVE",
"488 -8 OFFCURVE",
"488 2 CURVE SMOOTH",
"488 702 LINE SMOOTH",
"488 712 OFFCURVE",
"483 717 OFFCURVE",
"473 717 CURVE SMOOTH",
"154 717 LINE SMOOTH",
"144 717 OFFCURVE",
"139 712 OFFCURVE",
"139 702 CURVE SMOOTH"
);
}
);
width = 626;
},
{
layerId = "2BF3D7EC-9255-448B-A62B-3A7110FF42CA";
name = Bold;
paths = (
{
closed = 1;
nodes = (
"88 -187 LINE",
"55.5743 -187 OFFCURVE",
"43 -174.767 OFFCURVE",
"43 -162 CURVE",
"43 768 LINE",
"43 780.767 OFFCURVE",
"55.5743 793 OFFCURVE",
"88 793 CURVE",
"538 793 LINE",
"570.426 793 OFFCURVE",
"583 780.767 OFFCURVE",
"583 768 CURVE",
"583 -162 LINE",
"583 -174.767 OFFCURVE",
"570.426 -187 OFFCURVE",
"538 -187 CURVE"
);
},
{
closed = 1;
nodes = (
"169 2 LINE",
"169 -4.48699 OFFCURVE",
"180 -3 OFFCURVE",
"177 -3 CURVE",
"450 -3 LINE",
"447 -3 OFFCURVE",
"458 -4.48699 OFFCURVE",
"458 2 CURVE",
"458 702 LINE",
"458 708.487 OFFCURVE",
"446 707 OFFCURVE",
"449 707 CURVE",
"181 707 LINE",
"170 707 OFFCURVE",
"169 688 OFFCURVE",
"169 682 CURVE"
);
}
);
width = 643;
}
);
},
{
glyphname = exclam;
lastChange = "2014-06-06 02:01:44 -0500";
layers = (
{
layerId = "6B6936E6-7670-4A82-900D-EAF583C971AF";
name = Regular;
paths = (
{
closed = 1;
nodes = (
"83 122 LINE SMOOTH",
"84 140 OFFCURVE",
"94 150 OFFCURVE",
"113 150 CURVE SMOOTH",
"182 150 LINE SMOOTH",
"202 150 OFFCURVE",
"211 140 OFFCURVE",
"212 122 CURVE SMOOTH",
"220 30 LINE SMOOTH",
"222 11 OFFCURVE",
"211 0 OFFCURVE",
"192 0 CURVE SMOOTH",
"104 0 LINE SMOOTH",
"84 0 OFFCURVE",
"73 11 OFFCURVE",
"76 30 CURVE SMOOTH"
);
},
{
closed = 1;
nodes = (
"99 995 LINE SMOOTH",
"99 1011 OFFCURVE",
"109 1016 OFFCURVE",
"124 1019 CURVE SMOOTH",
"170 1029 LINE SMOOTH",
"186 1032 OFFCURVE",
"195 1021 OFFCURVE",
"195 1005 CURVE SMOOTH",
"199 679 LINE SMOOTH",
"222 300 LINE",
"223 284 OFFCURVE",
"215 275 OFFCURVE",
"199 275 CURVE SMOOTH",
"96 275 LINE SMOOTH",
"80 275 OFFCURVE",
"72 284 OFFCURVE",
"73 300 CURVE SMOOTH",
"91 679 LINE"
);
}
);
width = 295.084;
},
{
layerId = "2BF3D7EC-9255-448B-A62B-3A7110FF42CA";
name = Bold;
paths = (
{
closed = 1;
nodes = (
"83 132 LINE SMOOTH",
"84 150 OFFCURVE",
"94 160 OFFCURVE",
"113 160 CURVE SMOOTH",
"222 160 LINE SMOOTH",
"242 160 OFFCURVE",
"251 150 OFFCURVE",
"252 132 CURVE SMOOTH",
"260 30 LINE SMOOTH",
"261 11 OFFCURVE",
"251 0 OFFCURVE",
"232 0 CURVE SMOOTH",
"104 0 LINE SMOOTH",
"84 0 OFFCURVE",
"75 11 OFFCURVE",
"76 30 CURVE SMOOTH"
);
},
{
closed = 1;
nodes = (
"99 1025 LINE SMOOTH",
"99 1041 OFFCURVE",
"109 1047 OFFCURVE",
"124 1049 CURVE SMOOTH",
"210 1059 LINE SMOOTH",
"226 1061 OFFCURVE",
"235 1051 OFFCURVE",
"235 1035 CURVE SMOOTH",
"239 709 LINE SMOOTH",
"262 330 LINE",
"263 314 OFFCURVE",
"255 305 OFFCURVE",
"239 305 CURVE SMOOTH",
"96 305 LINE SMOOTH",
"80 305 OFFCURVE",
"72 314 OFFCURVE",
"73 330 CURVE SMOOTH",
"91 709 LINE"
);
}
);
width = 335.084;
}
);
unicode = 0021;
},
{
glyphname = quotedbl;
lastChange = "2014-06-06 02:02:38 -0500";
layers = (
{
layerId = "6B6936E6-7670-4A82-900D-EAF583C971AF";
name = Regular;
paths = (
{
closed = 1;
nodes = (
"151 1030 LINE SMOOTH",
"167 1030 OFFCURVE",
"176 1022 OFFCURVE",
"176 1006 CURVE SMOOTH",
"180 768 LINE SMOOTH",
"181 752 OFFCURVE",
"172 743 OFFCURVE",
"156 743 CURVE SMOOTH",
"97 743 LINE SMOOTH",
"82 743 OFFCURVE",
"73 752 OFFCURVE",
"73 768 CURVE SMOOTH",
"78 1006 LINE SMOOTH",
"78 1022 OFFCURVE",
"86 1030 OFFCURVE",
"103 1030 CURVE SMOOTH"
);
},
{
closed = 1;
nodes = (
"356 1030 LINE SMOOTH",
"373 1030 OFFCURVE",
"381 1022 OFFCURVE",
"381 1006 CURVE SMOOTH",
"386 768 LINE SMOOTH",
"386 752 OFFCURVE",
"377 743 OFFCURVE",
"362 743 CURVE SMOOTH",
"302 743 LINE SMOOTH",
"287 743 OFFCURVE",
"278 752 OFFCURVE",
"279 768 CURVE SMOOTH",
"282 1006 LINE SMOOTH",
"283 1022 OFFCURVE",
"291 1030 OFFCURVE",
"307 1030 CURVE SMOOTH"
);
}
);
width = 459;
},
{
layerId = "2BF3D7EC-9255-448B-A62B-3A7110FF42CA";
name = Bold;
paths = (
{
closed = 1;
nodes = (
"191 1030 LINE SMOOTH",
"207 1030 OFFCURVE",
"216 1022 OFFCURVE",
"216 1006 CURVE SMOOTH",
"220 768 LINE SMOOTH",
"221 752 OFFCURVE",
"212 743 OFFCURVE",
"196 743 CURVE SMOOTH",
"97 743 LINE SMOOTH",
"82 743 OFFCURVE",
"73 752 OFFCURVE",
"73 768 CURVE SMOOTH",
"78 1006 LINE SMOOTH",
"78 1022 OFFCURVE",
"86 1030 OFFCURVE",
"103 1030 CURVE SMOOTH"
);
},
{
closed = 1;
nodes = (
"436 1030 LINE SMOOTH",
"453 1030 OFFCURVE",
"461 1022 OFFCURVE",
"461 1006 CURVE SMOOTH",
"466 768 LINE SMOOTH",
"466 752 OFFCURVE",
"457 743 OFFCURVE",
"442 743 CURVE SMOOTH",
"342 743 LINE SMOOTH",
"327 743 OFFCURVE",
"318 752 OFFCURVE",
"319 768 CURVE SMOOTH",
"322 1006 LINE SMOOTH",
"323 1022 OFFCURVE",
"331 1030 OFFCURVE",
"347 1030 CURVE SMOOTH"
);
}
);
width = 539;
}
);
unicode = 0022;
},
{
glyphname = numbersign;
lastChange = "2014-06-06 02:31:13 -0500";
layers = (
{
guideLines = (
{
angle = 90;
position = "{229, 390}";
},
{
angle = 90;
position = "{308, 383}";
},
{
angle = 90;
position = "{495, 359}";
},
{
angle = 90;
position = "{574, 366}";
},
{
position = "{396, 192}";
},
{
position = "{401, 277}";
}
);
layerId = "6B6936E6-7670-4A82-900D-EAF583C971AF";
name = Regular;
paths = (
{
closed = 1;
nodes = (
"481 387 LINE SMOOTH",
"481 403 OFFCURVE",
"477 412 OFFCURVE",
"461 412 CURVE SMOOTH",
"348 412 LINE SMOOTH",
"335 412 OFFCURVE",
"322 406 OFFCURVE",
"322 392 CURVE SMOOTH",
"322 303 LINE SMOOTH",
"322 287 OFFCURVE",
"326 277 OFFCURVE",
"342 277 CURVE SMOOTH",
"455 277 LINE SMOOTH",
"468 277 OFFCURVE",
"481 284 OFFCURVE",
"481 297 CURVE SMOOTH"
);
},
{
closed = 1;
nodes = (
"295 718 LINE SMOOTH",
"312 718 OFFCURVE",
"316 708 OFFCURVE",
"316 690 CURVE SMOOTH",
"318 542 LINE SMOOTH",
"318 525 OFFCURVE",
"322 515 OFFCURVE",
"339 515 CURVE SMOOTH",
"458 515 LINE SMOOTH",
"472 515 OFFCURVE",
"485 522 OFFCURVE",
"485 536 CURVE SMOOTH",
"485 697 LINE SMOOTH",
"485 711 OFFCURVE",
"498 718 OFFCURVE",
"512 718 CURVE SMOOTH",
"553 718 LINE SMOOTH",
"570 718 OFFCURVE",
"574 708 OFFCURVE",
"574 690 CURVE SMOOTH",
"577 542 LINE SMOOTH",
"577 525 OFFCURVE",
"581 515 OFFCURVE",
"598 515 CURVE SMOOTH",
"702 515 LINE SMOOTH",
"718 515 OFFCURVE",
"726 507 OFFCURVE",
"726 491 CURVE SMOOTH",
"726 444 LINE SMOOTH",
"726 429 OFFCURVE",
"717 420 OFFCURVE",
"702 420 CURVE SMOOTH",
"603 420 LINE SMOOTH",
"589 420 OFFCURVE",
"576 413 OFFCURVE",
"576 399 CURVE SMOOTH",
"576 305 LINE SMOOTH",
"576 288 OFFCURVE",
"580 278 OFFCURVE",
"597 278 CURVE SMOOTH",
"702 277 LINE SMOOTH",
"718 277 OFFCURVE",
"726 269 OFFCURVE",
"726 252 CURVE SMOOTH",
"726 197 LINE SMOOTH",
"726 181 OFFCURVE",
"717 172 OFFCURVE",
"702 172 CURVE SMOOTH",
"603 172 LINE SMOOTH",
"589 172 OFFCURVE",
"576 165 OFFCURVE",
"576 151 CURVE SMOOTH",
"577 21 LINE SMOOTH",
"577 7 OFFCURVE",
"564 0 OFFCURVE",
"549 0 CURVE SMOOTH",
"505 0 LINE SMOOTH",
"488 0 OFFCURVE",
"484 10 OFFCURVE",
"484 27 CURVE SMOOTH",
"485 145 LINE SMOOTH",
"485 162 OFFCURVE",
"481 172 OFFCURVE",
"464 172 CURVE SMOOTH",
"355 172 LINE SMOOTH",
"330 172 OFFCURVE",
"318 165 OFFCURVE",
"318 151 CURVE SMOOTH",
"319 21 LINE SMOOTH",
"319 7 OFFCURVE",
"307 0 OFFCURVE",
"292 0 CURVE SMOOTH",
"248 0 LINE SMOOTH",
"231 0 OFFCURVE",
"227 10 OFFCURVE",
"227 27 CURVE SMOOTH",
"228 145 LINE SMOOTH",
"228 162 OFFCURVE",
"224 172 OFFCURVE",
"207 172 CURVE SMOOTH",
"98 172 LINE SMOOTH",
"82 172 OFFCURVE",
"73 180 OFFCURVE",
"73 197 CURVE SMOOTH",
"73 252 LINE SMOOTH",
"73 269 OFFCURVE",
"82 277 OFFCURVE",
"98 277 CURVE SMOOTH",
"202 277 LINE SMOOTH",
"216 277 OFFCURVE",
"228 284 OFFCURVE",
"228 298 CURVE SMOOTH",
"229 393 LINE SMOOTH",
"229 409 OFFCURVE",
"225 420 OFFCURVE",
"208 420 CURVE SMOOTH",
"97 420 LINE SMOOTH",
"82 420 OFFCURVE",
"73 428 OFFCURVE",
"73 444 CURVE SMOOTH",
"73 491 LINE SMOOTH",
"73 507 OFFCURVE",
"81 515 OFFCURVE",
"97 515 CURVE SMOOTH",
"201 515 LINE SMOOTH",
"216 515 OFFCURVE",
"229 522 OFFCURVE",
"229 536 CURVE SMOOTH",
"229 697 LINE SMOOTH",
"229 711 OFFCURVE",
"241 718 OFFCURVE",
"256 718 CURVE SMOOTH"
);
}
);
width = 799;
},
{
layerId = "2BF3D7EC-9255-448B-A62B-3A7110FF42CA";
name = Bold;
paths = (
{
closed = 1;
nodes = (
"451 387 LINE",
"451 402.556 OFFCURVE",
"447 404 OFFCURVE",
"433 404 CURVE",
"370 402 LINE",
"352 402 OFFCURVE",
"352 397 OFFCURVE",
"352 374 CURVE",
"352 313 LINE",
"352 290 OFFCURVE",
"355 286 OFFCURVE",
"369 286 CURVE",
"435 287 LINE",
"444 287 OFFCURVE",
"451 290 OFFCURVE",
"451 307 CURVE"
);
},
{
closed = 1;
nodes = (
"295 728 LINE",
"339.34 728 OFFCURVE",
"346 708.35 OFFCURVE",
"346 690 CURVE",
"348 550 LINE",
"348 531 OFFCURVE",
"344 525 OFFCURVE",
"365 525 CURVE",
"441 525 LINE",
"457 525 OFFCURVE",
"455 525 OFFCURVE",
"455 546 CURVE",
"455 697 LINE",
"455 715.589 OFFCURVE",
"481.843 728 OFFCURVE",
"512 728 CURVE",
"553 728 LINE",
"597.34 728 OFFCURVE",
"604 708.35 OFFCURVE",
"604 690 CURVE",
"606.994 542.203 LINE",
"607 527 OFFCURVE",
"607 525 OFFCURVE",
"618 525 CURVE",
"702 525 LINE",
"740.401 525 OFFCURVE",
"756 509.564 OFFCURVE",
"756 491 CURVE",
"756 444 LINE",
"756 426.415 OFFCURVE",
"739.404 410 OFFCURVE",
"702 410 CURVE",
"634 410 LINE",
"618 410 OFFCURVE",
"606 414 OFFCURVE",
"606 393 CURVE",
"606 311 LINE",
"606 286 OFFCURVE",
"625 288 OFFCURVE",
"617 288 CURVE",
"702.286 287 LINE",
"740.401 287 OFFCURVE",
"756 271.546 OFFCURVE",
"756 252 CURVE",
"756 197 LINE",
"756 178.436 OFFCURVE",
"739.404 162 OFFCURVE",
"702 162 CURVE",
"633 162 LINE",
"617 162 OFFCURVE",
"606 152 OFFCURVE",
"606 131 CURVE",
"606.999 21.0769 LINE",
"607 2.41106 OFFCURVE",
"580.151 -10 OFFCURVE",
"549 -10 CURVE",
"505 -10 LINE",
"460.66 -10 OFFCURVE",
"454 9.65034 OFFCURVE",
"454 27 CURVE",
"455 145 LINE",
"455 163 OFFCURVE",
"436 162 OFFCURVE",
"444 162 CURVE",
"375 162 LINE",
"358 162 OFFCURVE",
"348 159 OFFCURVE",
"348 141 CURVE",
"348.999 21.0769 LINE",
"349 2.75784 OFFCURVE",
"323.925 -10 OFFCURVE",
"292 -10 CURVE",
"248 -10 LINE",
"203.66 -10 OFFCURVE",
"197 9.65034 OFFCURVE",
"197 27 CURVE",
"198.001 145.085 LINE",
"198 163.436 OFFCURVE",
"169 162 OFFCURVE",
"177 162 CURVE",
"98 162 LINE",
"60.7898 162 OFFCURVE",
"43 177.219 OFFCURVE",
"43 197 CURVE",
"43 252 LINE",
"43 271.781 OFFCURVE",
"60.7898 287 OFFCURVE",
"98 287 CURVE",
"182 287 LINE",
"191 287 OFFCURVE",
"198 290 OFFCURVE",
"198 308 CURVE",
"199 393 LINE",
"199 410 OFFCURVE",
"170 410 OFFCURVE",
"178 410 CURVE",
"97 410 LINE",
"60.7861 410 OFFCURVE",
"43 425.201 OFFCURVE",
"43 444 CURVE",
"43 491 LINE",
"43 509.564 OFFCURVE",
"58.5991 525 OFFCURVE",
"97 525 CURVE",
"141 525 LINE",
"164 525 OFFCURVE",
"199 522 OFFCURVE",
"199 546 CURVE",
"199 697 LINE",
"199 715.242 OFFCURVE",
"224.075 728 OFFCURVE",
"256 728 CURVE"
);
}
);
width = 809;
}
);
unicode = 0023;
},
{
glyphname = dollar;
lastChange = "2014-06-06 02:37:33 -0500";
layers = (
{
layerId = "6B6936E6-7670-4A82-900D-EAF583C971AF";
name = Regular;
paths = (
{
closed = 1;
nodes = (
"397 -116 LINE SMOOTH",
"398 -137 OFFCURVE",
"388 -147 OFFCURVE",
"368 -146 CURVE SMOOTH",
"325 -146 LINE SMOOTH",
"306 -145 OFFCURVE",
"295 -134 OFFCURVE",
"298 -115 CURVE SMOOTH",
"307 -1 LINE SMOOTH",
"308 18 OFFCURVE",
"299 29 OFFCURVE",
"280 30 CURVE SMOOTH",
"221 36 OFFCURVE",
"158 50 OFFCURVE",
"96 76 CURVE SMOOTH",
"81 82 OFFCURVE",
"73 94 OFFCURVE",
"73 110 CURVE SMOOTH",
"75 208 LINE SMOOTH",
"75 230 OFFCURVE",
"90 239 OFFCURVE",
"110 227 CURVE SMOOTH",
"167 195 OFFCURVE",
"226 176 OFFCURVE",
"282 170 CURVE SMOOTH",
"301 169 OFFCURVE",
"312 179 OFFCURVE",
"313 197 CURVE SMOOTH",
"315 370 LINE SMOOTH",
"315 387 OFFCURVE",
"307 398 OFFCURVE",
"289 402 CURVE SMOOTH",
"-1 469 OFFCURVE",
"8 790 OFFCURVE",
"300 822 CURVE SMOOTH",
"319 824 OFFCURVE",
"328 833 OFFCURVE",
"329 852 CURVE SMOOTH",
"331 931 LINE SMOOTH",
"331 949 OFFCURVE",
"341 948 OFFCURVE",
"360 948 CURVE SMOOTH",
"379 947 OFFCURVE",
"388 949 OFFCURVE",
"387 930 CURVE SMOOTH",
"387 853 LINE SMOOTH",
"386 835 OFFCURVE",
"396 824 OFFCURVE",
"414 823 CURVE SMOOTH",
"466 818 OFFCURVE",
"516 809 OFFCURVE",
"563 794 CURVE SMOOTH",
"580 789 OFFCURVE",
"587 778 OFFCURVE",
"587 761 CURVE SMOOTH",
"586 733 LINE SMOOTH",
"586 712 OFFCURVE",
"573 704 OFFCURVE",
"553 713 CURVE SMOOTH",
"509 733 OFFCURVE",
"463 745 OFFCURVE",
"414 751 CURVE SMOOTH",
"396 752 OFFCURVE",
"385 743 OFFCURVE",
"385 722 CURVE SMOOTH",
"381 499 LINE SMOOTH",
"381 482 OFFCURVE",
"390 471 OFFCURVE",
"407 468 CURVE SMOOTH",
"739 411 OFFCURVE",
"718 71 OFFCURVE",
"418 31 CURVE SMOOTH",
"400 29 OFFCURVE",
"391 18 OFFCURVE",
"391 -1 CURVE SMOOTH"
);
},
{
closed = 1;
nodes = (
"318 718 LINE SMOOTH",
"318 738 OFFCURVE",
"306 748 OFFCURVE",
"287 745 CURVE SMOOTH",
"123 707 OFFCURVE",
"119 527 OFFCURVE",
"281 485 CURVE SMOOTH",
"300 481 OFFCURVE",
"313 490 OFFCURVE",
"313 510 CURVE SMOOTH"
);
},
{
closed = 1;
nodes = (
"381 195 LINE SMOOTH",
"381 176 OFFCURVE",
"393 167 OFFCURVE",
"412 169 CURVE SMOOTH",
"559 196 OFFCURVE",
"581 345 OFFCURVE",
"410 371 CURVE SMOOTH",
"387 374 OFFCURVE",
"377 366 OFFCURVE",
"377 346 CURVE SMOOTH"
);
}
);
width = 705;
},
{
layerId = "2BF3D7EC-9255-448B-A62B-3A7110FF42CA";
name = Bold;
paths = (
{
closed = 1;
nodes = (
"427 -116 LINE SMOOTH",
"428 -137 OFFCURVE",
"418 -146 OFFCURVE",
"398 -146 CURVE SMOOTH",
"295 -146 LINE SMOOTH",
"276 -146 OFFCURVE",
"266 -134 OFFCURVE",
"268 -115 CURVE SMOOTH",
"277 -31 LINE SMOOTH",
"279 -12 OFFCURVE",
"269 -1 OFFCURVE",
"250 0 CURVE SMOOTH",
"191 6 OFFCURVE",
"158 20 OFFCURVE",
"96 46 CURVE SMOOTH",
"81 52 OFFCURVE",
"73 64 OFFCURVE",
"73 80 CURVE SMOOTH",
"75 208 LINE SMOOTH",
"75 230 OFFCURVE",
"90 239 OFFCURVE",
"110 227 CURVE SMOOTH",
"167 195 OFFCURVE",
"226 176 OFFCURVE",
"282 170 CURVE SMOOTH",
"301 169 OFFCURVE",
"313 179 OFFCURVE",
"313 197 CURVE SMOOTH",
"315 351 LINE SMOOTH",
"315 368 OFFCURVE",
"307 379 OFFCURVE",
"289 383 CURVE SMOOTH",
"-1 450 OFFCURVE",
"8 800 OFFCURVE",
"300 832 CURVE SMOOTH",
"319 834 OFFCURVE",
"328 843 OFFCURVE",
"329 862 CURVE SMOOTH",
"331 931 LINE SMOOTH",
"332 949 OFFCURVE",
"371 948 OFFCURVE",
"390 948 CURVE SMOOTH",
"409 947 OFFCURVE",
"417 949 OFFCURVE",
"417 930 CURVE SMOOTH",
"417 863 LINE SMOOTH",
"417 845 OFFCURVE",
"426 834 OFFCURVE",
"444 833 CURVE SMOOTH",
"496 828 OFFCURVE",
"546 819 OFFCURVE",
"593 804 CURVE SMOOTH",
"610 799 OFFCURVE",
"617 788 OFFCURVE",
"617 771 CURVE SMOOTH",
"616 686 LINE SMOOTH",
"616 665 OFFCURVE",
"603 657 OFFCURVE",
"583 666 CURVE SMOOTH",
"539 686 OFFCURVE",
"493 707 OFFCURVE",
"444 713 CURVE SMOOTH",
"426 714 OFFCURVE",
"416 705 OFFCURVE",
"415 684 CURVE SMOOTH",
"411 518 LINE SMOOTH",
"411 501 OFFCURVE",
"420 490 OFFCURVE",
"437 487 CURVE SMOOTH",
"779 430 OFFCURVE",
"748 41 OFFCURVE",
"448 1 CURVE SMOOTH",
"430 -1 OFFCURVE",
"420 -12 OFFCURVE",
"421 -31 CURVE SMOOTH"
);
},
{
closed = 1;
nodes = (
"311 707 LINE SMOOTH",
"312 725 OFFCURVE",
"302 727 OFFCURVE",
"283 732 CURVE SMOOTH",
"200 753 OFFCURVE",
"155 572 OFFCURVE",
"277 514 CURVE SMOOTH",
"294 506 OFFCURVE",
"305 518 OFFCURVE",
"306 537 CURVE SMOOTH"
);
},
{
closed = 1;
nodes = (
"403 197 LINE SMOOTH",
"403 179 OFFCURVE",
"414 171 OFFCURVE",
"432 173 CURVE SMOOTH",
"565 197 OFFCURVE",
"567 333 OFFCURVE",
"430 356 CURVE SMOOTH",
"409 360 OFFCURVE",
"400 352 OFFCURVE",
"400 334 CURVE SMOOTH"
);
}
);
width = 719;
}
);
unicode = 0024;
},
{
glyphname = percent;
lastChange = "2014-03-17 12:22:30 -0500";
layers = (
{
components = (
{
name = slash;
transform = "{1, 0, 0, 1, 69, 12}";
}
);
layerId = "6B6936E6-7670-4A82-900D-EAF583C971AF";
name = Regular;
paths = (
{
closed = 1;
nodes = (
"495 291 OFFCURVE",
"461 244 OFFCURVE",
"461 164 CURVE SMOOTH",
"461 106 OFFCURVE",
"495 86 OFFCURVE",
"551 86 CURVE SMOOTH",
"607 86 OFFCURVE",
"641 106 OFFCURVE",
"641 164 CURVE SMOOTH",
"641 243 OFFCURVE",
"607 291 OFFCURVE",
"551 291 CURVE SMOOTH"
);
},
{
closed = 1;
nodes = (
"654 353 OFFCURVE",
"719 276 OFFCURVE",
"719 155 CURVE SMOOTH",
"719 33 OFFCURVE",
"653 -44 OFFCURVE",
"551 -44 CURVE SMOOTH",
"447 -44 OFFCURVE",
"382 33 OFFCURVE",
"382 155 CURVE SMOOTH",
"382 277 OFFCURVE",
"448 353 OFFCURVE",
"551 353 CURVE SMOOTH"
);
},
{
closed = 1;
nodes = (
"185 816 OFFCURVE",
"151 766 OFFCURVE",
"151 683 CURVE SMOOTH",
"151 619 OFFCURVE",
"185 598 OFFCURVE",
"242 598 CURVE SMOOTH",
"298 598 OFFCURVE",
"332 619 OFFCURVE",
"332 683 CURVE SMOOTH",
"332 765 OFFCURVE",
"298 816 OFFCURVE",
"242 816 CURVE SMOOTH"
);
},
{
closed = 1;
nodes = (
"345 878 OFFCURVE",
"411 802 OFFCURVE",
"411 680 CURVE SMOOTH",
"411 557 OFFCURVE",
"345 481 OFFCURVE",
"242 481 CURVE SMOOTH",
"138 481 OFFCURVE",
"73 558 OFFCURVE",
"73 680 CURVE SMOOTH",
"73 801 OFFCURVE",
"139 878 OFFCURVE",
"242 878 CURVE SMOOTH"
);
}
);
width = 792;
},
{
components = (
{
name = slash;
transform = "{1, 0, 0, 1, 62, 21}";
}
);
layerId = "2BF3D7EC-9255-448B-A62B-3A7110FF42CA";
name = Bold;
paths = (
{
closed = 1;
nodes = (
"95 894 OFFCURVE",
"24 812 OFFCURVE",
"24 685 CURVE SMOOTH",
"24 557 OFFCURVE",
"94 476 OFFCURVE",
"205 476 CURVE SMOOTH",
"315 476 OFFCURVE",
"386 556 OFFCURVE",
"386 685 CURVE SMOOTH",
"386 813 OFFCURVE",
"315 894 OFFCURVE",
"205 894 CURVE SMOOTH"
);
},
{
closed = 1;
nodes = (
"247 796 OFFCURVE",
"272 755 OFFCURVE",
"272 688 CURVE SMOOTH",
"272 641 OFFCURVE",
"247 626 OFFCURVE",
"205 626 CURVE SMOOTH",
"163 626 OFFCURVE",
"137 641 OFFCURVE",
"137 688 CURVE SMOOTH",
"137 756 OFFCURVE",
"163 796 OFFCURVE",
"205 796 CURVE SMOOTH"
);
},
{
closed = 1;
nodes = (
"495 390 OFFCURVE",
"424 309 OFFCURVE",
"424 181 CURVE SMOOTH",
"424 53 OFFCURVE",
"494 -28 OFFCURVE",
"604 -28 CURVE SMOOTH",
"713 -28 OFFCURVE",
"784 53 OFFCURVE",
"784 181 CURVE SMOOTH",
"784 308 OFFCURVE",
"714 390 OFFCURVE",
"604 390 CURVE SMOOTH"
);
},
{
closed = 1;
nodes = (
"647 292 OFFCURVE",
"671 254 OFFCURVE",
"671 190 CURVE SMOOTH",
"671 149 OFFCURVE",
"647 134 OFFCURVE",
"604 134 CURVE SMOOTH",
"562 134 OFFCURVE",
"538 149 OFFCURVE",
"538 190 CURVE SMOOTH",
"538 254 OFFCURVE",
"562 292 OFFCURVE",
"604 292 CURVE SMOOTH"
);
}
);
width = 802;
}
);
unicode = 0025;
},
{
glyphname = ampersand;
lastChange = "2014-03-15 20:44:14 -0500";
layers = (
{
guideLines = (
{
angle = 131.817;
position = "{489, 370}";
},
{
angle = -50;
position = "{387, 345}";
},
{
angle = 42.0177;
position = "{551, 255}";
},
{
angle = 45.1554;
position = "{638, 129}";
}
);
layerId = "6B6936E6-7670-4A82-900D-EAF583C971AF";
name = Regular;
paths = (
{
closed = 1;
nodes = (
"691 144 LINE SMOOTH",
"679 158 OFFCURVE",
"679 170 OFFCURVE",
"689 184 CURVE",
"740 265 OFFCURVE",
"762 347 OFFCURVE",
"769 430 CURVE SMOOTH",
"771 449 OFFCURVE",
"761 460 OFFCURVE",
"742 460 CURVE SMOOTH",
"679 459 LINE SMOOTH",
"660 459 OFFCURVE",
"651 449 OFFCURVE",
"648 431 CURVE SMOOTH",
"641 389 OFFCURVE",
"632 337 OFFCURVE",
"599 297 CURVE SMOOTH",
"583 278 OFFCURVE",
"573 277 OFFCURVE",
"559 292 CURVE SMOOTH",
"351 525 LINE SMOOTH",
"344 533 OFFCURVE",
"345 540 OFFCURVE",
"353 546 CURVE SMOOTH",
"398 582 OFFCURVE",
"449 624 OFFCURVE",
"484 664 CURVE SMOOTH",
"548 737 OFFCURVE",
"504 861 OFFCURVE",
"404 878 CURVE SMOOTH",
"267 902 OFFCURVE",
"171 796 OFFCURVE",
"171 672 CURVE SMOOTH",
"171 633 OFFCURVE",
"185 593 OFFCURVE",
"211 551 CURVE SMOOTH",
"220 536 OFFCURVE",
"219 523 OFFCURVE",
"205 511 CURVE SMOOTH",
"116 439 OFFCURVE",
"73 359 OFFCURVE",
"73 268 CURVE SMOOTH",
"73 123 OFFCURVE",
"160 -14 OFFCURVE",
"388 -14 CURVE SMOOTH",
"448 -14 OFFCURVE",
"493 -9 OFFCURVE",
"578 69 CURVE SMOOTH",
"593 83 OFFCURVE",
"608 80 OFFCURVE",
"619 67 CURVE SMOOTH",
"664 13 LINE SMOOTH",
"672 3 OFFCURVE",
"684 -1 OFFCURVE",
"699 -1 CURVE SMOOTH",
"774 -1 LINE SMOOTH",
"800 -1 OFFCURVE",
"806 16 OFFCURVE",
"790 34 CURVE SMOOTH"
);
},
{
closed = 1;
nodes = (
"480 755 OFFCURVE",
"440 689 OFFCURVE",
"327 601 CURVE SMOOTH",
"310 588 OFFCURVE",
"297 585 OFFCURVE",
"291 592 CURVE SMOOTH",
"275 610 OFFCURVE",
"264 625 OFFCURVE",
"257 637 CURVE",
"183 743 OFFCURVE",
"353 908 OFFCURVE",
"436 808 CURVE SMOOTH"
);
},
{
closed = 1;
nodes = (
"456 174 OFFCURVE",
"366 173 OFFCURVE",
"333 173 CURVE SMOOTH",
"168 173 OFFCURVE",
"165 269 OFFCURVE",
"165 296 CURVE SMOOTH",
"165 358 OFFCURVE",
"190 412 OFFCURVE",
"246 467 CURVE",
"257.371 475.713 LINE",
"267.52 480.427 OFFCURVE",
"277.526 476.932 OFFCURVE",
"287 466 CURVE SMOOTH",
"481 231 LINE SMOOTH",
"494 216 OFFCURVE",
"493 202 OFFCURVE",
"477 190 CURVE SMOOTH"
);
}
);
width = 871.826;
},
{
layerId = "2BF3D7EC-9255-448B-A62B-3A7110FF42CA";
name = Bold;
paths = (
{
closed = 1;
nodes = (
"722 152 LINE SMOOTH",
"709 167 OFFCURVE",
"709 179 OFFCURVE",
"720 194 CURVE",
"773 279 OFFCURVE",
"796 365 OFFCURVE",
"804 452 CURVE SMOOTH",
"806 472 OFFCURVE",
"795 484 OFFCURVE",
"775 484 CURVE SMOOTH",
"709 483 LINE SMOOTH",
"689 483 OFFCURVE",
"680 472 OFFCURVE",
"677 453 CURVE SMOOTH",
"669 409 OFFCURVE",
"660 355 OFFCURVE",
"625 313 CURVE SMOOTH",
"608 293 OFFCURVE",
"598 292 OFFCURVE",
"583 307 CURVE SMOOTH",
"365 552 LINE SMOOTH",
"357 560 OFFCURVE",
"358 568 OFFCURVE",
"367 574 CURVE SMOOTH",
"414 612 OFFCURVE",
"468 656 OFFCURVE",
"504 698 CURVE SMOOTH",
"572 775 OFFCURVE",
"525 905 OFFCURVE",
"420 923 CURVE SMOOTH",
"277 948 OFFCURVE",
"176 836 OFFCURVE",
"176 706 CURVE SMOOTH",
"176 665 OFFCURVE",
"190 623 OFFCURVE",
"218 579 CURVE SMOOTH",
"227 563 OFFCURVE",
"226 550 OFFCURVE",
"211 537 CURVE SMOOTH",
"118 462 OFFCURVE",
"73 378 OFFCURVE",
"73 282 CURVE SMOOTH",
"73 130 OFFCURVE",
"164 -14 OFFCURVE",
"404 -14 CURVE SMOOTH",
"467 -14 OFFCURVE",
"514 -9 OFFCURVE",
"603 73 CURVE SMOOTH",
"619 88 OFFCURVE",
"635 85 OFFCURVE",
"646 71 CURVE SMOOTH",
"693 14 LINE SMOOTH",
"702 4 OFFCURVE",
"714 0 OFFCURVE",
"730 0 CURVE SMOOTH",
"809 0 LINE SMOOTH",
"836 0 OFFCURVE",
"843 17 OFFCURVE",
"826 36 CURVE SMOOTH"
);
},
{
closed = 1;
nodes = (
"470 772 OFFCURVE",
"435 715 OFFCURVE",
"338 639 CURVE SMOOTH",
"323 628 OFFCURVE",
"312 625 OFFCURVE",
"307 631 CURVE SMOOTH",
"293 647 OFFCURVE",
"283 660 OFFCURVE",
"277 670 CURVE",
"213 762 OFFCURVE",
"360 904 OFFCURVE",
"432 818 CURVE SMOOTH"
);
},
{
closed = 1;
nodes = (
"462 174 OFFCURVE",
"380 173 OFFCURVE",
"350 173 CURVE SMOOTH",
"201 173 OFFCURVE",
"198 260 OFFCURVE",
"198 285 CURVE SMOOTH",
"198 341 OFFCURVE",
"221 390 OFFCURVE",
"272 440 CURVE",
"282 448 LINE",
"291 452 OFFCURVE",
"300 449 OFFCURVE",
"309 439 CURVE SMOOTH",
"485 226 LINE SMOOTH",
"497 212 OFFCURVE",
"496 199 OFFCURVE",
"481 188 CURVE SMOOTH"
);
}
);
width = 908.217;
}
);
unicode = 0026;
},
{
glyphname = quotesingle;
lastChange = "2014-06-06 02:48:36 -0500";
layers = (
{
layerId = "6B6936E6-7670-4A82-900D-EAF583C971AF";
name = Regular;
paths = (
{
closed = 1;
nodes = (
"171 1009 LINE SMOOTH",
"181 1009 OFFCURVE",
"187 1004 OFFCURVE",
"186 994 CURVE SMOOTH",
"156 753 LINE SMOOTH",
"155 743 OFFCURVE",
"151 738 OFFCURVE",
"141 738 CURVE SMOOTH",
"88 738 LINE SMOOTH",
"78 738 OFFCURVE",
"72 743 OFFCURVE",
"73 753 CURVE SMOOTH",
"103 994 LINE SMOOTH",
"104 1004 OFFCURVE",
"108 1009 OFFCURVE",
"118 1009 CURVE SMOOTH"
);
}
);
width = 259.108;
},
{
layerId = "2BF3D7EC-9255-448B-A62B-3A7110FF42CA";
name = Bold;
paths = (
{
closed = 1;
nodes = (
"135 1012 LINE SMOOTH",
"113 1012 OFFCURVE",
"103 1000 OFFCURVE",
"101 980 CURVE SMOOTH",
"73 750 LINE SMOOTH",
"70 726 OFFCURVE",
"84 715 OFFCURVE",
"106 715 CURVE SMOOTH",
"157 715 LINE SMOOTH",
"181 715 OFFCURVE",
"188 726 OFFCURVE",
"190 746 CURVE SMOOTH",
"219 977 LINE SMOOTH",
"222 1000 OFFCURVE",
"208 1012 OFFCURVE",
"185 1012 CURVE SMOOTH"
);
}
);
width = 292.403;
}
);
unicode = 0027;
},
{
glyphname = parenleft;
lastChange = "2014-06-06 02:43:49 -0500";
layers = (
{
layerId = "6B6936E6-7670-4A82-900D-EAF583C971AF";
name = Regular;
paths = (
{
closed = 1;
nodes = (
"361 911 LINE SMOOTH",
"384 909 OFFCURVE",
"389 893 OFFCURVE",
"375 876 CURVE SMOOTH",
"132 548 OFFCURVE",
"146 274 OFFCURVE",
"251 -99 CURVE SMOOTH",
"257 -120 OFFCURVE",
"250 -133 OFFCURVE",
"228 -131 CURVE SMOOTH",
"145 -122 LINE SMOOTH",
"129 -120 OFFCURVE",
"118 -112 OFFCURVE",
"114 -97 CURVE SMOOTH",
"45 256 OFFCURVE",
"40 627 OFFCURVE",
"283 903 CURVE SMOOTH",
"293 915 OFFCURVE",
"303 919 OFFCURVE",
"319 917 CURVE SMOOTH"
);
}
);
width = 455.788;
},
{
layerId = "2BF3D7EC-9255-448B-A62B-3A7110FF42CA";
name = Bold;
paths = (
{
closed = 1;
nodes = (
"401 911 LINE SMOOTH",
"424 909 OFFCURVE",
"429 893 OFFCURVE",
"415 876 CURVE SMOOTH",
"172 548 OFFCURVE",
"186 274 OFFCURVE",
"291 -99 CURVE SMOOTH",
"297 -120 OFFCURVE",
"290 -133 OFFCURVE",
"268 -131 CURVE SMOOTH",
"145 -122 LINE SMOOTH",
"129 -121 OFFCURVE",
"118 -112 OFFCURVE",
"114 -97 CURVE SMOOTH",
"45 256 OFFCURVE",
"40 627 OFFCURVE",
"283 903 CURVE SMOOTH",
"293 915 OFFCURVE",
"303 918 OFFCURVE",
"319 917 CURVE SMOOTH"
);
}
);
width = 495.788;
}
);
unicode = 0028;
},
{
glyphname = parenright;
lastChange = "2014-06-06 02:43:56 -0500";
layers = (
{
layerId = "6B6936E6-7670-4A82-900D-EAF583C971AF";
name = Regular;
paths = (
{
closed = 1;
nodes = (
"185 913 OFFCURVE",
"194 906 OFFCURVE",
"202 893 CURVE SMOOTH",
"397 583 OFFCURVE",
"339 222 OFFCURVE",
"213 -120 CURVE SMOOTH",
"207 -135 OFFCURVE",
"195 -141 OFFCURVE",
"179 -140 CURVE SMOOTH",
"96 -136 LINE SMOOTH",
"74 -135 OFFCURVE",
"68 -122 OFFCURVE",
"77 -101 CURVE SMOOTH",
"239 248 OFFCURVE",
"299 514 OFFCURVE",
"107 881 CURVE SMOOTH",
"96 901 OFFCURVE",
"104 914 OFFCURVE",
"127 914 CURVE SMOOTH",
"169 913 LINE SMOOTH"
);
}
);
width = 401.511;
},
{
layerId = "2BF3D7EC-9255-448B-A62B-3A7110FF42CA";
name = Bold;
paths = (
{
closed = 1;
nodes = (
"225 913 OFFCURVE",
"234 906 OFFCURVE",
"242 893 CURVE SMOOTH",
"437 583 OFFCURVE",
"379 222 OFFCURVE",
"253 -120 CURVE SMOOTH",
"247 -135 OFFCURVE",
"235 -141 OFFCURVE",
"219 -140 CURVE SMOOTH",
"96 -136 LINE SMOOTH",
"74 -135 OFFCURVE",
"68 -122 OFFCURVE",
"77 -101 CURVE SMOOTH",
"239 248 OFFCURVE",
"299 514 OFFCURVE",
"107 881 CURVE SMOOTH",
"96 901 OFFCURVE",
"104 914 OFFCURVE",
"127 914 CURVE SMOOTH",
"209 913 LINE SMOOTH"
);
}
);
width = 441.511;
}
);
unicode = 0029;
},
{
glyphname = asterisk;
lastChange = "2014-06-06 02:46:50 -0500";
layers = (
{
layerId = "6B6936E6-7670-4A82-900D-EAF583C971AF";
name = Regular;
paths = (
{
closed = 1;
nodes = (
"516 629 LINE SMOOTH",
"517 615 OFFCURVE",
"513 606 OFFCURVE",
"500 599 CURVE SMOOTH",
"378 533 LINE SMOOTH",
"359 523 OFFCURVE",
"362 509 OFFCURVE",
"383 500 CURVE SMOOTH",
"522 447 LINE SMOOTH",
"539 440 OFFCURVE",
"543 427 OFFCURVE",
"532 412 CURVE SMOOTH",
"514 385 LINE SMOOTH",
"504 371 OFFCURVE",
"491 369 OFFCURVE",
"478 378 CURVE SMOOTH",
"360 449 LINE SMOOTH",
"342 460 OFFCURVE",
"329 451 OFFCURVE",
"331 430 CURVE SMOOTH",
"344 316 LINE SMOOTH",
"347 300 OFFCURVE",
"339 289 OFFCURVE",
"323 286 CURVE SMOOTH",
"296 282 LINE SMOOTH",
"278 278 OFFCURVE",
"268 286 OFFCURVE",
"268 304 CURVE SMOOTH",
"268 429 LINE SMOOTH",
"268 451 OFFCURVE",
"254 457 OFFCURVE",
"237 444 CURVE SMOOTH",
"137 362 LINE SMOOTH",
"124 350 OFFCURVE",
"111 352 OFFCURVE",
"101 366 CURVE SMOOTH",
"82 393 LINE SMOOTH",
"71 407 OFFCURVE",
"75 420 OFFCURVE",
"90 428 CURVE SMOOTH",
"214 496 LINE SMOOTH",
"234 506 OFFCURVE",
"237 521 OFFCURVE",
"217 528 CURVE SMOOTH",
"89 580 LINE SMOOTH",
"73 585 OFFCURVE",
"69 598 OFFCURVE",
"78 612 CURVE SMOOTH",
"94 637 LINE SMOOTH",
"102 650 OFFCURVE",
"114 653 OFFCURVE",
"127 645 CURVE SMOOTH",
"238 578 LINE SMOOTH",
"256 567 OFFCURVE",
"268 575 OFFCURVE",
"266 596 CURVE SMOOTH",
"254 700 LINE SMOOTH",
"252 715 OFFCURVE",
"258 725 OFFCURVE",
"273 729 CURVE SMOOTH",
"299 735 LINE SMOOTH",
"316 739 OFFCURVE",
"326 731 OFFCURVE",
"326 714 CURVE SMOOTH",
"326 593 LINE SMOOTH",
"326 573 OFFCURVE",
"339 566 OFFCURVE",
"355 577 CURVE SMOOTH",
"483 660 LINE SMOOTH",
"499 670 OFFCURVE",
"511 664 OFFCURVE",
"514 645 CURVE SMOOTH"
);
}
);
width = 611.152;
},
{
layerId = "2BF3D7EC-9255-448B-A62B-3A7110FF42CA";
name = Bold;
paths = (
{
closed = 1;
nodes = (
"531 610 LINE",
"532 593 OFFCURVE",
"526 580 OFFCURVE",
"512 573 CURVE",
"390 527 LINE",
"375 519 OFFCURVE",
"376 514 OFFCURVE",
"395 506 CURVE",
"534 464 LINE",
"553 456 OFFCURVE",
"559 435 OFFCURVE",
"546 418 CURVE",
"518.16 381.117 LINE",
"505.028 362.674 OFFCURVE",
"491.829 360.701 OFFCURVE",
"475.154 372.245 CURVE",
"367 423 LINE",
"354 431 OFFCURVE",
"345 425 OFFCURVE",
"346 411 CURVE",
"359 327 LINE",
"363 308 OFFCURVE",
"351 292 OFFCURVE",
"334 289 CURVE",
"287 275 LINE",
"265 270 OFFCURVE",
"253 280 OFFCURVE",
"253 304 CURVE",
"253 409 LINE",
"253 424 OFFCURVE",
"243 428 OFFCURVE",
"230 418 CURVE",
"150 347 LINE",
"134 331 OFFCURVE",
"120 334 OFFCURVE",
"107 352 CURVE",
"68 399 LINE",
"55 415 OFFCURVE",
"61 435 OFFCURVE",
"78 444 CURVE",
"182 502 LINE",
"200 511 OFFCURVE",
"201 516 OFFCURVE",
"185 521 CURVE",
"87 564 LINE",
"69 569 OFFCURVE",
"63 589 OFFCURVE",
"74 606 CURVE",
"100 661 LINE",
"111 678 OFFCURVE",
"123 681 OFFCURVE",
"140 671 CURVE",
"231 594 LINE",
"244 586 OFFCURVE",
"252 591 OFFCURVE",
"251 605 CURVE",
"239 709 LINE",
"237 727 OFFCURVE",
"245 741 OFFCURVE",
"262 746 CURVE",
"308 746 LINE",
"329 746 OFFCURVE",
"341 737 OFFCURVE",
"341 714 CURVE",
"341 603 LINE",
"341 590 OFFCURVE",
"351 585 OFFCURVE",
"362 593 CURVE",
"470 676 LINE",
"491 689 OFFCURVE",
"502 689 OFFCURVE",
"513 659 CURVE"
);
}
);
width = 631;
}
);
unicode = 002A;
},
{
glyphname = plus;
lastChange = "2014-06-06 02:48:18 -0500";
layers = (
{
layerId = "6B6936E6-7670-4A82-900D-EAF583C971AF";
name = Regular;
paths = (
{
closed = 1;
nodes = (
"407 630 LINE SMOOTH",
"424 630 OFFCURVE",
"433 621 OFFCURVE",
"433 604 CURVE SMOOTH",
"433 387 LINE SMOOTH",
"433 371 OFFCURVE",
"443 361 OFFCURVE",
"460 361 CURVE SMOOTH",
"676 361 LINE SMOOTH",
"692 361 OFFCURVE",
"703 352 OFFCURVE",
"703 335 CURVE SMOOTH",
"703 296 LINE SMOOTH",
"703 279 OFFCURVE",
"693 270 OFFCURVE",
"676 270 CURVE SMOOTH",
"460 270 LINE SMOOTH",
"443 270 OFFCURVE",
"433 260 OFFCURVE",
"433 242 CURVE SMOOTH",
"433 26 LINE SMOOTH",
"433 9 OFFCURVE",
"423 0 OFFCURVE",
"407 0 CURVE SMOOTH",
"370 0 LINE SMOOTH",
"353 0 OFFCURVE",
"343 8 OFFCURVE",
"343 26 CURVE SMOOTH",
"343 242 LINE SMOOTH",
"343 260 OFFCURVE",
"334 270 OFFCURVE",
"317 270 CURVE SMOOTH",
"101 270 LINE SMOOTH",
"84 270 OFFCURVE",
"73 278 OFFCURVE",
"73 296 CURVE SMOOTH",
"73 335 LINE SMOOTH",
"73 352 OFFCURVE",
"84 361 OFFCURVE",
"101 361 CURVE SMOOTH",
"317 361 LINE SMOOTH",
"334 361 OFFCURVE",
"343 370 OFFCURVE",
"343 387 CURVE SMOOTH",
"343 604 LINE SMOOTH",
"343 620 OFFCURVE",
"351 630 OFFCURVE",
"370 630 CURVE SMOOTH"
);
}
);
width = 776;
},
{
layerId = "2BF3D7EC-9255-448B-A62B-3A7110FF42CA";
name = Bold;
paths = (
{
closed = 1;
nodes = (
"437 653 LINE",
"473 653 OFFCURVE",
"493 633 OFFCURVE",
"493 604 CURVE",
"493 407 LINE",
"493 391 OFFCURVE",
"505 384 OFFCURVE",
"520 384 CURVE",
"706 384 LINE",
"739 384 OFFCURVE",
"763 365 OFFCURVE",
"763 335 CURVE",
"763 296 LINE",
"763 267 OFFCURVE",
"741 247 OFFCURVE",
"706 247 CURVE",
"520 247 LINE",
"505 247 OFFCURVE",
"493 240 OFFCURVE",
"493 222 CURVE",
"493 26 LINE",
"493 -3 OFFCURVE",
"471 -23 OFFCURVE",
"437 -23 CURVE",
"400 -23 LINE",
"366 -23 OFFCURVE",
"343 -5 OFFCURVE",
"343 26 CURVE",
"343 222 LINE",
"343 238 OFFCURVE",
"325 247 OFFCURVE",
"317 247 CURVE",
"131 247 LINE",
"98 247 OFFCURVE",
"73 264 OFFCURVE",
"73 296 CURVE",
"73 335 LINE",
"73 365 OFFCURVE",
"97 384 OFFCURVE",
"131 384 CURVE",
"317 384 LINE",
"332 384 OFFCURVE",
"343 390 OFFCURVE",
"343 407 CURVE",
"343 604 LINE",
"343 630 OFFCURVE",
"360 653 OFFCURVE",
"400 653 CURVE"
);
}
);
width = 836;
}
);
unicode = 002B;
},
{
glyphname = comma;
lastChange = "2014-06-06 02:48:45 -0500";
layers = (
{
anchors = (
{
name = _comma;
position = "{193, 119}";
}
);
layerId = "6B6936E6-7670-4A82-900D-EAF583C971AF";
name = Regular;
paths = (
{
closed = 1;
nodes = (
"118 97 LINE SMOOTH",
"116 114 OFFCURVE",
"126 122 OFFCURVE",
"144 122 CURVE SMOOTH",
"221 122 LINE SMOOTH",
"238 122 OFFCURVE",
"245 114 OFFCURVE",
"247 97 CURVE SMOOTH",
"257 31 LINE SMOOTH",
"259 19 OFFCURVE",
"255 9 OFFCURVE",
"247 -1 CURVE SMOOTH",
"143 -134 LINE SMOOTH",
"135 -145 OFFCURVE",
"125 -151 OFFCURVE",
"113 -151 CURVE SMOOTH",
"97 -151 LINE SMOOTH",
"78 -151 OFFCURVE",
"69 -138 OFFCURVE",
"75 -122 CURVE SMOOTH",
"124 -2 LINE SMOOTH",
"129 10 OFFCURVE",
"130 18 OFFCURVE",
"128 30 CURVE SMOOTH"
);
}
);
width = 330.51;
},
{
layerId = "2BF3D7EC-9255-448B-A62B-3A7110FF42CA";
name = Bold;
paths = (
{
closed = 1;
nodes = (
"126 45 LINE SMOOTH",
"127 37 OFFCURVE",
"127 32 OFFCURVE",
"123 24 CURVE",
"76 -91 LINE SMOOTH",
"65 -120 OFFCURVE",
"81 -144 OFFCURVE",
"115 -144 CURVE SMOOTH",
"131 -144 LINE SMOOTH",
"148 -144 OFFCURVE",
"163 -135 OFFCURVE",
"175 -120 CURVE SMOOTH",
"274 7 LINE",
"284 18 OFFCURVE",
"289 36 OFFCURVE",
"287 52 CURVE SMOOTH",
"278 115 LINE SMOOTH",
"275 141 OFFCURVE",
"262 155 OFFCURVE",
"234 155 CURVE SMOOTH",
"160 155 LINE SMOOTH",
"130 155 OFFCURVE",
"112 141 OFFCURVE",
"116 109 CURVE SMOOTH"
);
}
);
width = 360.435;
}
);
unicode = 002C;
},
{
glyphname = hyphen;
lastChange = "2014-03-15 20:44:14 -0500";
layers = (
{
layerId = "6B6936E6-7670-4A82-900D-EAF583C971AF";
name = Regular;
paths = (
{
closed = 1;
nodes = (
"71 244 OFFCURVE",
"80 234 OFFCURVE",
"97 234 CURVE SMOOTH",
"311 238 LINE SMOOTH",
"326 238 OFFCURVE",
"334 246 OFFCURVE",
"337 261 CURVE SMOOTH",
"342 297 LINE SMOOTH",
"345 314 OFFCURVE",
"337 324 OFFCURVE",
"320 323 CURVE SMOOTH",
"106 319 LINE SMOOTH",
"91 319 OFFCURVE",
"82 312 OFFCURVE",
"80 297 CURVE SMOOTH",
"74 260 LINE SMOOTH"
);
}
);
width = 415.619;
},
{
layerId = "2BF3D7EC-9255-448B-A62B-3A7110FF42CA";
name = Bold;
paths = (
{
closed = 1;
nodes = (
"74 272 LINE SMOOTH",
"69 243 OFFCURVE",
"86 224 OFFCURVE",
"115 224 CURVE SMOOTH",
"320 228 LINE SMOOTH",
"346 228 OFFCURVE",
"359 240 OFFCURVE",
"364 264 CURVE",
"365 274 OFFCURVE",
"368 289 OFFCURVE",
"369 300 CURVE SMOOTH",
"372 329 OFFCURVE",
"358 348 OFFCURVE",
"329 347 CURVE SMOOTH",
"124 343 LINE SMOOTH",
"98 343 OFFCURVE",
"83 331 OFFCURVE",
"80 306 CURVE"
);
}
);
width = 442.398;
}
);
unicode = 002D;
},
{
glyphname = period;
lastChange = "2014-03-15 20:44:14 -0500";
layers = (
{
layerId = "6B6936E6-7670-4A82-900D-EAF583C971AF";
name = Regular;
paths = (
{
closed = 1;
nodes = (
"79 139 LINE SMOOTH",
"80 154 OFFCURVE",
"89 162 OFFCURVE",
"105 162 CURVE SMOOTH",
"201 162 LINE SMOOTH",
"218 162 OFFCURVE",
"226 153 OFFCURVE",
"225 137 CURVE SMOOTH",
"219 23 LINE SMOOTH",
"218 8 OFFCURVE",
"209 0 OFFCURVE",
"193 0 CURVE SMOOTH",
"96 0 LINE SMOOTH",
"80 0 OFFCURVE",
"72 9 OFFCURVE",
"73 25 CURVE SMOOTH"
);
}
);
width = 298.083;
},
{
layerId = "2BF3D7EC-9255-448B-A62B-3A7110FF42CA";
name = Bold;
paths = (
{
closed = 1;
nodes = (
"73 44 LINE SMOOTH",
"71 16 OFFCURVE",
"86 0 OFFCURVE",
"114 0 CURVE SMOOTH",
"207 0 LINE SMOOTH",
"235 0 OFFCURVE",
"249 14 OFFCURVE",
"251 40 CURVE SMOOTH",
"257 149 LINE SMOOTH",
"258 177 OFFCURVE",
"244 193 OFFCURVE",
"214 193 CURVE SMOOTH",
"123 193 LINE SMOOTH",
"95 193 OFFCURVE",
"81 179 OFFCURVE",
"79 153 CURVE SMOOTH"
);
}
);
width = 330.05;
}
);
unicode = 002E;
},
{
glyphname = slash;
lastChange = "2014-03-15 20:44:14 -0500";
layers = (
{
layerId = "6B6936E6-7670-4A82-900D-EAF583C971AF";
name = Regular;
paths = (
{
closed = 1;
nodes = (
"471 850 LINE SMOOTH",
"477 863 OFFCURVE",
"485 870 OFFCURVE",
"499 869 CURVE SMOOTH",
"523 868 LINE SMOOTH",
"541 868 OFFCURVE",
"551 857 OFFCURVE",
"544 840 CURVE SMOOTH",
"185 -76 LINE SMOOTH",
"180 -90 OFFCURVE",
"171 -96 OFFCURVE",
"157 -96 CURVE SMOOTH",
"95 -94 LINE SMOOTH",
"77 -93 OFFCURVE",
"68 -82 OFFCURVE",
"75 -65 CURVE SMOOTH"
);
}
);
width = 619.248;
},
{
layerId = "2BF3D7EC-9255-448B-A62B-3A7110FF42CA";
name = Bold;
paths = (
{
closed = 1;
nodes = (
"78 -35 LINE SMOOTH",
"65 -68 OFFCURVE",
"81 -88 OFFCURVE",
"114 -90 CURVE SMOOTH",
"174 -92 LINE SMOOTH",
"195 -92 OFFCURVE",
"211 -80 OFFCURVE",
"219 -60 CURVE SMOOTH",
"562 816 LINE",
"561 815 LINE",
"574 847 OFFCURVE",
"556 868 OFFCURVE",
"524 868 CURVE SMOOTH",
"516 868 OFFCURVE",
"509 869 OFFCURVE",
"502 869 CURVE",
"479 870 OFFCURVE",
"466 860 OFFCURVE",
"457 839 CURVE SMOOTH"
);
}
);
width = 638.261;
}
);
unicode = 002F;
},
{
color = 6;
glyphname = zero;
lastChange = "2014-03-15 20:44:14 -0500";
layers = (
{
layerId = "6B6936E6-7670-4A82-900D-EAF583C971AF";
name = Regular;
paths = (
{
closed = 1;
nodes = (
"257 820 OFFCURVE",
"196 715 OFFCURVE",
"196 516 CURVE SMOOTH",
"196 298 OFFCURVE",
"245 200 OFFCURVE",
"364 200 CURVE SMOOTH",
"485 200 OFFCURVE",
"541 305 OFFCURVE",
"557 516 CURVE",
"557 715 OFFCURVE",
"497 820 OFFCURVE",
"376 820 CURVE SMOOTH"
);
},
{
closed = 1;
nodes = (
"570 913 OFFCURVE",
"668 758 OFFCURVE",
"668 432 CURVE SMOOTH",
"668 142 OFFCURVE",
"558 -14 OFFCURVE",
"364 -14 CURVE SMOOTH",
"172 -14 OFFCURVE",
"66 142 OFFCURVE",
"73 432 CURVE SMOOTH",
"81 758 OFFCURVE",
"184 913 OFFCURVE",
"376 913 CURVE SMOOTH"
);
},
{
closed = 1;
nodes = (
"419 385 OFFCURVE",
"431 440 OFFCURVE",
"431 483 CURVE SMOOTH",
"431 597 OFFCURVE",
"419 646 OFFCURVE",
"373 646 CURVE SMOOTH",
"321 646 OFFCURVE",
"314 582 OFFCURVE",
"314 483 CURVE SMOOTH",
"314 440 OFFCURVE",
"326 385 OFFCURVE",
"373 385 CURVE SMOOTH"
);
}
);
width = 741;
},
{
layerId = "2BF3D7EC-9255-448B-A62B-3A7110FF42CA";
name = Bold;
paths = (
{
closed = 1;
nodes = (
"186 911 OFFCURVE",
"80 757 OFFCURVE",
"73 432 CURVE SMOOTH",
"66 142 OFFCURVE",
"174 -13 OFFCURVE",
"370 -13 CURVE SMOOTH",
"568 -13 OFFCURVE",
"680 142 OFFCURVE",
"680 432 CURVE SMOOTH",
"680 757 OFFCURVE",
"580 911 OFFCURVE",
"382 911 CURVE SMOOTH"
);
},
{
closed = 1;
nodes = (
"485 784 OFFCURVE",
"536 691 OFFCURVE",
"536 514 CURVE",
"520 329 OFFCURVE",
"471 229 OFFCURVE",
"370 229 CURVE SMOOTH",
"270 229 OFFCURVE",
"229 317 OFFCURVE",
"229 512 CURVE SMOOTH",
"229 690 OFFCURVE",
"280 784 OFFCURVE",
"382 784 CURVE SMOOTH"
);
},
{
closed = 1;
nodes = (
"407 406 OFFCURVE",
"415 448 OFFCURVE",
"415 481 CURVE SMOOTH",
"415 576 OFFCURVE",
"407 618 OFFCURVE",
"379 618 CURVE SMOOTH",
"346 618 OFFCURVE",
"341 564 OFFCURVE",
"341 481 CURVE SMOOTH",
"341 448 OFFCURVE",
"349 406 OFFCURVE",
"379 406 CURVE SMOOTH"
);
}
);
width = 753;
}
);
unicode = 0030;
},
{
color = 6;
glyphname = one;
lastChange = "2014-06-08 20:02:49 -0500";
layers = (
{
layerId = "6B6936E6-7670-4A82-900D-EAF583C971AF";
name = Regular;
paths = (
{
closed = 1;
nodes = (
"111 113 LINE SMOOTH",
"111 132 OFFCURVE",
"120 143 OFFCURVE",
"139 143 CURVE SMOOTH",
"239 143 LINE SMOOTH",
"258 143 OFFCURVE",
"269 153 OFFCURVE",
"269 171 CURVE SMOOTH",
"281 722 LINE SMOOTH",
"281 742 OFFCURVE",
"269 752 OFFCURVE",
"249 748 CURVE SMOOTH",
"105 719 LINE SMOOTH",
"85 715 OFFCURVE",
"73 725 OFFCURVE",
"73 745 CURVE SMOOTH",
"73 805 LINE SMOOTH",
"73 822 OFFCURVE",
"82 832 OFFCURVE",
"99 835 CURVE",
"259 855 LINE SMOOTH",
"266 857 OFFCURVE",
"272 858 OFFCURVE",
"281 859 CURVE SMOOTH",
"402 884 LINE",
"421 886 OFFCURVE",
"430 874 OFFCURVE",
"430 855 CURVE SMOOTH",
"419 171 LINE SMOOTH",
"419 153 OFFCURVE",
"429 143 OFFCURVE",
"448 143 CURVE SMOOTH",
"537 143 LINE SMOOTH",
"556 143 OFFCURVE",
"565 132 OFFCURVE",
"565 113 CURVE SMOOTH",
"565 28 LINE SMOOTH",
"565 11 OFFCURVE",
"556 0 OFFCURVE",
"537 0 CURVE SMOOTH",
"139 0 LINE SMOOTH",
"120 0 OFFCURVE",
"111 11 OFFCURVE",
"111 28 CURVE SMOOTH"
);
}
);
width = 638;
},
{
layerId = "2BF3D7EC-9255-448B-A62B-3A7110FF42CA";
name = Bold;
paths = (
{
closed = 1;
nodes = (
"109 46 LINE SMOOTH",
"109 18 OFFCURVE",
"123 0 OFFCURVE",
"155 0 CURVE SMOOTH",
"535 0 LINE SMOOTH",
"567 0 OFFCURVE",
"581 18 OFFCURVE",
"581 46 CURVE SMOOTH",
"581 127 LINE SMOOTH",
"581 158 OFFCURVE",
"567 175 OFFCURVE",
"535 175 CURVE SMOOTH",
"450 175 LINE SMOOTH",
"445 175 OFFCURVE",
"442 178 OFFCURVE",
"442 183 CURVE SMOOTH",
"452 845 LINE SMOOTH",
"452 876 OFFCURVE",
"436 895 OFFCURVE",
"401 891 CURVE",
"287 867 LINE",
"268 864 LINE",
"114 845 LINE",
"87 840 OFFCURVE",
"73 824 OFFCURVE",
"73 797 CURVE SMOOTH",
"73 731 LINE SMOOTH",
"73 698 OFFCURVE",
"95 682 OFFCURVE",
"126 687 CURVE",
"264 715 LINE SMOOTH",
"269 716 OFFCURVE",
"272 713 OFFCURVE",
"272 709 CURVE SMOOTH",
"260 183 LINE SMOOTH",
"260 178 OFFCURVE",
"256 175 OFFCURVE",
"251 175 CURVE SMOOTH",
"155 175 LINE SMOOTH",
"123 175 OFFCURVE",
"109 158 OFFCURVE",
"109 127 CURVE SMOOTH"
);
}
);
width = 654;
}
);
unicode = 0031;
},
{
color = 6;
glyphname = two;
lastChange = "2014-03-15 20:44:14 -0500";
layers = (
{
layerId = "6B6936E6-7670-4A82-900D-EAF583C971AF";
name = Regular;
paths = (
{
closed = 1;
nodes = (
"597 168 LINE SMOOTH",
"615 168 OFFCURVE",
"626 157 OFFCURVE",
"626 138 CURVE SMOOTH",
"626 28 LINE SMOOTH",
"626 11 OFFCURVE",
"615 0 OFFCURVE",
"597 0 CURVE SMOOTH",
"108 0 LINE SMOOTH",
"90 0 OFFCURVE",
"80 9 OFFCURVE",
"80 28 CURVE SMOOTH",
"80 146 LINE SMOOTH",
"80 160 OFFCURVE",
"86 172 OFFCURVE",
"96 181 CURVE SMOOTH",
"331 373 OFFCURVE",
"438 493 OFFCURVE",
"460 538 CURVE SMOOTH",
"475 566 OFFCURVE",
"483 607 OFFCURVE",
"483 635 CURVE SMOOTH",
"483 726 OFFCURVE",
"434 789 OFFCURVE",
"331 789 CURVE SMOOTH",
"266 789 OFFCURVE",
"198 766 OFFCURVE",
"120 708 CURVE SMOOTH",
"100 694 OFFCURVE",
"90 706 OFFCURVE",
"86 728 CURVE SMOOTH",
"74 782 LINE SMOOTH",
"70 800 OFFCURVE",
"81 806 OFFCURVE",
"96 815 CURVE SMOOTH",
"180 866 OFFCURVE",
"266 887 OFFCURVE",
"329 887 CURVE SMOOTH",
"507 887 OFFCURVE",
"621 792 OFFCURVE",
"621 642 CURVE SMOOTH",
"621 489 OFFCURVE",
"470 335 OFFCURVE",
"352 199 CURVE SMOOTH",
"337 183 OFFCURVE",
"355 168 OFFCURVE",
"376 168 CURVE SMOOTH"
);
}
);
width = 699;
},
{
layerId = "2BF3D7EC-9255-448B-A62B-3A7110FF42CA";
name = Bold;
paths = (
{
closed = 1;
nodes = (
"382 199 LINE SMOOTH",
"380 199 OFFCURVE",
"375 198 OFFCURVE",
"374 196 CURVE",
"385 209 OFFCURVE",
"396 223 OFFCURVE",
"409 236 CURVE",
"516 358 OFFCURVE",
"635 493 OFFCURVE",
"635 633 CURVE SMOOTH",
"635 788 OFFCURVE",
"519 886 OFFCURVE",
"337 886 CURVE SMOOTH",
"276 886 OFFCURVE",
"187 862 OFFCURVE",
"105 815 CURVE SMOOTH",
"85 803 OFFCURVE",
"68 794 OFFCURVE",
"74 763 CURVE",
"86 711 LINE",
"92 676 OFFCURVE",
"112 656 OFFCURVE",
"148 681 CURVE SMOOTH",
"219 733 OFFCURVE",
"281 754 OFFCURVE",
"339 754 CURVE SMOOTH",
"424 754 OFFCURVE",
"465 702 OFFCURVE",
"465 626 CURVE SMOOTH",
"465 602 OFFCURVE",
"459 566 OFFCURVE",
"445 542 CURVE",
"425 500 OFFCURVE",
"325 388 OFFCURVE",
"102 207 CURVE",
"88 194 OFFCURVE",
"80 177 OFFCURVE",
"80 159 CURVE SMOOTH",
"80 46 LINE SMOOTH",
"80 14 OFFCURVE",
"96 0 OFFCURVE",
"126 0 CURVE SMOOTH",
"593 0 LINE SMOOTH",
"622 0 OFFCURVE",
"640 18 OFFCURVE",
"640 46 CURVE SMOOTH",
"640 151 LINE SMOOTH",
"640 182 OFFCURVE",
"622 199 OFFCURVE",
"593 199 CURVE SMOOTH"
);
}
);
width = 713;
}
);
unicode = 0032;
},
{
color = 6;
glyphname = three;
lastChange = "2014-03-15 20:44:14 -0500";
layers = (
{
layerId = "6B6936E6-7670-4A82-900D-EAF583C971AF";
name = Regular;
paths = (
{
closed = 1;
nodes = (
"630 414 OFFCURVE",
"651 360 OFFCURVE",
"651 264 CURVE SMOOTH",
"651 79 OFFCURVE",
"530 -14 OFFCURVE",
"315 -14 CURVE SMOOTH",
"250 -14 OFFCURVE",
"182 -2 OFFCURVE",
"109 20 CURVE SMOOTH",
"93 26 OFFCURVE",
"86 37 OFFCURVE",
"85 53 CURVE SMOOTH",
"73 172 LINE SMOOTH",
"71 195 OFFCURVE",
"87 202 OFFCURVE",
"107 192 CURVE SMOOTH",
"201 150 OFFCURVE",
"402 122 OFFCURVE",
"479 202 CURVE SMOOTH",
"557 285 OFFCURVE",
"536 426 OFFCURVE",
"334 426 CURVE SMOOTH",
"263 426 LINE SMOOTH",
"244 426 OFFCURVE",
"234 436 OFFCURVE",
"234 454 CURVE SMOOTH",
"234 493 LINE SMOOTH",
"234 512 OFFCURVE",
"244 522 OFFCURVE",
"263 522 CURVE SMOOTH",
"339 522 LINE SMOOTH",
"453 522 OFFCURVE",
"516 569 OFFCURVE",
"516 655 CURVE SMOOTH",
"516 754 OFFCURVE",
"451 796 OFFCURVE",
"364 800 CURVE SMOOTH",
"297 803 OFFCURVE",
"216 780 OFFCURVE",
"144 768 CURVE SMOOTH",
"124 765 OFFCURVE",
"117 772 OFFCURVE",
"111 792 CURVE SMOOTH",
"98 836 LINE SMOOTH",
"93 852 OFFCURVE",
"95 866 OFFCURVE",
"112 869 CURVE SMOOTH",
"193 885 OFFCURVE",
"284 905 OFFCURVE",
"367 898 CURVE SMOOTH",
"508 886 OFFCURVE",
"626 817 OFFCURVE",
"631 655 CURVE SMOOTH",
"635 577 OFFCURVE",
"601 536 OFFCURVE",
"533 489 CURVE SMOOTH",
"523 480 OFFCURVE",
"524 471 OFFCURVE",
"536 465 CURVE SMOOTH"
);
}
);
width = 724;
},
{
layerId = "2BF3D7EC-9255-448B-A62B-3A7110FF42CA";
name = Bold;
paths = (
{
closed = 1;
nodes = (
"637 805 OFFCURVE",
"512 881 OFFCURVE",
"375 897 CURVE SMOOTH",
"365 898 OFFCURVE",
"350 898 OFFCURVE",
"339 898 CURVE SMOOTH",
"280 898 OFFCURVE",
"198 883 OFFCURVE",
"142 873 CURVE",
"126 869 LINE",
"94 863 OFFCURVE",
"89 839 OFFCURVE",
"97 813 CURVE",
"97 814 LINE",
"110 771 LINE",
"118 740 OFFCURVE",
"130 729 OFFCURVE",
"162 734 CURVE SMOOTH",
"182 737 OFFCURVE",
"204 742 OFFCURVE",
"224 746 CURVE SMOOTH",
"274 756 OFFCURVE",
"327 767 OFFCURVE",
"369 765 CURVE SMOOTH",
"442 762 OFFCURVE",
"496 727 OFFCURVE",
"496 645 CURVE SMOOTH",
"496 576 OFFCURVE",
"443 537 OFFCURVE",
"346 537 CURVE SMOOTH",
"273 537 LINE SMOOTH",
"243 537 OFFCURVE",
"227 521 OFFCURVE",
"227 490 CURVE SMOOTH",
"227 453 LINE SMOOTH",
"227 424 OFFCURVE",
"243 407 OFFCURVE",
"273 407 CURVE SMOOTH",
"341 407 LINE SMOOTH",
"454 407 OFFCURVE",
"501 359 OFFCURVE",
"501 306 CURVE SMOOTH",
"501 279 OFFCURVE",
"488 250 OFFCURVE",
"466 226 CURVE",
"466 226 LINE",
"436 194 OFFCURVE",
"381 183 OFFCURVE",
"323 183 CURVE SMOOTH",
"253 183 OFFCURVE",
"178 199 OFFCURVE",
"132 220 CURVE",
"133 220 LINE",
"97 238 OFFCURVE",
"69 224 OFFCURVE",
"73 182 CURVE SMOOTH",
"84 68 LINE SMOOTH",
"86 46 OFFCURVE",
"96 29 OFFCURVE",
"119 20 CURVE",
"191 -2 OFFCURVE",
"258 -13 OFFCURVE",
"323 -13 CURVE SMOOTH",
"541 -13 OFFCURVE",
"663 82 OFFCURVE",
"663 272 CURVE SMOOTH",
"663 368 OFFCURVE",
"642 424 OFFCURVE",
"551 477 CURVE",
"612 522 OFFCURVE",
"643 576 OFFCURVE",
"644 646 CURVE"
);
}
);
width = 736;
}
);
unicode = 0033;
},
{
color = 6;
glyphname = four;
lastChange = "2014-03-15 20:44:14 -0500";
layers = (
{
guideLines = (
{
angle = 267.28;
position = "{430, 395}";
}
);
layerId = "6B6936E6-7670-4A82-900D-EAF583C971AF";
name = Regular;
paths = (
{
closed = 1;
nodes = (
"240 552 OFFCURVE",
"240 552 OFFCURVE",
"222 448 CURVE SMOOTH",
"218 423 OFFCURVE",
"216 414 OFFCURVE",
"240 414 CURVE SMOOTH",
"395 412 LINE SMOOTH",
"415 412 OFFCURVE",
"422 420 OFFCURVE",
"425 440 CURVE SMOOTH",
"444 588 OFFCURVE",
"444 588 OFFCURVE",
"467 852 CURVE SMOOTH",
"468 864 OFFCURVE",
"474 865 OFFCURVE",
"484 868 CURVE SMOOTH",
"550 890 LINE SMOOTH",
"570 896 OFFCURVE",
"580 892 OFFCURVE",
"579 860 CURVE SMOOTH",
"563 438 LINE SMOOTH",
"562 418 OFFCURVE",
"574 408 OFFCURVE",
"593 408 CURVE SMOOTH",
"652 407 LINE SMOOTH",
"672 407 OFFCURVE",
"680 396 OFFCURVE",
"680 379 CURVE SMOOTH",
"679 315 LINE SMOOTH",
"679 297 OFFCURVE",
"669 287 OFFCURVE",
"649 287 CURVE SMOOTH",
"592 288 LINE SMOOTH",
"573 288 OFFCURVE",
"561 277 OFFCURVE",
"562 258 CURVE SMOOTH",
"572 29 LINE SMOOTH",
"573 11 OFFCURVE",
"562 0 OFFCURVE",
"543 0 CURVE SMOOTH",
"422 0 LINE SMOOTH",
"403 0 OFFCURVE",
"391 11 OFFCURVE",
"393 29 CURVE SMOOTH",
"415 262 LINE SMOOTH",
"417 281 OFFCURVE",
"405 291 OFFCURVE",
"386 291 CURVE SMOOTH",
"91 296 LINE SMOOTH",
"78 296 OFFCURVE",
"71 303 OFFCURVE",
"74 315 CURVE SMOOTH",
"127 559 OFFCURVE",
"127 559 OFFCURVE",
"180 800 CURVE SMOOTH",
"182 809 OFFCURVE",
"187 815 OFFCURVE",
"198 818 CURVE SMOOTH",
"272 834 LINE SMOOTH",
"284 837 OFFCURVE",
"291 831 OFFCURVE",
"288 818 CURVE SMOOTH"
);
}
);
width = 753;
},
{
layerId = "2BF3D7EC-9255-448B-A62B-3A7110FF42CA";
name = Bold;
paths = (
{
closed = 1;
nodes = (
"316 797 LINE",
"322 828 OFFCURVE",
"306 841 OFFCURVE",
"278 835 CURVE",
"278 836 LINE",
"207 819 LINE SMOOTH",
"188 815 OFFCURVE",
"179 804 OFFCURVE",
"175 788 CURVE SMOOTH",
"74 324 LINE",
"75 325 LINE",
"68 298 OFFCURVE",
"82 283 OFFCURVE",
"109 283 CURVE SMOOTH",
"391 278 LINE SMOOTH",
"397 278 OFFCURVE",
"401 276 OFFCURVE",
"400 272 CURVE",
"379 49 LINE",
"380 24 OFFCURVE",
"397 0 OFFCURVE",
"426 0 CURVE SMOOTH",
"541 0 LINE SMOOTH",
"572 0 OFFCURVE",
"590 18 OFFCURVE",
"588 48 CURVE SMOOTH",
"579 267 LINE",
"579 272 OFFCURVE",
"583 275 OFFCURVE",
"588 275 CURVE SMOOTH",
"643 274 LINE SMOOTH",
"674 274 OFFCURVE",
"691 291 OFFCURVE",
"691 320 CURVE SMOOTH",
"691 381 LINE SMOOTH",
"691 409 OFFCURVE",
"678 427 OFFCURVE",
"646 427 CURVE SMOOTH",
"589 428 LINE SMOOTH",
"583 428 OFFCURVE",
"580 431 OFFCURVE",
"580 437 CURVE",
"595 840 LINE SMOOTH",
"597 893 OFFCURVE",
"579 899 OFFCURVE",
"542 888 CURVE SMOOTH",
"478 867 LINE",
"460 860 OFFCURVE",
"452 859 OFFCURVE",
"450 836 CURVE SMOOTH",
"429 590 OFFCURVE",
"427 574 OFFCURVE",
"409 443 CURVE",
"409 436 OFFCURVE",
"406 432 OFFCURVE",
"400 432 CURVE SMOOTH",
"252 434 LINE SMOOTH",
"252 434 OFFCURVE",
"253 438 OFFCURVE",
"254 445 CURVE SMOOTH",
"271 544 OFFCURVE",
"271 543 OFFCURVE",
"317 797 CURVE"
);
}
);
width = 764;
}
);
unicode = 0034;
},
{
color = 6;
glyphname = five;
lastChange = "2014-03-15 20:44:14 -0500";
layers = (
{
layerId = "6B6936E6-7670-4A82-900D-EAF583C971AF";
name = Regular;
paths = (
{
closed = 1;
nodes = (
"100 846 LINE SMOOTH",
"100 865 OFFCURVE",
"110 875 OFFCURVE",
"129 875 CURVE SMOOTH",
"514 875 LINE SMOOTH",
"533 875 OFFCURVE",
"538 864 OFFCURVE",
"543 846 CURVE SMOOTH",
"554 805 LINE SMOOTH",
"559 788 OFFCURVE",
"545 777 OFFCURVE",
"526 777 CURVE SMOOTH",
"224 777 LINE SMOOTH",
"205 777 OFFCURVE",
"194 766 OFFCURVE",
"195 747 CURVE SMOOTH",
"205 598 LINE SMOOTH",
"206 578 OFFCURVE",
"217 569 OFFCURVE",
"237 574 CURVE SMOOTH",
"408 607 OFFCURVE",
"630 546 OFFCURVE",
"630 279 CURVE SMOOTH",
"630 93 OFFCURVE",
"510 -14 OFFCURVE",
"300 -14 CURVE SMOOTH",
"236 -14 OFFCURVE",
"169 -5 OFFCURVE",
"98 15 CURVE SMOOTH",
"81 20 OFFCURVE",
"71 31 OFFCURVE",
"73 49 CURVE SMOOTH",
"85 165 LINE SMOOTH",
"87 188 OFFCURVE",
"99 196 OFFCURVE",
"119 187 CURVE SMOOTH",
"271 119 OFFCURVE",
"508 130 OFFCURVE",
"508 296 CURVE SMOOTH",
"508 466 OFFCURVE",
"272 500 OFFCURVE",
"208 452 CURVE SMOOTH",
"187 436 OFFCURVE",
"159 433 OFFCURVE",
"143 433 CURVE SMOOTH",
"122 433 OFFCURVE",
"111 433 OFFCURVE",
"110 456 CURVE SMOOTH"
);
}
);
width = 703;
},
{
layerId = "2BF3D7EC-9255-448B-A62B-3A7110FF42CA";
name = Bold;
paths = (
{
closed = 1;
nodes = (
"109 454 LINE SMOOTH",
"111 414 OFFCURVE",
"128 414 OFFCURVE",
"159 414 CURVE SMOOTH",
"178 414 OFFCURVE",
"209 418 OFFCURVE",
"233 436 CURVE SMOOTH",
"246 446 OFFCURVE",
"270 451 OFFCURVE",
"299 451 CURVE SMOOTH",
"380 451 OFFCURVE",
"489 407 OFFCURVE",
"489 302 CURVE SMOOTH",
"489 215 OFFCURVE",
"406 180 OFFCURVE",
"313 180 CURVE SMOOTH",
"257 180 OFFCURVE",
"194 193 OFFCURVE",
"144 215 CURVE",
"113 227 OFFCURVE",
"89 215 OFFCURVE",
"85 179 CURVE SMOOTH",
"73 68 LINE",
"73 45 OFFCURVE",
"88 22 OFFCURVE",
"111 15 CURVE SMOOTH",
"181 -5 OFFCURVE",
"247 -13 OFFCURVE",
"310 -13 CURVE SMOOTH",
"523 -13 OFFCURVE",
"644 96 OFFCURVE",
"644 286 CURVE SMOOTH",
"644 514 OFFCURVE",
"484 595 OFFCURVE",
"331 595 CURVE SMOOTH",
"304 595 OFFCURVE",
"274 592 OFFCURVE",
"245 586 CURVE SMOOTH",
"240 585 OFFCURVE",
"238 587 OFFCURVE",
"238 592 CURVE",
"228 734 LINE",
"228 740 OFFCURVE",
"231 743 OFFCURVE",
"237 743 CURVE SMOOTH",
"526 743 LINE SMOOTH",
"557 743 OFFCURVE",
"580 763 OFFCURVE",
"571 794 CURVE",
"571 793 LINE",
"560 832 LINE SMOOTH",
"552 859 OFFCURVE",
"545 875 OFFCURVE",
"514 875 CURVE SMOOTH",
"146 875 LINE SMOOTH",
"115 875 OFFCURVE",
"99 859 OFFCURVE",
"99 828 CURVE SMOOTH"
);
}
);
width = 717;
}
);
unicode = 0035;
},
{
color = 6;
glyphname = six;
lastChange = "2014-03-15 20:44:14 -0500";
layers = (
{
layerId = "6B6936E6-7670-4A82-900D-EAF583C971AF";
name = Regular;
paths = (
{
closed = 1;
nodes = (
"276 477 OFFCURVE",
"212 400 OFFCURVE",
"214 276 CURVE SMOOTH",
"215 198 OFFCURVE",
"282 150 OFFCURVE",
"386 152 CURVE",
"489 154 OFFCURVE",
"555 204 OFFCURVE",
"554 282 CURVE SMOOTH",
"552 406 OFFCURVE",
"483 481 OFFCURVE",
"380 479 CURVE SMOOTH"
);
},
{
closed = 1;
nodes = (
"606 778 LINE SMOOTH",
"612 757 OFFCURVE",
"594 748 OFFCURVE",
"573 756 CURVE SMOOTH",
"524 774 OFFCURVE",
"476 782 OFFCURVE",
"429 781 CURVE SMOOTH",
"286 779 OFFCURVE",
"209 689 OFFCURVE",
"192 508 CURVE SMOOTH",
"190 483 OFFCURVE",
"199 480 OFFCURVE",
"216 497 CURVE SMOOTH",
"258 544 OFFCURVE",
"318 570 OFFCURVE",
"386 571 CURVE SMOOTH",
"558 574 OFFCURVE",
"667 464 OFFCURVE",
"670 284 CURVE SMOOTH",
"673 107 OFFCURVE",
"562 -11 OFFCURVE",
"389 -14 CURVE SMOOTH",
"190 -17 OFFCURVE",
"78 137 OFFCURVE",
"73 427 CURVE SMOOTH",
"69 698 OFFCURVE",
"206 875 OFFCURVE",
"423 879 CURVE SMOOTH",
"474 880 OFFCURVE",
"517 870 OFFCURVE",
"571 855 CURVE SMOOTH",
"582 853 OFFCURVE",
"592 836 OFFCURVE",
"596 823 CURVE SMOOTH"
);
}
);
width = 743.059;
},
{
layerId = "2BF3D7EC-9255-448B-A62B-3A7110FF42CA";
name = Bold;
paths = (
{
closed = 1;
nodes = (
"610 811 LINE",
"604 829 OFFCURVE",
"590 853 OFFCURVE",
"572 856 CURVE",
"573 855 LINE",
"524 869 OFFCURVE",
"471 878 OFFCURVE",
"427 879 CURVE",
"217 866 OFFCURVE",
"69 691 OFFCURVE",
"73 427 CURVE SMOOTH",
"78 138 OFFCURVE",
"191 -16 OFFCURVE",
"394 -13 CURVE SMOOTH",
"571 -11 OFFCURVE",
"685 110 OFFCURVE",
"682 291 CURVE SMOOTH",
"679 474 OFFCURVE",
"567 587 OFFCURVE",
"391 584 CURVE SMOOTH",
"327 583 OFFCURVE",
"270 560 OFFCURVE",
"227 519 CURVE",
"246 666 OFFCURVE",
"314 745 OFFCURVE",
"432 747 CURVE SMOOTH",
"472 748 OFFCURVE",
"520 739 OFFCURVE",
"563 724 CURVE SMOOTH",
"599 712 OFFCURVE",
"631 729 OFFCURVE",
"620 768 CURVE",
"621 767 LINE"
);
},
{
closed = 1;
nodes = (
"472 460 OFFCURVE",
"531 396 OFFCURVE",
"533 289 CURVE SMOOTH",
"534 226 OFFCURVE",
"477 185 OFFCURVE",
"391 184 CURVE SMOOTH",
"303 182 OFFCURVE",
"247 220 OFFCURVE",
"246 283 CURVE SMOOTH",
"244 390 OFFCURVE",
"297 456 OFFCURVE",
"385 458 CURVE SMOOTH"
);
}
);
width = 755.058;
}
);
unicode = 0036;
},
{
color = 6;
glyphname = seven;
lastChange = "2014-03-15 20:44:14 -0500";
layers = (
{
layerId = "6B6936E6-7670-4A82-900D-EAF583C971AF";
name = Regular;
paths = (
{
closed = 1;
nodes = (
"74 847 LINE SMOOTH",
"70 865 OFFCURVE",
"85 875 OFFCURVE",
"104 875 CURVE SMOOTH",
"593 875 LINE SMOOTH",
"612 875 OFFCURVE",
"622 865 OFFCURVE",
"622 847 CURVE SMOOTH",
"622 838 LINE SMOOTH",
"622 825 OFFCURVE",
"622 806 OFFCURVE",
"617 793 CURVE SMOOTH",
"380 25 LINE SMOOTH",
"374 8 OFFCURVE",
"365 0 OFFCURVE",
"348 0 CURVE SMOOTH",
"202 0 LINE SMOOTH",
"179 0 OFFCURVE",
"170 13 OFFCURVE",
"179 33 CURVE SMOOTH",
"503 740 LINE SMOOTH",
"512 761 OFFCURVE",
"503 774 OFFCURVE",
"480 774 CURVE SMOOTH",
"114 774 LINE SMOOTH",
"95 774 OFFCURVE",
"88 786 OFFCURVE",
"84 802 CURVE SMOOTH"
);
}
);
width = 695;
},
{
layerId = "2BF3D7EC-9255-448B-A62B-3A7110FF42CA";
name = Bold;
paths = (
{
closed = 1;
nodes = (
"84 781 LINE SMOOTH",
"90 757 OFFCURVE",
"101 740 OFFCURVE",
"132 740 CURVE SMOOTH",
"482 740 LINE SMOOTH",
"485 740 OFFCURVE",
"487 737 OFFCURVE",
"486 734 CURVE",
"177 58 LINE SMOOTH",
"161 23 OFFCURVE",
"177 0 OFFCURVE",
"216 0 CURVE SMOOTH",
"355 0 LINE SMOOTH",
"382 0 OFFCURVE",
"395 11 OFFCURVE",
"404 36 CURVE",
"631 772 LINE",
"631 771 LINE",
"636 786 OFFCURVE",
"636 806 OFFCURVE",
"636 820 CURVE SMOOTH",
"636 829 LINE SMOOTH",
"636 859 OFFCURVE",
"620 875 OFFCURVE",
"590 875 CURVE SMOOTH",
"122 875 LINE SMOOTH",
"91 875 OFFCURVE",
"68 856 OFFCURVE",
"74 825 CURVE SMOOTH"
);
}
);
width = 709;
}
);
unicode = 0037;
},
{
color = 6;
glyphname = eight;
lastChange = "2014-03-15 20:44:14 -0500";
layers = (
{
layerId = "6B6936E6-7670-4A82-900D-EAF583C971AF";
name = Regular;
paths = (
{
closed = 1;
nodes = (
"269 411 OFFCURVE",
"202 369 OFFCURVE",
"202 256 CURVE SMOOTH",
"202 207 OFFCURVE",
"269 148 OFFCURVE",
"380 148 CURVE SMOOTH",
"491 148 OFFCURVE",
"559 207 OFFCURVE",
"559 256 CURVE SMOOTH",
"559 369 OFFCURVE",
"491 411 OFFCURVE",
"380 411 CURVE SMOOTH"
);
},
{
closed = 1;
nodes = (
"155 502 OFFCURVE",
"117 568 OFFCURVE",
"117 655 CURVE SMOOTH",
"117 801 OFFCURVE",
"210 890 OFFCURVE",
"380 890 CURVE SMOOTH",
"551 890 OFFCURVE",
"643 801 OFFCURVE",
"643 655 CURVE SMOOTH",
"643 568 OFFCURVE",
"607 502 OFFCURVE",
"527 470 CURVE SMOOTH",
"510 463 OFFCURVE",
"510 458 OFFCURVE",
"529 452 CURVE SMOOTH",
"623 419 OFFCURVE",
"687 345 OFFCURVE",
"687 244 CURVE SMOOTH",
"687 78 OFFCURVE",
"570 -14 OFFCURVE",
"380 -14 CURVE SMOOTH",
"191 -14 OFFCURVE",
"73 78 OFFCURVE",
"73 244 CURVE SMOOTH",
"73 345 OFFCURVE",
"137 419 OFFCURVE",
"233 451 CURVE SMOOTH",
"251 458 OFFCURVE",
"251 463 OFFCURVE",
"233 470 CURVE SMOOTH"
);
},
{
closed = 1;
nodes = (
"230 587 OFFCURVE",
"286 537 OFFCURVE",
"380 537 CURVE SMOOTH",
"474 537 OFFCURVE",
"530 587 OFFCURVE",
"530 670 CURVE SMOOTH",
"530 752 OFFCURVE",
"474 806 OFFCURVE",
"380 806 CURVE SMOOTH",
"286 806 OFFCURVE",
"230 752 OFFCURVE",
"230 670 CURVE SMOOTH"
);
}
);
width = 760;
},
{
layerId = "2BF3D7EC-9255-448B-A62B-3A7110FF42CA";
name = Bold;
paths = (
{
closed = 1;
nodes = (
"541 467 OFFCURVE",
"540 467 OFFCURVE",
"539 468 CURVE",
"540 467 OFFCURVE",
"541 467 OFFCURVE",
"541 467 CURVE SMOOTH"
);
},
{
closed = 1;
nodes = (
"73 81 OFFCURVE",
"193 -13 OFFCURVE",
"386 -13 CURVE SMOOTH",
"579 -13 OFFCURVE",
"698 81 OFFCURVE",
"698 252 CURVE SMOOTH",
"698 349 OFFCURVE",
"641 423 OFFCURVE",
"555 461 CURVE",
"625 498 OFFCURVE",
"656 563 OFFCURVE",
"656 645 CURVE SMOOTH",
"656 796 OFFCURVE",
"562 889 OFFCURVE",
"386 889 CURVE SMOOTH",
"211 889 OFFCURVE",
"115 796 OFFCURVE",
"115 645 CURVE SMOOTH",
"115 561 OFFCURVE",
"149 496 OFFCURVE",
"216 460 CURVE",
"128 424 OFFCURVE",
"73 351 OFFCURVE",
"73 252 CURVE SMOOTH"
);
},
{
closed = 1;
nodes = (
"261 727 OFFCURVE",
"308 771 OFFCURVE",
"386 771 CURVE SMOOTH",
"463 771 OFFCURVE",
"510 727 OFFCURVE",
"510 660 CURVE SMOOTH",
"510 592 OFFCURVE",
"463 552 OFFCURVE",
"386 552 CURVE SMOOTH",
"308 552 OFFCURVE",
"261 592 OFFCURVE",
"261 660 CURVE SMOOTH"
);
},
{
closed = 1;
nodes = (
"480 393 OFFCURVE",
"538 358 OFFCURVE",
"538 264 CURVE SMOOTH",
"538 226 OFFCURVE",
"480 180 OFFCURVE",
"386 180 CURVE SMOOTH",
"291 180 OFFCURVE",
"235 226 OFFCURVE",
"235 264 CURVE SMOOTH",
"235 358 OFFCURVE",
"291 393 OFFCURVE",
"386 393 CURVE SMOOTH"
);
}
);
width = 771;
}
);
unicode = 0038;
},
{
color = 6;
glyphname = nine;
lastChange = "2014-03-15 20:44:14 -0500";
layers = (
{
guideLines = (
{
angle = 90;
position = "{463, 517}";
}
);
layerId = "6B6936E6-7670-4A82-900D-EAF583C971AF";
name = Regular;
paths = (
{
closed = 1;
nodes = (
"141 116 LINE SMOOTH",
"140 137 OFFCURVE",
"154 154 OFFCURVE",
"175 153 CURVE SMOOTH",
"433 143 OFFCURVE",
"437 233 OFFCURVE",
"457 377 CURVE SMOOTH",
"460 402 OFFCURVE",
"457 399 OFFCURVE",
"433 388 CURVE SMOOTH",
"401 374 OFFCURVE",
"326 372 OFFCURVE",
"293 372 CURVE SMOOTH",
"177 374 OFFCURVE",
"69 409 OFFCURVE",
"73 590 CURVE SMOOTH",
"76 767 OFFCURVE",
"192 881 OFFCURVE",
"310 879 CURVE SMOOTH",
"509 876 OFFCURVE",
"584 720 OFFCURVE",
"579 428 CURVE SMOOTH",
"571 -12 OFFCURVE",
"431 -17 OFFCURVE",
"173 -12 CURVE",
"156 -6 OFFCURVE",
"151 4 OFFCURVE",
"150 21 CURVE SMOOTH"
);
},
{
closed = 1;
nodes = (
"390 487 OFFCURVE",
"453 491 OFFCURVE",
"456 670 CURVE SMOOTH",
"457 748 OFFCURVE",
"395 811 OFFCURVE",
"317 812 CURVE SMOOTH",
"239 813 OFFCURVE",
"176 753 OFFCURVE",
"175 675 CURVE SMOOTH",
"172 496 OFFCURVE",
"234 490 OFFCURVE",
"312 488 CURVE SMOOTH"
);
}
);
width = 652.233;
},
{
layerId = "2BF3D7EC-9255-448B-A62B-3A7110FF42CA";
name = Bold;
paths = (
{
closed = 1;
nodes = (
"146 37 LINE SMOOTH",
"148 13 OFFCURVE",
"158 -2 OFFCURVE",
"184 -11 CURVE",
"206 -11 OFFCURVE",
"230 -12 OFFCURVE",
"250 -12 CURVE SMOOTH",
"470 -12 OFFCURVE",
"588 27 OFFCURVE",
"595 428 CURVE SMOOTH",
"600 716 OFFCURVE",
"516 872 OFFCURVE",
"319 879 CURVE",
"198 878 OFFCURVE",
"76 762 OFFCURVE",
"73 583 CURVE SMOOTH",
"69 394 OFFCURVE",
"182 358 OFFCURVE",
"302 356 CURVE SMOOTH",
"333 356 OFFCURVE",
"402 357 OFFCURVE",
"438 370 CURVE",
"422 256 OFFCURVE",
"411 184 OFFCURVE",
"225 184 CURVE SMOOTH",
"213 184 OFFCURVE",
"203 184 OFFCURVE",
"190 185 CURVE",
"158 186 OFFCURVE",
"136 160 OFFCURVE",
"138 128 CURVE SMOOTH"
);
},
{
closed = 1;
nodes = (
"210 729 OFFCURVE",
"261 777 OFFCURVE",
"325 776 CURVE SMOOTH",
"389 775 OFFCURVE",
"440 724 OFFCURVE",
"439 660 CURVE SMOOTH",
"436 507 OFFCURVE",
"385 504 OFFCURVE",
"320 505 CURVE SMOOTH",
"256 507 OFFCURVE",
"206 512 OFFCURVE",
"209 664 CURVE SMOOTH"
);
}
);
width = 668.21;
}
);
unicode = 0039;
},
{
glyphname = colon;
lastChange = "2014-03-15 20:44:14 -0500";
layers = (
{
layerId = "6B6936E6-7670-4A82-900D-EAF583C971AF";
name = Regular;
paths = (
{
closed = 1;
nodes = (
"74 131 LINE SMOOTH",
"74 148 OFFCURVE",
"82 156 OFFCURVE",
"99 156 CURVE SMOOTH",
"191 156 LINE SMOOTH",
"208 156 OFFCURVE",
"216 148 OFFCURVE",
"216 131 CURVE SMOOTH",
"216 25 LINE SMOOTH",
"216 9 OFFCURVE",
"208 0 OFFCURVE",
"191 0 CURVE SMOOTH",
"99 0 LINE SMOOTH",
"83 0 OFFCURVE",
"74 9 OFFCURVE",
"74 25 CURVE SMOOTH"
);
},
{
closed = 1;
nodes = (
"73 539 LINE SMOOTH",
"73 555 OFFCURVE",
"81 565 OFFCURVE",
"98 565 CURVE SMOOTH",
"191 565 LINE SMOOTH",
"208 565 OFFCURVE",
"216 555 OFFCURVE",
"216 539 CURVE SMOOTH",
"216 444 LINE SMOOTH",
"216 427 OFFCURVE",
"208 418 OFFCURVE",
"191 418 CURVE SMOOTH",
"98 418 LINE SMOOTH",
"82 418 OFFCURVE",
"73 427 OFFCURVE",
"73 444 CURVE SMOOTH"
);
}
);
width = 289;
},
{
layerId = "2BF3D7EC-9255-448B-A62B-3A7110FF42CA";
name = Bold;
paths = (
{
closed = 1;
nodes = (
"73 444 LINE SMOOTH",
"73 415 OFFCURVE",
"88 400 OFFCURVE",
"116 400 CURVE SMOOTH",
"205 400 LINE SMOOTH",
"234 400 OFFCURVE",
"248 415 OFFCURVE",
"248 444 CURVE SMOOTH",
"248 534 LINE SMOOTH",
"248 561 OFFCURVE",
"234 578 OFFCURVE",
"205 578 CURVE SMOOTH",
"116 578 LINE SMOOTH",
"86 578 OFFCURVE",
"73 561 OFFCURVE",
"73 534 CURVE SMOOTH"
);
},
{
closed = 1;
nodes = (
"74 43 LINE SMOOTH",
"74 15 OFFCURVE",
"89 0 OFFCURVE",
"117 0 CURVE SMOOTH",
"205 0 LINE SMOOTH",
"234 0 OFFCURVE",
"248 15 OFFCURVE",
"248 43 CURVE SMOOTH",
"248 144 LINE SMOOTH",
"248 174 OFFCURVE",
"234 187 OFFCURVE",
"205 187 CURVE SMOOTH",
"117 187 LINE SMOOTH",
"87 187 OFFCURVE",
"74 174 OFFCURVE",
"74 144 CURVE SMOOTH"
);
}
);
width = 321;
}
);
unicode = 003A;
},
{
glyphname = semicolon;
lastChange = "2014-03-15 20:44:14 -0500";
layers = (
{
layerId = "6B6936E6-7670-4A82-900D-EAF583C971AF";
name = Regular;
paths = (
{
closed = 1;
nodes = (
"111 535 LINE SMOOTH",
"111 551 OFFCURVE",
"119 560 OFFCURVE",
"137 560 CURVE SMOOTH",
"210 560 LINE SMOOTH",
"227 560 OFFCURVE",
"236 551 OFFCURVE",
"236 535 CURVE SMOOTH",
"236 436 LINE SMOOTH",
"236 419 OFFCURVE",
"227 410 OFFCURVE",
"210 410 CURVE SMOOTH",
"137 410 LINE SMOOTH",
"120 410 OFFCURVE",
"111 419 OFFCURVE",
"111 436 CURVE SMOOTH"
);
},
{
closed = 1;
nodes = (
"114 84 LINE SMOOTH",
"114 101 OFFCURVE",
"122 109 OFFCURVE",
"139 109 CURVE SMOOTH",
"208 109 LINE SMOOTH",
"225 109 OFFCURVE",
"234 101 OFFCURVE",
"234 84 CURVE SMOOTH",
"234 28 LINE SMOOTH",
"234 17 OFFCURVE",
"232 7 OFFCURVE",
"226 -3 CURVE SMOOTH",
"150 -152 LINE SMOOTH",
"143 -165 OFFCURVE",
"134 -170 OFFCURVE",
"119 -170 CURVE SMOOTH",
"96 -170 LINE SMOOTH",
"78 -170 OFFCURVE",
"70 -160 OFFCURVE",
"74 -142 CURVE SMOOTH",
"110 -3 LINE SMOOTH",
"113 7 OFFCURVE",
"114 16 OFFCURVE",
"114 27 CURVE SMOOTH"
);
}
);
width = 309.018;
},
{
layerId = "2BF3D7EC-9255-448B-A62B-3A7110FF42CA";
name = Bold;
paths = (
{
closed = 1;
nodes = (
"110 436 LINE SMOOTH",
"110 407 OFFCURVE",
"126 392 OFFCURVE",
"154 392 CURVE SMOOTH",
"224 392 LINE SMOOTH",
"253 392 OFFCURVE",
"268 407 OFFCURVE",
"268 436 CURVE SMOOTH",
"268 531 LINE SMOOTH",
"268 558 OFFCURVE",
"253 574 OFFCURVE",
"224 574 CURVE SMOOTH",
"154 574 LINE SMOOTH",
"124 574 OFFCURVE",
"110 558 OFFCURVE",
"110 531 CURVE SMOOTH"
);
},
{
closed = 1;
nodes = (
"113 45 LINE SMOOTH",
"113 35 OFFCURVE",
"112 29 OFFCURVE",
"110 21 CURVE SMOOTH",
"75 -113 LINE SMOOTH",
"67 -144 OFFCURVE",
"82 -163 OFFCURVE",
"115 -163 CURVE SMOOTH",
"137 -163 LINE SMOOTH",
"160 -163 OFFCURVE",
"173 -155 OFFCURVE",
"184 -135 CURVE SMOOTH",
"257 8 LINE",
"256 7 LINE",
"263 20 OFFCURVE",
"266 33 OFFCURVE",
"266 46 CURVE SMOOTH",
"266 99 LINE SMOOTH",
"266 129 OFFCURVE",
"251 142 OFFCURVE",
"222 142 CURVE SMOOTH",
"156 142 LINE SMOOTH",
"127 142 OFFCURVE",
"113 129 OFFCURVE",
"113 99 CURVE SMOOTH"
);
}
);
width = 341;
}
);
unicode = 003B;
},
{
glyphname = less;
lastChange = "2014-03-15 20:44:14 -0500";
layers = (
{
layerId = "6B6936E6-7670-4A82-900D-EAF583C971AF";
name = Regular;
paths = (
{
closed = 1;
nodes = (
"213 368 OFFCURVE",
"211 352 OFFCURVE",
"231 342 CURVE SMOOTH",
"644 127 LINE SMOOTH",
"657 120 OFFCURVE",
"662 111 OFFCURVE",
"659 97 CURVE SMOOTH",
"650 30 LINE SMOOTH",
"647 12 OFFCURVE",
"635 6 OFFCURVE",
"620 15 CURVE SMOOTH",
"88 310 LINE SMOOTH",
"75 317 OFFCURVE",
"71 361 OFFCURVE",
"74 375 CURVE",
"76 388 OFFCURVE",
"91 429 OFFCURVE",
"106 433 CURVE SMOOTH",
"695 553 LINE SMOOTH",
"712 557 OFFCURVE",
"723 548 OFFCURVE",
"721 530 CURVE SMOOTH",
"715 492 LINE SMOOTH",
"712 478 OFFCURVE",
"706 470 OFFCURVE",
"692 467 CURVE SMOOTH",
"236 373 LINE SMOOTH"
);
}
);
width = 794.234;
},
{
layerId = "2BF3D7EC-9255-448B-A62B-3A7110FF42CA";
name = Bold;
paths = (
{
closed = 1;
nodes = (
"688 446 LINE SMOOTH",
"712 451 OFFCURVE",
"721 464 OFFCURVE",
"725 486 CURVE SMOOTH",
"731 523 LINE",
"735 556 OFFCURVE",
"715 574 OFFCURVE",
"682 566 CURVE",
"683 567 LINE",
"119 451 LINE SMOOTH",
"98 446 OFFCURVE",
"77 398 OFFCURVE",
"74 381 CURVE SMOOTH",
"71 363 OFFCURVE",
"79 309 OFFCURVE",
"98 298 CURVE",
"97 299 LINE",
"606 17 LINE SMOOTH",
"633 3 OFFCURVE",
"658 12 OFFCURVE",
"663 45 CURVE SMOOTH",
"672 109 LINE",
"672 108 LINE",
"677 131 OFFCURVE",
"669 146 OFFCURVE",
"647 158 CURVE SMOOTH",
"261 359 LINE"
);
}
);
width = 804.507;
}
);
unicode = 003C;
},
{
glyphname = equal;
lastChange = "2014-03-15 20:44:14 -0500";
layers = (
{
layerId = "6B6936E6-7670-4A82-900D-EAF583C971AF";
name = Regular;
paths = (
{
closed = 1;
nodes = (
"83 439 LINE SMOOTH",
"83 449 OFFCURVE",
"88 454 OFFCURVE",
"98 454 CURVE SMOOTH",
"694 454 LINE SMOOTH",
"704 454 OFFCURVE",
"709 449 OFFCURVE",
"709 439 CURVE SMOOTH",
"709 387 LINE SMOOTH",
"709 377 OFFCURVE",
"704 372 OFFCURVE",
"694 372 CURVE SMOOTH",
"98 372 LINE SMOOTH",
"88 372 OFFCURVE",
"83 377 OFFCURVE",
"83 387 CURVE SMOOTH"
);
},
{
closed = 1;
nodes = (
"73 255 LINE SMOOTH",
"73 265 OFFCURVE",
"78 270 OFFCURVE",
"88 270 CURVE SMOOTH",
"684 270 LINE SMOOTH",
"694 270 OFFCURVE",
"699 265 OFFCURVE",
"699 255 CURVE SMOOTH",
"699 187 LINE SMOOTH",
"699 177 OFFCURVE",
"694 172 OFFCURVE",
"684 172 CURVE SMOOTH",
"88 172 LINE SMOOTH",
"78 172 OFFCURVE",
"73 177 OFFCURVE",
"73 187 CURVE SMOOTH"
);
}
);
width = 782;
},
{
layerId = "2BF3D7EC-9255-448B-A62B-3A7110FF42CA";
name = Bold;
paths = (
{
closed = 1;
nodes = (
"83 389 LINE SMOOTH",
"83 367 OFFCURVE",
"94 356 OFFCURVE",
"116 356 CURVE SMOOTH",
"686 356 LINE SMOOTH",
"708 356 OFFCURVE",
"720 367 OFFCURVE",
"720 389 CURVE SMOOTH",
"720 439 LINE SMOOTH",
"720 461 OFFCURVE",
"708 472 OFFCURVE",
"686 472 CURVE SMOOTH",
"116 472 LINE SMOOTH",
"94 472 OFFCURVE",
"83 461 OFFCURVE",
"83 439 CURVE SMOOTH"
);
},
{
closed = 1;
nodes = (
"73 198 LINE SMOOTH",
"73 176 OFFCURVE",
"85 164 OFFCURVE",
"107 164 CURVE SMOOTH",
"677 164 LINE SMOOTH",
"699 164 OFFCURVE",
"710 176 OFFCURVE",
"710 198 CURVE SMOOTH",
"710 263 LINE SMOOTH",
"710 285 OFFCURVE",
"699 296 OFFCURVE",
"677 296 CURVE SMOOTH",
"107 296 LINE SMOOTH",
"85 296 OFFCURVE",
"73 285 OFFCURVE",
"73 263 CURVE SMOOTH"
);
}
);
width = 793;
}
);
unicode = 003D;
},
{
glyphname = greater;
lastChange = "2014-03-15 20:44:14 -0500";
layers = (
{
layerId = "6B6936E6-7670-4A82-900D-EAF583C971AF";
name = Regular;
paths = (
{
closed = 1;
nodes = (
"131 532 LINE SMOOTH",
"118 538 OFFCURVE",
"113 547 OFFCURVE",
"114 562 CURVE SMOOTH",
"117 600 LINE SMOOTH",
"119 618 OFFCURVE",
"131 624 OFFCURVE",
"147 617 CURVE SMOOTH",
"694 367 LINE SMOOTH",
"708 360 OFFCURVE",
"713 317 OFFCURVE",
"712 303 CURVE SMOOTH",
"712 289 OFFCURVE",
"698 247 OFFCURVE",
"684 243 CURVE SMOOTH",
"99 75 LINE SMOOTH",
"82 70 OFFCURVE",
"72 79 OFFCURVE",
"73 97 CURVE SMOOTH",
"79 164 LINE SMOOTH",
"80 178 OFFCURVE",
"87 186 OFFCURVE",
"101 190 CURVE SMOOTH",
"552 307 LINE SMOOTH",
"573 312 OFFCURVE",
"575 328 OFFCURVE",
"554 338 CURVE SMOOTH"
);
}
);
width = 785.123;
},
{
layerId = "2BF3D7EC-9255-448B-A62B-3A7110FF42CA";
name = Bold;
paths = (
{
closed = 1;
nodes = (
"73 113 LINE SMOOTH",
"71 79 OFFCURVE",
"92 64 OFFCURVE",
"123 73 CURVE SMOOTH",
"681 233 LINE SMOOTH",
"701 239 OFFCURVE",
"722 292 OFFCURVE",
"722 309 CURVE SMOOTH",
"722 326 OFFCURVE",
"714 377 OFFCURVE",
"694 387 CURVE",
"171 626 LINE SMOOTH",
"141 640 OFFCURVE",
"119 628 OFFCURVE",
"115 595 CURVE",
"112 557 LINE",
"112 533 OFFCURVE",
"119 520 OFFCURVE",
"140 511 CURVE SMOOTH",
"537 328 LINE",
"114 219 LINE",
"93 212 OFFCURVE",
"81 199 OFFCURVE",
"79 178 CURVE SMOOTH"
);
}
);
width = 795;
}
);
unicode = 003E;
},
{
glyphname = question;
lastChange = "2014-03-15 20:44:14 -0500";
layers = (
{
guideLines = (
{
position = "{429, 277}";
}
);
layerId = "6B6936E6-7670-4A82-900D-EAF583C971AF";
name = Regular;
paths = (
{
closed = 1;
nodes = (
"183 130 LINE SMOOTH",
"183 148 OFFCURVE",
"193 159 OFFCURVE",
"213 159 CURVE SMOOTH",
"306 159 LINE SMOOTH",
"325 159 OFFCURVE",
"336 148 OFFCURVE",
"336 130 CURVE SMOOTH",
"336 24 LINE SMOOTH",
"336 6 OFFCURVE",
"325 -5 OFFCURVE",
"306 -5 CURVE SMOOTH",
"213 -5 LINE SMOOTH",
"194 -5 OFFCURVE",
"183 6 OFFCURVE",
"183 24 CURVE SMOOTH"
);
},
{
closed = 1;
nodes = (
"334 305 LINE SMOOTH",
"334 288 OFFCURVE",
"324 277 OFFCURVE",
"305 277 CURVE SMOOTH",
"213 277 LINE SMOOTH",
"194 277 OFFCURVE",
"183 286 OFFCURVE",
"183 305 CURVE SMOOTH",
"183 365 LINE SMOOTH",
"183 443 OFFCURVE",
"198 488 OFFCURVE",
"267 554 CURVE",
"325 605 LINE",
"386 655 OFFCURVE",
"410 699 OFFCURVE",
"402 742 CURVE SMOOTH",
"394 803 OFFCURVE",
"354 845 OFFCURVE",
"279 845 CURVE SMOOTH",
"228 845 OFFCURVE",
"170 825 OFFCURVE",
"109 788 CURVE SMOOTH",
"89 776 OFFCURVE",
"73 783 OFFCURVE",
"73 807 CURVE SMOOTH",
"73 833 LINE SMOOTH",
"73 849 OFFCURVE",
"79 860 OFFCURVE",
"93 868 CURVE SMOOTH",
"159 904 OFFCURVE",
"227 921 OFFCURVE",
"299 921 CURVE SMOOTH",
"439 921 OFFCURVE",
"528 840 OFFCURVE",
"528 718 CURVE SMOOTH",
"528 660 OFFCURVE",
"490 612 OFFCURVE",
"429 546 CURVE SMOOTH",
"350 461 OFFCURVE",
"334 431 OFFCURVE",
"334 348 CURVE SMOOTH"
);
}
);
width = 601;
},
{
layerId = "2BF3D7EC-9255-448B-A62B-3A7110FF42CA";
name = Bold;
paths = (
{
closed = 1;
nodes = (
"361 352 LINE SMOOTH",
"361 424 OFFCURVE",
"375 450 OFFCURVE",
"447 528 CURVE SMOOTH",
"508 595 OFFCURVE",
"547 643 OFFCURVE",
"547 706 CURVE SMOOTH",
"547 834 OFFCURVE",
"454 919 OFFCURVE",
"308 919 CURVE SMOOTH",
"237 919 OFFCURVE",
"169 902 OFFCURVE",
"102 865 CURVE SMOOTH",
"82 854 OFFCURVE",
"73 837 OFFCURVE",
"73 816 CURVE SMOOTH",
"73 791 LINE SMOOTH",
"73 749 OFFCURVE",
"102 735 OFFCURVE",
"136 756 CURVE SMOOTH",
"192 790 OFFCURVE",
"243 808 OFFCURVE",
"289 808 CURVE SMOOTH",
"350 808 OFFCURVE",
"381 773 OFFCURVE",
"388 725 CURVE SMOOTH",
"394 690 OFFCURVE",
"373 655 OFFCURVE",
"321 612 CURVE SMOOTH",
"264 562 LINE",
"194 494 OFFCURVE",
"178 448 OFFCURVE",
"178 368 CURVE SMOOTH",
"178 311 LINE SMOOTH",
"178 279 OFFCURVE",
"196 265 OFFCURVE",
"226 265 CURVE SMOOTH",
"314 265 LINE SMOOTH",
"345 265 OFFCURVE",
"361 283 OFFCURVE",
"361 311 CURVE SMOOTH"
);
},
{
closed = 1;
nodes = (
"178 42 LINE SMOOTH",
"178 13 OFFCURVE",
"196 -5 OFFCURVE",
"226 -5 CURVE SMOOTH",
"315 -5 LINE SMOOTH",
"346 -5 OFFCURVE",
"363 13 OFFCURVE",
"363 42 CURVE SMOOTH",
"363 143 LINE SMOOTH",
"363 172 OFFCURVE",
"346 190 OFFCURVE",
"315 190 CURVE SMOOTH",
"226 190 LINE SMOOTH",
"195 190 OFFCURVE",
"178 172 OFFCURVE",
"178 143 CURVE SMOOTH"
);
}
);
width = 620;
}
);
unicode = 003F;
},
{
glyphname = at;
lastChange = "2014-06-07 00:09:00 -0500";
layers = (
{
guideLines = (
{
angle = 90;
position = "{643, -92}";
}
);
layerId = "6B6936E6-7670-4A82-900D-EAF583C971AF";
name = Regular;
paths = (
{
closed = 1;
nodes = (
"365 219 OFFCURVE",
"376 163 OFFCURVE",
"495 168 CURVE SMOOTH",
"615 173 OFFCURVE",
"624 220 OFFCURVE",
"624 302 CURVE SMOOTH",
"624 384 OFFCURVE",
"573 436 OFFCURVE",
"494 436 CURVE SMOOTH",
"415 436 OFFCURVE",
"365 384 OFFCURVE",
"365 302 CURVE SMOOTH"
);
},
{
closed = 1;
nodes = (
"938 91 OFFCURVE",
"730 37 OFFCURVE",
"656 37 CURVE SMOOTH",
"623 37 OFFCURVE",
"676 116 OFFCURVE",
"601 75 CURVE SMOOTH",
"561 53 OFFCURVE",
"517 43 OFFCURVE",
"490 43 CURVE SMOOTH",
"355 43 OFFCURVE",
"301 132 OFFCURVE",
"301 262 CURVE SMOOTH",
"301 393 OFFCURVE",
"379 482 OFFCURVE",
"490 482 CURVE SMOOTH",
"547 482 OFFCURVE",
"592 464 OFFCURVE",
"628 428 CURVE SMOOTH",
"638 418 OFFCURVE",
"646 421 OFFCURVE",
"646 435 CURVE SMOOTH",
"646 457 LINE SMOOTH",
"646 467 OFFCURVE",
"651 472 OFFCURVE",
"661 472 CURVE SMOOTH",
"700 472 LINE SMOOTH",
"710 472 OFFCURVE",
"715 467 OFFCURVE",
"715 457 CURVE SMOOTH",
"715 177 LINE SMOOTH",
"715 166 OFFCURVE",
"721 163 OFFCURVE",
"731 163 CURVE SMOOTH",
"808 163 OFFCURVE",
"867 211 OFFCURVE",
"867 319 CURVE SMOOTH",
"867 389 OFFCURVE",
"847 450 OFFCURVE",
"805 502 CURVE SMOOTH",
"737 587 OFFCURVE",
"637 634 OFFCURVE",
"522 634 CURVE SMOOTH",
"442 634 OFFCURVE",
"368 612 OFFCURVE",
"305 571 CURVE SMOOTH",
"203 504 OFFCURVE",
"142 391 OFFCURVE",
"142 265 CURVE SMOOTH",
"142 73 OFFCURVE",
"322 -65 OFFCURVE",
"514 -65 CURVE SMOOTH",
"557 -65 OFFCURVE",
"580 -64 OFFCURVE",
"607 -59 CURVE SMOOTH",
"617 -57 OFFCURVE",
"622 -56 OFFCURVE",
"627 -64 CURVE SMOOTH",
"667 -135 LINE SMOOTH",
"671 -142 OFFCURVE",
"670 -151 OFFCURVE",
"662 -155 CURVE SMOOTH",
"636 -167 OFFCURVE",
"573 -174 OFFCURVE",
"514 -174 CURVE SMOOTH",
"394 -174 OFFCURVE",
"285 -130 OFFCURVE",
"201 -49 CURVE SMOOTH",
"118 33 OFFCURVE",
"73 142 OFFCURVE",
"73 265 CURVE SMOOTH",
"73 384 OFFCURVE",
"119 495 OFFCURVE",
"201 576 CURVE SMOOTH",
"285 659 OFFCURVE",
"398 704 OFFCURVE",
"521 704 CURVE SMOOTH",
"660 704 OFFCURVE",
"782 645 OFFCURVE",
"862 541 CURVE SMOOTH",
"911 477 OFFCURVE",
"938 401 OFFCURVE",
"938 321 CURVE SMOOTH"
);
}
);
width = 1011;
},
{
layerId = "2BF3D7EC-9255-448B-A62B-3A7110FF42CA";
name = Bold;
paths = (
{
closed = 1;
nodes = (
"365 219 OFFCURVE",
"376 163 OFFCURVE",
"495 168 CURVE SMOOTH",
"615 173 OFFCURVE",
"624 220 OFFCURVE",
"624 302 CURVE SMOOTH",
"624 384 OFFCURVE",
"573 436 OFFCURVE",
"494 436 CURVE SMOOTH",
"415 436 OFFCURVE",
"365 384 OFFCURVE",
"365 302 CURVE SMOOTH"
);
},
{
closed = 1;
nodes = (
"938 91 OFFCURVE",
"730 37 OFFCURVE",
"656 37 CURVE SMOOTH",
"623 37 OFFCURVE",
"676 116 OFFCURVE",
"601 75 CURVE SMOOTH",
"561 53 OFFCURVE",
"517 43 OFFCURVE",
"490 43 CURVE SMOOTH",
"355 43 OFFCURVE",
"301 132 OFFCURVE",
"301 262 CURVE SMOOTH",
"301 393 OFFCURVE",
"379 482 OFFCURVE",
"490 482 CURVE SMOOTH",
"547 482 OFFCURVE",
"592 464 OFFCURVE",
"628 428 CURVE SMOOTH",
"638 418 OFFCURVE",
"646 421 OFFCURVE",
"646 435 CURVE SMOOTH",
"646 457 LINE SMOOTH",
"646 467 OFFCURVE",
"651 472 OFFCURVE",
"661 472 CURVE SMOOTH",
"700 472 LINE SMOOTH",
"710 472 OFFCURVE",
"715 467 OFFCURVE",
"715 457 CURVE SMOOTH",
"715 177 LINE SMOOTH",
"715 166 OFFCURVE",
"721 163 OFFCURVE",
"731 163 CURVE SMOOTH",
"808 163 OFFCURVE",
"867 211 OFFCURVE",
"867 319 CURVE SMOOTH",
"867 389 OFFCURVE",
"847 450 OFFCURVE",
"805 502 CURVE SMOOTH",
"737 587 OFFCURVE",
"637 634 OFFCURVE",
"522 634 CURVE SMOOTH",
"442 634 OFFCURVE",
"368 612 OFFCURVE",
"305 571 CURVE SMOOTH",
"203 504 OFFCURVE",
"142 391 OFFCURVE",
"142 265 CURVE SMOOTH",
"142 73 OFFCURVE",
"322 -65 OFFCURVE",
"514 -65 CURVE SMOOTH",
"557 -65 OFFCURVE",
"580 -64 OFFCURVE",
"607 -59 CURVE SMOOTH",
"617 -57 OFFCURVE",
"622 -56 OFFCURVE",
"627 -64 CURVE SMOOTH",
"667 -135 LINE SMOOTH",
"671 -142 OFFCURVE",
"670 -151 OFFCURVE",
"662 -155 CURVE SMOOTH",
"636 -167 OFFCURVE",
"573 -174 OFFCURVE",
"514 -174 CURVE SMOOTH",
"394 -174 OFFCURVE",
"285 -130 OFFCURVE",
"201 -49 CURVE SMOOTH",
"118 33 OFFCURVE",
"73 142 OFFCURVE",
"73 265 CURVE SMOOTH",
"73 384 OFFCURVE",
"119 495 OFFCURVE",
"201 576 CURVE SMOOTH",
"285 659 OFFCURVE",
"398 704 OFFCURVE",
"521 704 CURVE SMOOTH",
"660 704 OFFCURVE",
"782 645 OFFCURVE",
"862 541 CURVE SMOOTH",
"911 477 OFFCURVE",
"938 401 OFFCURVE",
"938 321 CURVE SMOOTH"
);
}
);
width = 1011;
}
);
unicode = 0040;
},
{
color = 6;
glyphname = A;
lastChange = "2014-06-20 20:46:34 -0500";
layers = (
{
anchors = (
{
name = dotbelowcomb;
position = "{463, 7}";
},
{
name = hookabovecomb;
position = "{456, 822}";
},
{
name = ogonek;
position = "{685, 0}";
},
{
name = top;
position = "{462, 821}";
}
);
guideLines = (
{
angle = 251.648;
position = "{396, 400}";
},
{
angle = 108.28;
position = "{520, 392}";
}
);
layerId = "6B6936E6-7670-4A82-900D-EAF583C971AF";
name = Regular;
paths = (
{
closed = 1;
nodes = (
"469 651 LINE SMOOTH",
"461 676 OFFCURVE",
"454 676 OFFCURVE",
"446 651 CURVE SMOOTH",
"331 310 LINE SMOOTH",
"324 290 OFFCURVE",
"334 277 OFFCURVE",
"355 277 CURVE SMOOTH",
"559 277 LINE SMOOTH",
"580 277 OFFCURVE",
"590 290 OFFCURVE",
"583 310 CURVE SMOOTH"
);
},
{
closed = 1;
nodes = (
"394 838 LINE SMOOTH",
"400 853 OFFCURVE",
"410 860 OFFCURVE",
"427 860 CURVE SMOOTH",
"487 860 LINE SMOOTH",
"504 860 OFFCURVE",
"514 853 OFFCURVE",
"520 838 CURVE SMOOTH",
"838 33 LINE SMOOTH",
"846 13 OFFCURVE",
"836 0 OFFCURVE",
"815 0 CURVE SMOOTH",
"698 0 LINE SMOOTH",
"681 0 OFFCURVE",
"670 7 OFFCURVE",
"666 25 CURVE SMOOTH",
"645 119 LINE SMOOTH",
"642 137 OFFCURVE",
"631 145 OFFCURVE",
"613 145 CURVE SMOOTH",
"301 145 LINE SMOOTH",
"283 145 OFFCURVE",
"270 137 OFFCURVE",
"268 122 CURVE SMOOTH",
"251 24 LINE SMOOTH",
"249 7 OFFCURVE",
"236 0 OFFCURVE",
"219 0 CURVE SMOOTH",
"99 0 LINE SMOOTH",
"76 0 OFFCURVE",
"68 13 OFFCURVE",
"75 33 CURVE SMOOTH"
);
}
);
width = 913.749;
},
{
layerId = "2BF3D7EC-9255-448B-A62B-3A7110FF42CA";
name = Bold;
paths = (
{
closed = 1;
nodes = (
"77 57 LINE",
"75 53 OFFCURVE",
"73 45 OFFCURVE",
"73 38 CURVE SMOOTH",
"73 15 OFFCURVE",
"88 0 OFFCURVE",
"118 0 CURVE SMOOTH",
"232 0 LINE SMOOTH",
"260 0 OFFCURVE",
"277 11 OFFCURVE",
"282 39 CURVE SMOOTH",
"298 133 LINE",
"299 137 OFFCURVE",
"303 139 OFFCURVE",
"311 139 CURVE SMOOTH",
"609 139 LINE SMOOTH",
"616 139 OFFCURVE",
"620 136 OFFCURVE",
"621 129 CURVE",
"641 39 LINE SMOOTH",
"646 13 OFFCURVE",
"665 0 OFFCURVE",
"690 0 CURVE SMOOTH",
"802 0 LINE SMOOTH",
"829 0 OFFCURVE",
"846 15 OFFCURVE",
"846 38 CURVE SMOOTH",
"846 45 OFFCURVE",
"844 53 OFFCURVE",
"842 57 CURVE",
"538 827 LINE SMOOTH",
"529 850 OFFCURVE",
"514 860 OFFCURVE",
"489 860 CURVE SMOOTH",
"431 860 LINE SMOOTH",
"405 860 OFFCURVE",
"391 850 OFFCURVE",
"382 827 CURVE SMOOTH"
);
},
{
closed = 1;
nodes = (
"460 614 LINE",
"453 636 LINE SMOOTH",
"452 639 OFFCURVE",
"454 641 OFFCURVE",
"460 641 CURVE SMOOTH",
"468 641 OFFCURVE",
"469 639 OFFCURVE",
"468 636 CURVE SMOOTH"
);
},
{
closed = 1;
nodes = (
"562 311 LINE",
"563 307 OFFCURVE",
"563 308 OFFCURVE",
"563 304 CURVE SMOOTH",
"563 303 OFFCURVE",
"561 303 OFFCURVE",
"557 303 CURVE SMOOTH",
"362 303 LINE SMOOTH",
"359 303 OFFCURVE",
"357 303 OFFCURVE",
"357 304 CURVE SMOOTH",
"357 307 LINE",
"460 614 LINE"
);
}
);
width = 919;
}
);
unicode = 0041;
},
{
color = 6;
glyphname = B;
lastChange = "2014-03-15 20:44:14 -0500";
layers = (
{
layerId = "6B6936E6-7670-4A82-900D-EAF583C971AF";
name = Regular;
paths = (
{
closed = 1;
nodes = (
"218 407 LINE SMOOTH",
"199 407 OFFCURVE",
"189 398 OFFCURVE",
"189 379 CURVE SMOOTH",
"189 173 LINE SMOOTH",
"189 155 OFFCURVE",
"199 145 OFFCURVE",
"218 145 CURVE SMOOTH",
"376 145 LINE SMOOTH",
"558 145 OFFCURVE",
"609 286 OFFCURVE",
"515 369 CURVE SMOOTH",
"484 394 OFFCURVE",
"438 407 OFFCURVE",
"376 407 CURVE SMOOTH"
);
},
{
closed = 1;
nodes = (
"218 782 LINE SMOOTH",
"199 782 OFFCURVE",
"189 772 OFFCURVE",
"189 753 CURVE SMOOTH",
"189 535 LINE SMOOTH",
"189 516 OFFCURVE",
"199 505 OFFCURVE",
"218 505 CURVE SMOOTH",
"350 505 LINE SMOOTH",
"463 505 OFFCURVE",
"519 548 OFFCURVE",
"519 635 CURVE SMOOTH",
"519 722 OFFCURVE",
"463 782 OFFCURVE",
"350 782 CURVE SMOOTH"
);
},
{
closed = 1;
nodes = (
"73 832 LINE SMOOTH",
"73 851 OFFCURVE",
"82 860 OFFCURVE",
"101 860 CURVE SMOOTH",
"330 860 LINE SMOOTH",
"507 860 OFFCURVE",
"606 784 OFFCURVE",
"606 648 CURVE SMOOTH",
"606 553 OFFCURVE",
"574 493 OFFCURVE",
"515 471 CURVE SMOOTH",
"497 464 OFFCURVE",
"496 460 OFFCURVE",
"515 458 CURVE SMOOTH",
"647 441 OFFCURVE",
"694 349 OFFCURVE",
"694 241 CURVE SMOOTH",
"694 87 OFFCURVE",
"574 0 OFFCURVE",
"382 0 CURVE SMOOTH",
"101 0 LINE SMOOTH",
"82 0 OFFCURVE",
"73 11 OFFCURVE",
"73 28 CURVE SMOOTH"
);
}
);
width = 767;
},
{
layerId = "2BF3D7EC-9255-448B-A62B-3A7110FF42CA";
name = Bold;
paths = (
{
closed = 1;
nodes = (
"534 456 OFFCURVE",
"532 456 OFFCURVE",
"531 455 CURVE",
"532 456 OFFCURVE",
"534 456 OFFCURVE",
"536 457 CURVE"
);
},
{
closed = 1;
nodes = (
"525 475 OFFCURVE",
"534 473 OFFCURVE",
"542 471 CURVE",
"537 473 OFFCURVE",
"528 474 OFFCURVE",
"517 476 CURVE"
);
},
{
closed = 1;
nodes = (
"73 46 LINE SMOOTH",
"73 18 OFFCURVE",
"87 0 OFFCURVE",
"119 0 CURVE SMOOTH",
"388 0 LINE SMOOTH",
"583 0 OFFCURVE",
"705 90 OFFCURVE",
"705 250 CURVE SMOOTH",
"705 351 OFFCURVE",
"664 440 OFFCURVE",
"554 468 CURVE",
"597 500 OFFCURVE",
"621 557 OFFCURVE",
"621 639 CURVE SMOOTH",
"621 781 OFFCURVE",
"520 860 OFFCURVE",
"338 860 CURVE SMOOTH",
"119 860 LINE SMOOTH",
"87 860 OFFCURVE",
"73 846 OFFCURVE",
"73 815 CURVE SMOOTH"
);
},
{
closed = 1;
nodes = (
"357 748 LINE SMOOTH",
"453 748 OFFCURVE",
"499 698 OFFCURVE",
"499 626 CURVE SMOOTH",
"499 555 OFFCURVE",
"453 521 OFFCURVE",
"357 521 CURVE SMOOTH",
"231 521 LINE SMOOTH",
"225 521 OFFCURVE",
"222 525 OFFCURVE",
"222 531 CURVE SMOOTH",
"222 739 LINE SMOOTH",
"222 745 OFFCURVE",
"225 748 OFFCURVE",
"231 748 CURVE SMOOTH"
);
},
{
closed = 1;
nodes = (
"382 389 LINE SMOOTH",
"436 389 OFFCURVE",
"476 378 OFFCURVE",
"502 357 CURVE",
"502 358 LINE",
"527 336 OFFCURVE",
"540 309 OFFCURVE",
"540 282 CURVE SMOOTH",
"540 228 OFFCURVE",
"486 177 OFFCURVE",
"382 177 CURVE SMOOTH",
"231 177 LINE SMOOTH",
"225 177 OFFCURVE",
"222 180 OFFCURVE",
"222 185 CURVE SMOOTH",
"222 381 LINE SMOOTH",
"222 386 OFFCURVE",
"225 389 OFFCURVE",
"231 389 CURVE SMOOTH"
);
}
);
width = 778;
}
);
unicode = 0042;
},
{
color = 6;
glyphname = C;
lastChange = "2014-03-15 20:44:14 -0500";
layers = (
{
anchors = (
{
name = bottom;
position = "{434, 0}";
},
{
name = top;
position = "{434, 839}";
}
);
guideLines = (
{
angle = 90;
position = "{704, 363}";
}
);
layerId = "6B6936E6-7670-4A82-900D-EAF583C971AF";
name = Regular;
paths = (
{
closed = 1;
nodes = (
"743 744 LINE SMOOTH",
"738 720 OFFCURVE",
"730 715 OFFCURVE",
"709 728 CURVE SMOOTH",
"639 772 OFFCURVE",
"561 785 OFFCURVE",
"476 785 CURVE SMOOTH",
"281 785 OFFCURVE",
"191 660 OFFCURVE",
"196 432 CURVE SMOOTH",
"199 242 OFFCURVE",
"252 204 OFFCURVE",
"476 204 CURVE SMOOTH",
"561 204 OFFCURVE",
"672 230 OFFCURVE",
"722 266 CURVE SMOOTH",
"738 277 OFFCURVE",
"758 274 OFFCURVE",
"756 249 CURVE SMOOTH",
"744 91 LINE SMOOTH",
"743 76 OFFCURVE",
"738 69 OFFCURVE",
"725 57 CURVE SMOOTH",
"665 3 OFFCURVE",
"571 -14 OFFCURVE",
"476 -14 CURVE SMOOTH",
"194 -14 OFFCURVE",
"73 156 OFFCURVE",
"73 432 CURVE SMOOTH",
"73 708 OFFCURVE",
"217 878 OFFCURVE",
"476 878 CURVE SMOOTH",
"572 878 OFFCURVE",
"662 871 OFFCURVE",
"736 833 CURVE SMOOTH",
"750 826 OFFCURVE",
"758 814 OFFCURVE",
"755 799 CURVE SMOOTH"
);
}
);
width = 829.139;
},
{
layerId = "2BF3D7EC-9255-448B-A62B-3A7110FF42CA";
name = Bold;
paths = (
{
closed = 1;
nodes = (
"763 779 LINE SMOOTH",
"768 803 OFFCURVE",
"755 822 OFFCURVE",
"734 833 CURVE SMOOTH",
"661 871 OFFCURVE",
"572 878 OFFCURVE",
"477 878 CURVE SMOOTH",
"217 878 OFFCURVE",
"73 707 OFFCURVE",
"73 432 CURVE SMOOTH",
"73 157 OFFCURVE",
"194 -13 OFFCURVE",
"477 -13 CURVE SMOOTH",
"572 -13 OFFCURVE",
"666 4 OFFCURVE",
"728 59 CURVE SMOOTH",
"745 75 OFFCURVE",
"751 84 OFFCURVE",
"753 104 CURVE SMOOTH",
"764 255 LINE",
"763 294 OFFCURVE",
"729 308 OFFCURVE",
"701 289 CURVE",
"656 256 OFFCURVE",
"555 233 OFFCURVE",
"477 233 CURVE SMOOTH",
"277 233 OFFCURVE",
"231 267 OFFCURVE",
"229 432 CURVE SMOOTH",
"224 638 OFFCURVE",
"304 750 OFFCURVE",
"477 750 CURVE SMOOTH",
"555 750 OFFCURVE",
"626 739 OFFCURVE",
"689 699 CURVE SMOOTH",
"727 676 OFFCURVE",
"743 687 OFFCURVE",
"752 727 CURVE SMOOTH"
);
}
);
width = 837.07;
}
);
unicode = 0043;
},
{
color = 6;
glyphname = D;
lastChange = "2014-03-15 20:44:14 -0500";
layers = (
{
anchors = (
{
name = center;
position = "{409, 365}";
},
{
name = top;
position = "{409, 845}";
}
);
guideLines = (
{
position = "{683, 365}";
}
);
layerId = "6B6936E6-7670-4A82-900D-EAF583C971AF";
name = Regular;
paths = (
{
closed = 1;
nodes = (
"224 765 LINE SMOOTH",
"206 765 OFFCURVE",
"196 755 OFFCURVE",
"196 736 CURVE SMOOTH",
"196 232 LINE SMOOTH",
"196 214 OFFCURVE",
"205 204 OFFCURVE",
"224 204 CURVE SMOOTH",
"336 204 LINE SMOOTH",
"506 204 OFFCURVE",
"675 232 OFFCURVE",
"675 431 CURVE SMOOTH",
"675 634 OFFCURVE",
"570 765 OFFCURVE",
"336 765 CURVE SMOOTH"
);
},
{
closed = 1;
nodes = (
"73 832 LINE SMOOTH",
"73 851 OFFCURVE",
"83 860 OFFCURVE",
"101 860 CURVE SMOOTH",
"312 860 LINE SMOOTH",
"587 860 OFFCURVE",
"796 726 OFFCURVE",
"796 431 CURVE SMOOTH",
"796 135 OFFCURVE",
"585 0 OFFCURVE",
"312 0 CURVE SMOOTH",
"101 0 LINE SMOOTH",
"83 0 OFFCURVE",
"73 11 OFFCURVE",
"73 28 CURVE SMOOTH"
);
}
);
width = 869;
},
{
layerId = "2BF3D7EC-9255-448B-A62B-3A7110FF42CA";
name = Bold;
paths = (
{
closed = 1;
nodes = (
"73 46 LINE SMOOTH",
"73 18 OFFCURVE",
"89 0 OFFCURVE",
"119 0 CURVE SMOOTH",
"321 0 LINE SMOOTH",
"592 0 OFFCURVE",
"803 135 OFFCURVE",
"803 431 CURVE SMOOTH",
"803 727 OFFCURVE",
"594 860 OFFCURVE",
"321 860 CURVE SMOOTH",
"119 860 LINE SMOOTH",
"89 860 OFFCURVE",
"73 846 OFFCURVE",
"73 815 CURVE SMOOTH"
);
},
{
closed = 1;
nodes = (
"344 731 LINE SMOOTH",
"554 731 OFFCURVE",
"649 614 OFFCURVE",
"649 431 CURVE SMOOTH",
"649 258 OFFCURVE",
"497 233 OFFCURVE",
"344 233 CURVE SMOOTH",
"237 233 LINE SMOOTH",
"232 233 OFFCURVE",
"229 236 OFFCURVE",
"229 241 CURVE SMOOTH",
"229 723 LINE SMOOTH",
"229 729 OFFCURVE",
"232 731 OFFCURVE",
"237 731 CURVE SMOOTH"
);
}
);
width = 876;
}
);
unicode = 0044;
},
{
color = 6;
glyphname = E;
lastChange = "2014-03-15 20:44:14 -0500";
layers = (
{
anchors = (
{
name = bottom;
position = "{375, 0}";
},
{
name = ogonek;
position = "{374, 0}";
},
{
name = top;
position = "{335, 846}";
}
);
layerId = "6B6936E6-7670-4A82-900D-EAF583C971AF";
name = Regular;
paths = (
{
closed = 1;
nodes = (
"73 832 LINE SMOOTH",
"73 851 OFFCURVE",
"83 860 OFFCURVE",
"102 860 CURVE SMOOTH",
"588 860 LINE SMOOTH",
"607 860 OFFCURVE",
"617 851 OFFCURVE",
"617 832 CURVE SMOOTH",
"617 811 LINE SMOOTH",
"617 793 OFFCURVE",
"606 782 OFFCURVE",
"588 782 CURVE SMOOTH",
"218 782 LINE SMOOTH",
"200 782 OFFCURVE",
"190 773 OFFCURVE",
"190 754 CURVE SMOOTH",
"190 535 LINE SMOOTH",
"190 516 OFFCURVE",
"200 505 OFFCURVE",
"218 505 CURVE SMOOTH",
"571 505 LINE SMOOTH",
"590 505 OFFCURVE",
"599 496 OFFCURVE",
"599 477 CURVE SMOOTH",
"599 437 LINE SMOOTH",
"599 418 OFFCURVE",
"588 407 OFFCURVE",
"571 407 CURVE SMOOTH",
"218 407 LINE SMOOTH",
"200 407 OFFCURVE",
"190 398 OFFCURVE",
"190 379 CURVE SMOOTH",
"190 234 LINE SMOOTH",
"190 215 OFFCURVE",
"200 204 OFFCURVE",
"218 204 CURVE SMOOTH",
"599 204 LINE SMOOTH",
"618 204 OFFCURVE",
"627 195 OFFCURVE",
"627 176 CURVE SMOOTH",
"627 28 LINE SMOOTH",
"627 11 OFFCURVE",
"618 0 OFFCURVE",
"599 0 CURVE SMOOTH",
"102 0 LINE SMOOTH",
"83 0 OFFCURVE",
"73 11 OFFCURVE",
"73 28 CURVE SMOOTH"
);
}
);
width = 700;
},
{
layerId = "2BF3D7EC-9255-448B-A62B-3A7110FF42CA";
name = Bold;
paths = (
{
closed = 1;
nodes = (
"73 46 LINE SMOOTH",
"73 18 OFFCURVE",
"90 0 OFFCURVE",
"120 0 CURVE SMOOTH",
"595 0 LINE SMOOTH",
"627 0 OFFCURVE",
"641 18 OFFCURVE",
"641 46 CURVE SMOOTH",
"641 187 LINE SMOOTH",
"641 219 OFFCURVE",
"627 233 OFFCURVE",
"595 233 CURVE SMOOTH",
"231 233 LINE SMOOTH",
"226 233 OFFCURVE",
"223 237 OFFCURVE",
"223 243 CURVE SMOOTH",
"223 381 LINE SMOOTH",
"223 386 OFFCURVE",
"226 389 OFFCURVE",
"231 389 CURVE SMOOTH",
"569 389 LINE SMOOTH",
"596 389 OFFCURVE",
"614 406 OFFCURVE",
"614 437 CURVE SMOOTH",
"614 475 LINE SMOOTH",
"614 507 OFFCURVE",
"600 521 OFFCURVE",
"569 521 CURVE SMOOTH",
"231 521 LINE SMOOTH",
"226 521 OFFCURVE",
"223 525 OFFCURVE",
"223 531 CURVE SMOOTH",
"223 740 LINE SMOOTH",
"223 745 OFFCURVE",
"226 748 OFFCURVE",
"231 748 CURVE SMOOTH",
"585 748 LINE SMOOTH",
"614 748 OFFCURVE",
"632 766 OFFCURVE",
"632 794 CURVE SMOOTH",
"632 815 LINE SMOOTH",
"632 846 OFFCURVE",
"615 860 OFFCURVE",
"585 860 CURVE SMOOTH",
"120 860 LINE SMOOTH",
"90 860 OFFCURVE",
"73 846 OFFCURVE",
"73 815 CURVE SMOOTH"
);
}
);
width = 714;
}
);
unicode = 0045;
},
{
color = 6;
glyphname = F;
lastChange = "2014-03-15 20:44:14 -0500";
layers = (
{
layerId = "6B6936E6-7670-4A82-900D-EAF583C971AF";
name = Regular;
paths = (
{
closed = 1;
nodes = (
"96 832 LINE SMOOTH",
"96 851 OFFCURVE",
"106 860 OFFCURVE",
"124 860 CURVE SMOOTH",
"550 860 LINE SMOOTH",
"569 860 OFFCURVE",
"580 850 OFFCURVE",
"580 832 CURVE SMOOTH",
"580 798 LINE SMOOTH",
"580 779 OFFCURVE",
"569 768 OFFCURVE",
"550 768 CURVE SMOOTH",
"229 768 LINE SMOOTH",
"210 768 OFFCURVE",
"200 759 OFFCURVE",
"200 740 CURVE SMOOTH",
"202 538 LINE SMOOTH",
"202 519 OFFCURVE",
"211 509 OFFCURVE",
"230 509 CURVE SMOOTH",
"508 509 LINE SMOOTH",
"527 509 OFFCURVE",
"536 499 OFFCURVE",
"536 480 CURVE SMOOTH",
"536 417 LINE SMOOTH",
"536 398 OFFCURVE",
"527 388 OFFCURVE",
"508 388 CURVE SMOOTH",
"236 388 LINE SMOOTH",
"217 388 OFFCURVE",
"207 378 OFFCURVE",
"208 359 CURVE SMOOTH",
"229 29 LINE SMOOTH",
"230 11 OFFCURVE",
"220 0 OFFCURVE",
"201 0 CURVE SMOOTH",
"103 0 LINE SMOOTH",
"84 0 OFFCURVE",
"73 11 OFFCURVE",
"73 29 CURVE SMOOTH"
);
}
);
width = 653;
},
{
layerId = "2BF3D7EC-9255-448B-A62B-3A7110FF42CA";
name = Bold;
paths = (
{
closed = 1;
nodes = (
"73 47 LINE SMOOTH",
"73 18 OFFCURVE",
"90 0 OFFCURVE",
"121 0 CURVE SMOOTH",
"214 0 LINE SMOOTH",
"245 0 OFFCURVE",
"262 18 OFFCURVE",
"260 48 CURVE SMOOTH",
"240 363 LINE",
"240 367 OFFCURVE",
"243 371 OFFCURVE",
"248 371 CURVE SMOOTH",
"508 371 LINE SMOOTH",
"539 371 OFFCURVE",
"554 387 OFFCURVE",
"554 418 CURVE SMOOTH",
"554 478 LINE SMOOTH",
"554 509 OFFCURVE",
"539 525 OFFCURVE",
"508 525 CURVE SMOOTH",
"242 525 LINE SMOOTH",
"237 525 OFFCURVE",
"234 528 OFFCURVE",
"234 533 CURVE",
"232 727 LINE",
"232 731 OFFCURVE",
"235 734 OFFCURVE",
"241 734 CURVE SMOOTH",
"548 734 LINE SMOOTH",
"579 734 OFFCURVE",
"596 751 OFFCURVE",
"596 782 CURVE SMOOTH",
"596 815 LINE SMOOTH",
"596 844 OFFCURVE",
"579 860 OFFCURVE",
"548 860 CURVE SMOOTH",
"141 860 LINE SMOOTH",
"112 860 OFFCURVE",
"96 844 OFFCURVE",
"95 816 CURVE SMOOTH"
);
}
);
width = 669;
}
);
unicode = 0046;
},
{
color = 6;
glyphname = G;
lastChange = "2014-03-15 20:44:14 -0500";
layers = (
{
anchors = (
{
name = bottom;
position = "{461, 0}";
},
{
name = top;
position = "{461, 873}";
}
);
layerId = "6B6936E6-7670-4A82-900D-EAF583C971AF";
name = Regular;
paths = (
{
closed = 1;
nodes = (
"692 305 LINE SMOOTH",
"692 316 OFFCURVE",
"686 322 OFFCURVE",
"674 322 CURVE SMOOTH",
"525 322 LINE SMOOTH",
"513 322 OFFCURVE",
"507 328 OFFCURVE",
"507 340 CURVE SMOOTH",
"507 417 LINE SMOOTH",
"507 428 OFFCURVE",
"513 434 OFFCURVE",
"525 434 CURVE SMOOTH",
"807 434 LINE SMOOTH",
"818 434 OFFCURVE",
"824 428 OFFCURVE",
"824 417 CURVE SMOOTH",
"824 97 LINE SMOOTH",
"824 86 OFFCURVE",
"821 80 OFFCURVE",
"814 74 CURVE SMOOTH",
"725 17 OFFCURVE",
"620 -14 OFFCURVE",
"502 -14 CURVE SMOOTH",
"233 -14 OFFCURVE",
"73 151 OFFCURVE",
"73 432 CURVE SMOOTH",
"73 713 OFFCURVE",
"261 878 OFFCURVE",
"502 878 CURVE SMOOTH",
"539 878 OFFCURVE",
"613 883 OFFCURVE",
"790 839 CURVE SMOOTH",
"798 837 OFFCURVE",
"801 827 OFFCURVE",
"802 818 CURVE SMOOTH",
"814 740 LINE SMOOTH",
"816 726 OFFCURVE",
"807 727 OFFCURVE",
"792 731 CURVE SMOOTH",
"613 773 OFFCURVE",
"539 773 OFFCURVE",
"512 773 CURVE SMOOTH",
"330 773 OFFCURVE",
"207 676 OFFCURVE",
"207 444 CURVE",
"215 198 OFFCURVE",
"250 174 OFFCURVE",
"512 174 CURVE SMOOTH",
"586 174 OFFCURVE",
"650 185 OFFCURVE",
"683 209 CURVE SMOOTH",
"690 215 OFFCURVE",
"692 221 OFFCURVE",
"692 230 CURVE SMOOTH"
);
}
);
width = 897;
},
{
layerId = "2BF3D7EC-9255-448B-A62B-3A7110FF42CA";
name = Bold;
paths = (
{
closed = 1;
nodes = (
"664 239 LINE SMOOTH",
"664 237 OFFCURVE",
"663 234 OFFCURVE",
"662 233 CURVE",
"634 214 OFFCURVE",
"577 205 OFFCURVE",
"511 205 CURVE SMOOTH",
"283 205 OFFCURVE",
"247 241 OFFCURVE",
"239 445 CURVE",
"242 647 OFFCURVE",
"351 739 OFFCURVE",
"511 739 CURVE SMOOTH",
"536 739 OFFCURVE",
"616 736 OFFCURVE",
"774 700 CURVE",
"805 691 OFFCURVE",
"825 690 OFFCURVE",
"819 729 CURVE SMOOTH",
"808 804 LINE",
"808 803 LINE",
"806 817 OFFCURVE",
"800 835 OFFCURVE",
"782 839 CURVE SMOOTH",
"623 879 OFFCURVE",
"550 878 OFFCURVE",
"511 878 CURVE SMOOTH",
"502 878 LINE SMOOTH",
"261 878 OFFCURVE",
"73 713 OFFCURVE",
"73 432 CURVE SMOOTH",
"73 151 OFFCURVE",
"232 -13 OFFCURVE",
"502 -13 CURVE SMOOTH",
"618 -13 OFFCURVE",
"722 17 OFFCURVE",
"810 73 CURVE",
"823 84 OFFCURVE",
"829 94 OFFCURVE",
"829 112 CURVE SMOOTH",
"829 418 LINE SMOOTH",
"829 441 OFFCURVE",
"816 453 OFFCURVE",
"793 453 CURVE SMOOTH",
"524 453 LINE SMOOTH",
"500 453 OFFCURVE",
"487 441 OFFCURVE",
"487 418 CURVE SMOOTH",
"487 344 LINE SMOOTH",
"487 320 OFFCURVE",
"500 308 OFFCURVE",
"524 308 CURVE SMOOTH",
"664 308 LINE"
);
}
);
width = 902;
}
);
leftKerningGroup = Round;
unicode = 0047;
},
{
color = 6;
glyphname = H;
lastChange = "2014-03-15 20:44:14 -0500";
layers = (
{
anchors = (
{
name = center;
position = "{406, 365}";
},
{
name = top;
position = "{406, 729}";
}
);
layerId = "6B6936E6-7670-4A82-900D-EAF583C971AF";
name = Regular;
paths = (
{
closed = 1;
nodes = (
"83 831 LINE SMOOTH",
"83 850 OFFCURVE",
"94 860 OFFCURVE",
"113 860 CURVE SMOOTH",
"176 860 LINE SMOOTH",
"195 860 OFFCURVE",
"206 849 OFFCURVE",
"206 831 CURVE SMOOTH",
"206 436 LINE SMOOTH",
"206 417 OFFCURVE",
"215 407 OFFCURVE",
"234 407 CURVE SMOOTH",
"576 407 LINE SMOOTH",
"595 407 OFFCURVE",
"606 417 OFFCURVE",
"606 436 CURVE SMOOTH",
"606 831 LINE SMOOTH",
"606 849 OFFCURVE",
"615 860 OFFCURVE",
"634 860 CURVE SMOOTH",
"699 860 LINE SMOOTH",
"718 860 OFFCURVE",
"727 850 OFFCURVE",
"728 831 CURVE SMOOTH",
"738 28 LINE SMOOTH",
"739 11 OFFCURVE",
"728 0 OFFCURVE",
"710 0 CURVE SMOOTH",
"634 0 LINE SMOOTH",
"615 0 OFFCURVE",
"606 9 OFFCURVE",
"606 28 CURVE SMOOTH",
"606 217 LINE SMOOTH",
"606 236 OFFCURVE",
"595 246 OFFCURVE",
"576 246 CURVE SMOOTH",
"234 246 LINE SMOOTH",
"216 246 OFFCURVE",
"206 236 OFFCURVE",
"206 217 CURVE SMOOTH",
"206 28 LINE SMOOTH",
"206 9 OFFCURVE",
"195 0 OFFCURVE",
"176 0 CURVE SMOOTH",
"101 0 LINE SMOOTH",
"82 0 OFFCURVE",
"71 11 OFFCURVE",
"73 28 CURVE SMOOTH"
);
}
);
width = 811.063;
},
{
layerId = "2BF3D7EC-9255-448B-A62B-3A7110FF42CA";
name = Bold;
paths = (
{
closed = 1;
nodes = (
"73 48 LINE",
"71 21 OFFCURVE",
"88 0 OFFCURVE",
"118 0 CURVE SMOOTH",
"190 0 LINE SMOOTH",
"221 0 OFFCURVE",
"238 14 OFFCURVE",
"238 46 CURVE SMOOTH",
"238 227 LINE SMOOTH",
"238 232 OFFCURVE",
"241 235 OFFCURVE",
"246 235 CURVE SMOOTH",
"573 235 LINE SMOOTH",
"578 235 OFFCURVE",
"582 232 OFFCURVE",
"582 227 CURVE SMOOTH",
"582 46 LINE SMOOTH",
"582 14 OFFCURVE",
"596 0 OFFCURVE",
"628 0 CURVE SMOOTH",
"701 0 LINE SMOOTH",
"729 0 OFFCURVE",
"748 18 OFFCURVE",
"747 46 CURVE SMOOTH",
"737 814 LINE",
"735 844 OFFCURVE",
"721 860 OFFCURVE",
"690 860 CURVE SMOOTH",
"628 860 LINE SMOOTH",
"596 860 OFFCURVE",
"582 842 OFFCURVE",
"582 814 CURVE SMOOTH",
"582 436 LINE SMOOTH",
"582 430 OFFCURVE",
"578 427 OFFCURVE",
"573 427 CURVE SMOOTH",
"246 427 LINE SMOOTH",
"241 427 OFFCURVE",
"238 430 OFFCURVE",
"238 436 CURVE SMOOTH",
"238 814 LINE SMOOTH",
"238 842 OFFCURVE",
"221 860 OFFCURVE",
"190 860 CURVE SMOOTH",
"130 860 LINE SMOOTH",
"99 860 OFFCURVE",
"82 844 OFFCURVE",
"82 814 CURVE SMOOTH"
);
}
);
width = 820.038;
}
);
unicode = 0048;
},
{
color = 6;
glyphname = I;
lastChange = "2014-03-15 20:44:14 -0500";
layers = (
{
anchors = (
{
name = hookabovecomb;
position = "{194, 853}";
},
{
name = ogonek;
position = "{184, 0}";
},
{
name = top;
position = "{188, 860}";
}
);
layerId = "6B6936E6-7670-4A82-900D-EAF583C971AF";
name = Regular;
paths = (
{
closed = 1;
nodes = (
"145 307 OFFCURVE",
"194 603 OFFCURVE",
"110 844 CURVE SMOOTH",
"104 859 OFFCURVE",
"121 870 OFFCURVE",
"140 870 CURVE SMOOTH",
"237 870 LINE SMOOTH",
"256 870 OFFCURVE",
"268 859 OFFCURVE",
"265 840 CURVE SMOOTH",
"235 635 OFFCURVE",
"231 168 OFFCURVE",
"286 31 CURVE SMOOTH",
"294 11 OFFCURVE",
"278 0 OFFCURVE",
"259 0 CURVE SMOOTH",
"102 0 LINE SMOOTH",
"82 0 OFFCURVE",
"69 9 OFFCURVE",
"74 29 CURVE SMOOTH"
);
}
);
width = 361.11;
},
{
layerId = "2BF3D7EC-9255-448B-A62B-3A7110FF42CA";
name = Bold;
paths = (
{
closed = 1;
nodes = (
"66 16 OFFCURVE",
"87 0 OFFCURVE",
"120 0 CURVE SMOOTH",
"271 0 LINE SMOOTH",
"303 0 OFFCURVE",
"329 19 OFFCURVE",
"315 55 CURVE SMOOTH",
"287 126 OFFCURVE",
"274 292 OFFCURVE",
"274 458 CURVE SMOOTH",
"274 590 OFFCURVE",
"284 731 OFFCURVE",
"295 819 CURVE SMOOTH",
"299 850 OFFCURVE",
"279 870 OFFCURVE",
"250 870 CURVE SMOOTH",
"157 870 LINE SMOOTH",
"125 870 OFFCURVE",
"99 848 OFFCURVE",
"110 819 CURVE",
"137 737 OFFCURVE",
"151 642 OFFCURVE",
"151 549 CURVE SMOOTH",
"151 387 OFFCURVE",
"117 216 OFFCURVE",
"76 52 CURVE SMOOTH"
);
}
);
width = 391.881;
}
);
unicode = 0049;
},
{
color = 6;
glyphname = J;
lastChange = "2014-03-15 20:44:14 -0500";
layers = (
{
anchors = (
{
name = top;
position = "{293, 729}";
}
);
layerId = "6B6936E6-7670-4A82-900D-EAF583C971AF";
name = Regular;
paths = (
{
closed = 1;
nodes = (
"328 870 LINE SMOOTH",
"329 889 OFFCURVE",
"339 898 OFFCURVE",
"358 898 CURVE SMOOTH",
"423 893 LINE SMOOTH",
"441 892 OFFCURVE",
"451 882 OFFCURVE",
"450 863 CURVE SMOOTH",
"414 75 LINE SMOOTH",
"405 -133 OFFCURVE",
"325 -207 OFFCURVE",
"143 -211 CURVE",
"103 -207 LINE SMOOTH",
"84 -205 OFFCURVE",
"76 -194 OFFCURVE",
"74 -177 CURVE SMOOTH",
"73 -47 LINE SMOOTH",
"73 -26 OFFCURVE",
"85 -16 OFFCURVE",
"105 -21 CURVE SMOOTH",
"115 -23 LINE SMOOTH",
"128 -26 OFFCURVE",
"136 -27 OFFCURVE",
"150 -26 CURVE SMOOTH",
"240 -15 OFFCURVE",
"277 36 OFFCURVE",
"281 82 CURVE SMOOTH"
);
}
);
width = 523.068;
},
{
layerId = "2BF3D7EC-9255-448B-A62B-3A7110FF42CA";
name = Bold;
paths = (
{
closed = 1;
nodes = (
"272 98 LINE",
"272 99 LINE",
"269 63 OFFCURVE",
"237 24 OFFCURVE",
"164 13 CURVE",
"158 13 OFFCURVE",
"139 14 OFFCURVE",
"130 16 CURVE",
"128 16 OFFCURVE",
"126 17 OFFCURVE",
"125 18 CURVE",
"92 26 OFFCURVE",
"73 9 OFFCURVE",
"73 -26 CURVE SMOOTH",
"74 -152 LINE",
"77 -179 OFFCURVE",
"90 -195 OFFCURVE",
"119 -198 CURVE SMOOTH",
"158 -202 LINE",
"341 -198 OFFCURVE",
"425 -111 OFFCURVE",
"438 90 CURVE SMOOTH",
"472 843 LINE",
"471 870 OFFCURVE",
"456 890 OFFCURVE",
"428 892 CURVE SMOOTH",
"365 897 LINE",
"336 897 OFFCURVE",
"319 881 OFFCURVE",
"317 852 CURVE SMOOTH"
);
}
);
width = 545;
}
);
unicode = 004A;
},
{
color = 6;
glyphname = K;
lastChange = "2014-03-15 20:44:14 -0500";
layers = (
{
anchors = (
{
name = bottom;
position = "{390, 0}";
},
{
name = top;
position = "{390, 729}";
}
);
layerId = "6B6936E6-7670-4A82-900D-EAF583C971AF";
name = Regular;
paths = (
{
closed = 1;
nodes = (
"95 832 LINE SMOOTH",
"95 851 OFFCURVE",
"105 860 OFFCURVE",
"124 860 CURVE SMOOTH",
"183 860 LINE SMOOTH",
"202 860 OFFCURVE",
"211 850 OFFCURVE",
"211 831 CURVE SMOOTH",
"202 546 LINE SMOOTH",
"200 520 OFFCURVE",
"218 513 OFFCURVE",
"237 531 CURVE SMOOTH",
"571 846 LINE SMOOTH",
"583 857 OFFCURVE",
"592 860 OFFCURVE",
"608 860 CURVE SMOOTH",
"684 860 LINE SMOOTH",
"711 860 OFFCURVE",
"717 843 OFFCURVE",
"698 825 CURVE SMOOTH",
"330 479 LINE SMOOTH",
"317 466 OFFCURVE",
"317 452 OFFCURVE",
"330 439 CURVE SMOOTH",
"731 35 LINE SMOOTH",
"749 18 OFFCURVE",
"742 0 OFFCURVE",
"716 0 CURVE SMOOTH",
"514 0 LINE SMOOTH",
"499 0 OFFCURVE",
"488 5 OFFCURVE",
"480 18 CURVE SMOOTH",
"238 361 LINE SMOOTH",
"222 383 OFFCURVE",
"203 376 OFFCURVE",
"204 348 CURVE SMOOTH",
"222 29 LINE SMOOTH",
"223 11 OFFCURVE",
"213 0 OFFCURVE",
"195 0 CURVE SMOOTH",
"101 0 LINE SMOOTH",
"82 0 OFFCURVE",
"73 11 OFFCURVE",
"73 29 CURVE SMOOTH"
);
}
);
width = 814.02;
},
{
layerId = "2BF3D7EC-9255-448B-A62B-3A7110FF42CA";
name = Bold;
paths = (
{
closed = 1;
nodes = (
"73 47 LINE SMOOTH",
"73 18 OFFCURVE",
"87 0 OFFCURVE",
"119 0 CURVE SMOOTH",
"208 0 LINE SMOOTH",
"238 0 OFFCURVE",
"255 18 OFFCURVE",
"253 48 CURVE SMOOTH",
"236 351 LINE",
"466 26 LINE",
"465 27 LINE",
"476 8 OFFCURVE",
"492 0 OFFCURVE",
"513 0 CURVE SMOOTH",
"707 0 LINE SMOOTH",
"755 0 OFFCURVE",
"769 34 OFFCURVE",
"734 67 CURVE",
"734 66 LINE",
"351 452 LINE SMOOTH",
"347 456 OFFCURVE",
"347 460 OFFCURVE",
"351 464 CURVE",
"351 463 LINE",
"703 794 LINE SMOOTH",
"739 828 OFFCURVE",
"728 860 OFFCURVE",
"676 860 CURVE SMOOTH",
"603 860 LINE SMOOTH",
"582 860 OFFCURVE",
"571 857 OFFCURVE",
"555 842 CURVE SMOOTH",
"235 541 LINE",
"234 539 LINE",
"243 813 LINE SMOOTH",
"243 844 OFFCURVE",
"228 860 OFFCURVE",
"197 860 CURVE SMOOTH",
"141 860 LINE SMOOTH",
"111 860 OFFCURVE",
"95 844 OFFCURVE",
"94 816 CURVE SMOOTH"
);
}
);
width = 826.496;
}
);
unicode = 004B;
},
{
color = 6;
glyphname = L;
lastChange = "2014-03-15 20:44:14 -0500";
layers = (
{
anchors = (
{
name = "_ circumflexbelowcomb";
position = "{332, 0}";
},
{
name = top;
position = "{192, 729}";
}
);
layerId = "6B6936E6-7670-4A82-900D-EAF583C971AF";
name = Regular;
paths = (
{
closed = 1;
nodes = (
"84 832 LINE SMOOTH",
"84 851 OFFCURVE",
"94 860 OFFCURVE",
"113 860 CURVE SMOOTH",
"172 860 LINE SMOOTH",
"191 860 OFFCURVE",
"202 850 OFFCURVE",
"202 832 CURVE SMOOTH",
"195 234 LINE SMOOTH",
"195 215 OFFCURVE",
"205 204 OFFCURVE",
"223 204 CURVE SMOOTH",
"607 204 LINE SMOOTH",
"627 204 OFFCURVE",
"636 195 OFFCURVE",
"635 175 CURVE SMOOTH",
"627 27 LINE SMOOTH",
"625 9 OFFCURVE",
"616 0 OFFCURVE",
"598 0 CURVE SMOOTH",
"101 0 LINE SMOOTH",
"83 0 OFFCURVE",
"73 11 OFFCURVE",
"73 28 CURVE SMOOTH"
);
}
);
width = 708.075;
},
{
layerId = "2BF3D7EC-9255-448B-A62B-3A7110FF42CA";
name = Bold;
paths = (
{
closed = 1;
nodes = (
"73 46 LINE SMOOTH",
"73 18 OFFCURVE",
"90 0 OFFCURVE",
"119 0 CURVE SMOOTH",
"594 0 LINE SMOOTH",
"623 0 OFFCURVE",
"638 14 OFFCURVE",
"641 43 CURVE",
"643 90 OFFCURVE",
"647 139 OFFCURVE",
"649 185 CURVE SMOOTH",
"650 219 OFFCURVE",
"636 233 OFFCURVE",
"603 233 CURVE SMOOTH",
"236 233 LINE SMOOTH",
"231 233 OFFCURVE",
"228 237 OFFCURVE",
"228 243 CURVE SMOOTH",
"235 815 LINE SMOOTH",
"235 844 OFFCURVE",
"218 860 OFFCURVE",
"187 860 CURVE SMOOTH",
"131 860 LINE SMOOTH",
"100 860 OFFCURVE",
"84 846 OFFCURVE",
"84 815 CURVE SMOOTH"
);
}
);
width = 722.05;
}
);
unicode = 004C;
},
{
color = 6;
glyphname = M;
lastChange = "2014-03-15 20:44:14 -0500";
layers = (
{
anchors = (
{
name = _top;
position = "{448, 663}";
}
);
layerId = "6B6936E6-7670-4A82-900D-EAF583C971AF";
name = Regular;
paths = (
{
closed = 1;
nodes = (
"115 832 LINE SMOOTH",
"116 851 OFFCURVE",
"125 860 OFFCURVE",
"144 860 CURVE SMOOTH",
"264 860 LINE SMOOTH",
"282 860 OFFCURVE",
"292 853 OFFCURVE",
"298 838 CURVE SMOOTH",
"455 394 LINE SMOOTH",
"463 371 OFFCURVE",
"485 371 OFFCURVE",
"493 394 CURVE SMOOTH",
"662 838 LINE SMOOTH",
"667 853 OFFCURVE",
"679 860 OFFCURVE",
"695 860 CURVE SMOOTH",
"804 860 LINE SMOOTH",
"823 860 OFFCURVE",
"833 851 OFFCURVE",
"834 832 CURVE SMOOTH",
"876 29 LINE SMOOTH",
"878 11 OFFCURVE",
"866 0 OFFCURVE",
"847 0 CURVE SMOOTH",
"747 0 LINE SMOOTH",
"728 0 OFFCURVE",
"718 11 OFFCURVE",
"718 29 CURVE SMOOTH",
"710 647 LINE SMOOTH",
"710 671 OFFCURVE",
"685 676 OFFCURVE",
"679 653 CURVE SMOOTH",
"552 149 LINE SMOOTH",
"548 132 OFFCURVE",
"535 125 OFFCURVE",
"519 125 CURVE SMOOTH",
"429 125 LINE SMOOTH",
"411 125 OFFCURVE",
"400 132 OFFCURVE",
"396 149 CURVE SMOOTH",
"269 653 LINE SMOOTH",
"263 676 OFFCURVE",
"238 671 OFFCURVE",
"238 647 CURVE SMOOTH",
"230 29 LINE SMOOTH",
"230 11 OFFCURVE",
"220 0 OFFCURVE",
"201 0 CURVE SMOOTH",
"101 0 LINE SMOOTH",
"82 0 OFFCURVE",
"72 11 OFFCURVE",
"73 29 CURVE SMOOTH"
);
}
);
width = 949.217;
},
{
layerId = "2BF3D7EC-9255-448B-A62B-3A7110FF42CA";
name = Bold;
paths = (
{
closed = 1;
nodes = (
"73 48 LINE SMOOTH",
"71 18 OFFCURVE",
"88 0 OFFCURVE",
"119 0 CURVE SMOOTH",
"215 0 LINE SMOOTH",
"245 0 OFFCURVE",
"261 18 OFFCURVE",
"261 47 CURVE SMOOTH",
"268 608 LINE",
"305 459 OFFCURVE",
"346 305 OFFCURVE",
"383 157 CURVE SMOOTH",
"389 132 OFFCURVE",
"406 120 OFFCURVE",
"433 120 CURVE SMOOTH",
"519 120 LINE SMOOTH",
"542 120 OFFCURVE",
"562 132 OFFCURVE",
"568 157 CURVE SMOOTH",
"605 305 OFFCURVE",
"645 458 OFFCURVE",
"682 607 CURVE",
"684 420 OFFCURVE",
"688 234 OFFCURVE",
"690 47 CURVE SMOOTH",
"690 18 OFFCURVE",
"706 0 OFFCURVE",
"737 0 CURVE SMOOTH",
"832 0 LINE SMOOTH",
"861 0 OFFCURVE",
"878 23 OFFCURVE",
"879 48 CURVE",
"839 816 LINE SMOOTH",
"838 846 OFFCURVE",
"821 860 OFFCURVE",
"791 860 CURVE SMOOTH",
"687 860 LINE SMOOTH",
"663 860 OFFCURVE",
"645 850 OFFCURVE",
"637 826 CURVE",
"637 827 LINE",
"476 402 LINE",
"325 827 LINE SMOOTH",
"316 850 OFFCURVE",
"302 860 OFFCURVE",
"275 860 CURVE SMOOTH",
"160 860 LINE SMOOTH",
"129 860 OFFCURVE",
"114 846 OFFCURVE",
"113 816 CURVE SMOOTH"
);
}
);
width = 952;
}
);
unicode = 004D;
},
{
color = 6;
glyphname = N;
lastChange = "2014-03-15 20:44:14 -0500";
layers = (
{
anchors = (
{
name = _;
position = "{420, 0}";
},
{
name = top;
position = "{420, 729}";
}
);
layerId = "6B6936E6-7670-4A82-900D-EAF583C971AF";
name = Regular;
paths = (
{
closed = 1;
nodes = (
"106 814 LINE SMOOTH",
"107 833 OFFCURVE",
"117 843 OFFCURVE",
"135 843 CURVE SMOOTH",
"229 843 LINE SMOOTH",
"245 843 OFFCURVE",
"256 837 OFFCURVE",
"263 822 CURVE SMOOTH",
"589 224 LINE SMOOTH",
"603 199 OFFCURVE",
"623 204 OFFCURVE",
"624 232 CURVE SMOOTH",
"639 832 LINE SMOOTH",
"639 851 OFFCURVE",
"649 860 OFFCURVE",
"668 860 CURVE SMOOTH",
"718 860 LINE SMOOTH",
"737 860 OFFCURVE",
"747 850 OFFCURVE",
"747 832 CURVE SMOOTH",
"747 28 LINE SMOOTH",
"747 11 OFFCURVE",
"736 0 OFFCURVE",
"718 0 CURVE SMOOTH",
"601 0 LINE SMOOTH",
"585 0 OFFCURVE",
"574 6 OFFCURVE",
"567 21 CURVE SMOOTH",
"235 649 LINE SMOOTH",
"220 675 OFFCURVE",
"200 669 OFFCURVE",
"201 640 CURVE SMOOTH",
"242 29 LINE SMOOTH",
"243 11 OFFCURVE",
"233 0 OFFCURVE",
"214 0 CURVE SMOOTH",
"101 0 LINE SMOOTH",
"82 0 OFFCURVE",
"72 11 OFFCURVE",
"73 29 CURVE SMOOTH"
);
}
);
width = 820;
},
{
layerId = "2BF3D7EC-9255-448B-A62B-3A7110FF42CA";
name = Bold;
paths = (
{
closed = 1;
nodes = (
"605 238 LINE",
"604 238 OFFCURVE",
"604 239 OFFCURVE",
"604 240 CURVE",
"604 239 OFFCURVE",
"604 239 OFFCURVE",
"605 239 CURVE"
);
},
{
closed = 1;
nodes = (
"73 48 LINE SMOOTH",
"71 18 OFFCURVE",
"88 0 OFFCURVE",
"119 0 CURVE SMOOTH",
"227 0 LINE SMOOTH",
"257 0 OFFCURVE",
"274 18 OFFCURVE",
"272 48 CURVE SMOOTH",
"233 622 LINE",
"547 31 LINE",
"547 32 LINE",
"557 10 OFFCURVE",
"573 0 OFFCURVE",
"597 0 CURVE SMOOTH",
"708 0 LINE SMOOTH",
"737 0 OFFCURVE",
"755 18 OFFCURVE",
"755 46 CURVE SMOOTH",
"755 815 LINE SMOOTH",
"755 844 OFFCURVE",
"739 860 OFFCURVE",
"708 860 CURVE SMOOTH",
"661 860 LINE SMOOTH",
"630 860 OFFCURVE",
"614 846 OFFCURVE",
"614 815 CURVE SMOOTH",
"599 249 LINE",
"498 435 OFFCURVE",
"392 627 OFFCURVE",
"291 815 CURVE",
"291 813 LINE",
"280 835 OFFCURVE",
"265 844 OFFCURVE",
"241 844 CURVE SMOOTH",
"151 844 LINE SMOOTH",
"121 844 OFFCURVE",
"106 828 OFFCURVE",
"104 798 CURVE SMOOTH"
);
}
);
width = 828;
}
);
unicode = 004E;
},
{
color = 6;
glyphname = O;
lastChange = "2014-03-15 20:44:14 -0500";
layers = (
{
anchors = (
{
name = hookabovecomb;
position = "{491, 905}";
},
{
name = horn;
position = "{776, 635}";
},
{
name = top;
position = "{466, 902}";
}
);
layerId = "6B6936E6-7670-4A82-900D-EAF583C971AF";
name = Regular;
paths = (
{
closed = 1;
nodes = (
"297 784 OFFCURVE",
"190 649 OFFCURVE",
"190 432 CURVE SMOOTH",
"190 254 OFFCURVE",
"297 207 OFFCURVE",
"466 207 CURVE SMOOTH",
"635 207 OFFCURVE",
"741 254 OFFCURVE",
"741 432 CURVE SMOOTH",
"741 649 OFFCURVE",
"635 784 OFFCURVE",
"466 784 CURVE SMOOTH"
);
},
{
closed = 1;
nodes = (
"684 878 OFFCURVE",
"859 703 OFFCURVE",
"859 432 CURVE SMOOTH",
"859 161 OFFCURVE",
"684 -14 OFFCURVE",
"466 -14 CURVE SMOOTH",
"247 -14 OFFCURVE",
"73 159 OFFCURVE",
"73 432 CURVE SMOOTH",
"73 703 OFFCURVE",
"247 878 OFFCURVE",
"466 878 CURVE SMOOTH"
);
}
);
width = 932;
},
{
layerId = "2BF3D7EC-9255-448B-A62B-3A7110FF42CA";
name = Bold;
paths = (
{
closed = 1;
nodes = (
"248 878 OFFCURVE",
"73 703 OFFCURVE",
"73 432 CURVE SMOOTH",
"73 160 OFFCURVE",
"248 -13 OFFCURVE",
"468 -13 CURVE SMOOTH",
"687 -13 OFFCURVE",
"863 162 OFFCURVE",
"863 432 CURVE SMOOTH",
"863 703 OFFCURVE",
"687 878 OFFCURVE",
"468 878 CURVE SMOOTH"
);
},
{
closed = 1;
nodes = (
"618 750 OFFCURVE",
"712 628 OFFCURVE",
"712 432 CURVE SMOOTH",
"712 277 OFFCURVE",
"618 236 OFFCURVE",
"468 236 CURVE SMOOTH",
"318 236 OFFCURVE",
"223 277 OFFCURVE",
"223 432 CURVE SMOOTH",
"223 628 OFFCURVE",
"318 750 OFFCURVE",
"468 750 CURVE SMOOTH"
);
}
);
width = 936;
}
);
unicode = 004F;
},
{
color = 6;
glyphname = P;
lastChange = "2014-03-15 20:44:14 -0500";
layers = (
{
layerId = "6B6936E6-7670-4A82-900D-EAF583C971AF";
name = Regular;
paths = (
{
closed = 1;
nodes = (
"269 782 LINE SMOOTH",
"250 782 OFFCURVE",
"240 773 OFFCURVE",
"239 754 CURVE SMOOTH",
"230 533 LINE SMOOTH",
"229 514 OFFCURVE",
"239 504 OFFCURVE",
"258 504 CURVE SMOOTH",
"387 504 LINE SMOOTH",
"502 504 OFFCURVE",
"568 524 OFFCURVE",
"568 649 CURVE SMOOTH",
"568 725 OFFCURVE",
"502 782 OFFCURVE",
"387 782 CURVE SMOOTH"
);
},
{
closed = 1;
nodes = (
"117 832 LINE SMOOTH",
"118 851 OFFCURVE",
"128 860 OFFCURVE",
"146 860 CURVE SMOOTH",
"375 860 LINE SMOOTH",
"568 860 OFFCURVE",
"668 772 OFFCURVE",
"668 603 CURVE SMOOTH",
"668 433 OFFCURVE",
"568 334 OFFCURVE",
"375 334 CURVE SMOOTH",
"263 334 LINE SMOOTH",
"244 334 OFFCURVE",
"233 324 OFFCURVE",
"233 306 CURVE SMOOTH",
"236 28 LINE SMOOTH",
"236 9 OFFCURVE",
"225 0 OFFCURVE",
"206 0 CURVE SMOOTH",
"101 0 LINE SMOOTH",
"82 0 OFFCURVE",
"72 11 OFFCURVE",
"73 29 CURVE SMOOTH"
);
}
);
width = 741;
},
{
layerId = "2BF3D7EC-9255-448B-A62B-3A7110FF42CA";
name = Bold;
paths = (
{
closed = 1;
nodes = (
"73 48 LINE",
"74 22 OFFCURVE",
"90 0 OFFCURVE",
"119 0 CURVE SMOOTH",
"219 0 LINE SMOOTH",
"250 0 OFFCURVE",
"267 14 OFFCURVE",
"267 46 CURVE",
"264 312 LINE",
"265 315 OFFCURVE",
"268 319 OFFCURVE",
"274 319 CURVE SMOOTH",
"381 319 LINE SMOOTH",
"578 319 OFFCURVE",
"680 421 OFFCURVE",
"680 596 CURVE SMOOTH",
"680 770 OFFCURVE",
"578 860 OFFCURVE",
"381 860 CURVE SMOOTH",
"162 860 LINE SMOOTH",
"133 860 OFFCURVE",
"116 846 OFFCURVE",
"115 816 CURVE SMOOTH"
);
},
{
closed = 1;
nodes = (
"392 748 LINE SMOOTH",
"490 748 OFFCURVE",
"546 702 OFFCURVE",
"546 640 CURVE SMOOTH",
"546 536 OFFCURVE",
"490 520 OFFCURVE",
"392 520 CURVE SMOOTH",
"269 520 LINE SMOOTH",
"264 520 OFFCURVE",
"261 523 OFFCURVE",
"261 528 CURVE",
"270 739 LINE",
"270 744 OFFCURVE",
"273 748 OFFCURVE",
"279 748 CURVE SMOOTH"
);
}
);
width = 753;
}
);
unicode = 0050;
},
{
color = 6;
glyphname = Q;
lastChange = "2014-03-15 20:44:14 -0500";
layers = (
{
layerId = "6B6936E6-7670-4A82-900D-EAF583C971AF";
name = Regular;
paths = (
{
closed = 1;
nodes = (
"297 804 OFFCURVE",
"195 670 OFFCURVE",
"195 453 CURVE SMOOTH",
"195 275 OFFCURVE",
"294 254 OFFCURVE",
"363 246 CURVE",
"394 243 LINE SMOOTH",
"434 236 OFFCURVE",
"417 240 OFFCURVE",
"467 315 CURVE SMOOTH",
"476 330 OFFCURVE",
"489 334 OFFCURVE",
"506 325 CURVE SMOOTH",
"552 302 OFFCURVE",
"589 262 OFFCURVE",
"638 293 CURVE SMOOTH",
"698 334 OFFCURVE",
"712 370 OFFCURVE",
"712 453 CURVE SMOOTH",
"712 670 OFFCURVE",
"612 804 OFFCURVE",
"454 804 CURVE SMOOTH"
);
},
{
closed = 1;
nodes = (
"842 -94 LINE SMOOTH",
"860 -112 OFFCURVE",
"851 -129 OFFCURVE",
"827 -129 CURVE SMOOTH",
"640 -129 LINE SMOOTH",
"625 -129 OFFCURVE",
"614 -124 OFFCURVE",
"605 -112 CURVE SMOOTH",
"512 -7 LINE SMOOTH",
"501 4 OFFCURVE",
"490 8 OFFCURVE",
"474 8 CURVE SMOOTH",
"463 7 OFFCURVE",
"456 7 OFFCURVE",
"448 7 CURVE SMOOTH",
"214 7 OFFCURVE",
"73 181 OFFCURVE",
"73 453 CURVE SMOOTH",
"73 724 OFFCURVE",
"224 899 OFFCURVE",
"454 899 CURVE SMOOTH",
"684 899 OFFCURVE",
"835 724 OFFCURVE",
"835 453 CURVE SMOOTH",
"835 270 OFFCURVE",
"771 167 OFFCURVE",
"710 94 CURVE SMOOTH",
"698 80 OFFCURVE",
"698 67 OFFCURVE",
"711 53 CURVE SMOOTH"
);
}
);
width = 924.503;
},
{
layerId = "2BF3D7EC-9255-448B-A62B-3A7110FF42CA";
name = Bold;
paths = (
{
closed = 1;
nodes = (
"716 82 LINE",
"711 88 OFFCURVE",
"711 92 OFFCURVE",
"715 97 CURVE SMOOTH",
"776 169 OFFCURVE",
"840 272 OFFCURVE",
"840 452 CURVE SMOOTH",
"840 723 OFFCURVE",
"688 898 OFFCURVE",
"456 898 CURVE SMOOTH",
"225 898 OFFCURVE",
"73 723 OFFCURVE",
"73 452 CURVE SMOOTH",
"73 181 OFFCURVE",
"215 7 OFFCURVE",
"450 7 CURVE SMOOTH",
"458 7 OFFCURVE",
"469 7 OFFCURVE",
"477 8 CURVE",
"485 8 OFFCURVE",
"492 5 OFFCURVE",
"497 0 CURVE",
"586 -100 LINE",
"585 -99 LINE",
"598 -117 OFFCURVE",
"613 -123 OFFCURVE",
"634 -123 CURVE SMOOTH",
"813 -123 LINE SMOOTH",
"857 -123 OFFCURVE",
"872 -91 OFFCURVE",
"842 -58 CURVE SMOOTH"
);
},
{
closed = 1;
nodes = (
"596 769 OFFCURVE",
"684 648 OFFCURVE",
"684 452 CURVE SMOOTH",
"684 381 OFFCURVE",
"672 350 OFFCURVE",
"622 315 CURVE",
"623 315 LINE",
"614 310 OFFCURVE",
"605 308 OFFCURVE",
"598 308 CURVE SMOOTH",
"581 308 OFFCURVE",
"561 319 OFFCURVE",
"544 330 CURVE",
"536 336 OFFCURVE",
"523 342 OFFCURVE",
"515 347 CURVE",
"488 361 OFFCURVE",
"468 355 OFFCURVE",
"452 330 CURVE",
"452 331 LINE",
"438 309 OFFCURVE",
"428 292 OFFCURVE",
"422 281 CURVE SMOOTH",
"415 269 OFFCURVE",
"415 269 OFFCURVE",
"402 271 CURVE",
"371 273 LINE",
"312 280 OFFCURVE",
"228 302 OFFCURVE",
"228 452 CURVE SMOOTH",
"228 648 OFFCURVE",
"318 769 OFFCURVE",
"456 769 CURVE SMOOTH"
);
}
);
width = 930.653;
}
);
leftKerningGroup = Round;
unicode = 0051;
},
{
color = 6;
glyphname = R;
lastChange = "2014-03-15 20:44:14 -0500";
layers = (
{
anchors = (
{
name = bottom;
position = "{374, 0}";
},
{
name = top;
position = "{374, 729}";
}
);
layerId = "6B6936E6-7670-4A82-900D-EAF583C971AF";
name = Regular;
paths = (
{
closed = 1;
nodes = (
"560 365 OFFCURVE",
"609 314 OFFCURVE",
"649 235 CURVE SMOOTH",
"749 34 LINE SMOOTH",
"760 14 OFFCURVE",
"752 0 OFFCURVE",
"729 0 CURVE SMOOTH",
"614 0 LINE SMOOTH",
"597 0 OFFCURVE",
"586 7 OFFCURVE",
"580 22 CURVE SMOOTH",
"503 221 LINE",
"446 336 OFFCURVE",
"402 363 OFFCURVE",
"310 363 CURVE SMOOTH",
"241 363 LINE SMOOTH",
"223 363 OFFCURVE",
"211 354 OFFCURVE",
"212 335 CURVE SMOOTH",
"236 28 LINE SMOOTH",
"237 11 OFFCURVE",
"226 0 OFFCURVE",
"208 0 CURVE SMOOTH",
"101 0 LINE SMOOTH",
"84 0 OFFCURVE",
"73 11 OFFCURVE",
"73 28 CURVE SMOOTH",
"85 832 LINE SMOOTH",
"85 851 OFFCURVE",
"94 860 OFFCURVE",
"113 860 CURVE SMOOTH",
"348 860 LINE SMOOTH",
"521 860 OFFCURVE",
"623 779 OFFCURVE",
"623 612 CURVE SMOOTH",
"623 517 OFFCURVE",
"585 450 OFFCURVE",
"521 415 CURVE SMOOTH",
"504 406 OFFCURVE",
"504 400 OFFCURVE",
"520 391 CURVE SMOOTH"
);
},
{
closed = 1;
nodes = (
"242 782 LINE SMOOTH",
"223 782 OFFCURVE",
"213 772 OFFCURVE",
"212 754 CURVE SMOOTH",
"201 532 LINE SMOOTH",
"199 513 OFFCURVE",
"211 504 OFFCURVE",
"230 504 CURVE SMOOTH",
"359 504 LINE SMOOTH",
"448 504 OFFCURVE",
"539 546 OFFCURVE",
"539 616 CURVE SMOOTH",
"539 747 OFFCURVE",
"448 782 OFFCURVE",
"359 782 CURVE SMOOTH"
);
}
);
width = 826.878;
},
{
layerId = "2BF3D7EC-9255-448B-A62B-3A7110FF42CA";
name = Bold;
paths = (
{
closed = 1;
nodes = (
"529 399 LINE",
"533 401 LINE"
);
},
{
closed = 1;
nodes = (
"637 776 OFFCURVE",
"533 860 OFFCURVE",
"355 860 CURVE SMOOTH",
"130 860 LINE SMOOTH",
"99 860 OFFCURVE",
"84 846 OFFCURVE",
"84 815 CURVE SMOOTH",
"73 46 LINE SMOOTH",
"73 18 OFFCURVE",
"91 0 OFFCURVE",
"119 0 CURVE SMOOTH",
"221 0 LINE SMOOTH",
"251 0 OFFCURVE",
"269 18 OFFCURVE",
"267 47 CURVE SMOOTH",
"244 341 LINE",
"245 345 OFFCURVE",
"248 347 OFFCURVE",
"253 347 CURVE SMOOTH",
"318 347 LINE SMOOTH",
"397 347 OFFCURVE",
"434 324 OFFCURVE",
"485 224 CURVE",
"558 33 LINE",
"568 11 OFFCURVE",
"583 0 OFFCURVE",
"609 0 CURVE SMOOTH",
"719 0 LINE SMOOTH",
"760 0 OFFCURVE",
"775 25 OFFCURVE",
"755 61 CURVE",
"755 60 LINE",
"660 252 LINE SMOOTH",
"623 326 OFFCURVE",
"577 377 OFFCURVE",
"537 403 CURVE",
"601 442 OFFCURVE",
"637 510 OFFCURVE",
"637 604 CURVE SMOOTH"
);
},
{
closed = 1;
nodes = (
"365 748 LINE SMOOTH",
"441 748 OFFCURVE",
"518 718 OFFCURVE",
"518 608 CURVE SMOOTH",
"518 553 OFFCURVE",
"441 520 OFFCURVE",
"365 520 CURVE SMOOTH",
"242 520 LINE SMOOTH",
"236 520 OFFCURVE",
"232 522 OFFCURVE",
"233 526 CURVE",
"236 597 OFFCURVE",
"241 668 OFFCURVE",
"244 739 CURVE",
"244 745 OFFCURVE",
"247 748 OFFCURVE",
"253 748 CURVE SMOOTH"
);
}
);
width = 836.794;
}
);
unicode = 0052;
},
{
color = 6;
glyphname = S;
lastChange = "2014-03-15 20:44:14 -0500";
layers = (
{
anchors = (
{
name = bottom;
position = "{386, -8}";
},
{
name = top;
position = "{386, 848}";
}
);
layerId = "6B6936E6-7670-4A82-900D-EAF583C971AF";
name = Regular;
paths = (
{
closed = 1;
nodes = (
"648 758 LINE SMOOTH",
"643 736 OFFCURVE",
"622 727 OFFCURVE",
"602 736 CURVE SMOOTH",
"528 768 OFFCURVE",
"473 785 OFFCURVE",
"410 785 CURVE SMOOTH",
"283 785 OFFCURVE",
"211 733 OFFCURVE",
"211 642 CURVE SMOOTH",
"211 567 OFFCURVE",
"248 532 OFFCURVE",
"375 509 CURVE SMOOTH",
"446 495 LINE SMOOTH",
"620 462 OFFCURVE",
"700 380 OFFCURVE",
"700 240 CURVE SMOOTH",
"700 73 OFFCURVE",
"587 -14 OFFCURVE",
"371 -14 CURVE SMOOTH",
"295 -14 OFFCURVE",
"187 1 OFFCURVE",
"98 32 CURVE SMOOTH",
"82 38 OFFCURVE",
"72 49 OFFCURVE",
"73 65 CURVE SMOOTH",
"85 209 LINE SMOOTH",
"87 231 OFFCURVE",
"100 240 OFFCURVE",
"120 229 CURVE SMOOTH",
"202 188 OFFCURVE",
"306 168 OFFCURVE",
"382 168 CURVE SMOOTH",
"530 168 OFFCURVE",
"555 236 OFFCURVE",
"555 272 CURVE SMOOTH",
"555 318 OFFCURVE",
"530 360 OFFCURVE",
"412 384 CURVE SMOOTH",
"341 398 LINE SMOOTH",
"168 432 OFFCURVE",
"93 502 OFFCURVE",
"93 633 CURVE SMOOTH",
"93 785 OFFCURVE",
"208 878 OFFCURVE",
"397 878 CURVE SMOOTH",
"470 878 OFFCURVE",
"557 866 OFFCURVE",
"636 841 CURVE SMOOTH",
"653 838 OFFCURVE",
"663 826 OFFCURVE",
"660 810 CURVE SMOOTH"
);
}
);
width = 773;
},
{
layerId = "2BF3D7EC-9255-448B-A62B-3A7110FF42CA";
name = Bold;
paths = (
{
closed = 1;
nodes = (
"672 790 LINE",
"677 816 OFFCURVE",
"660 837 OFFCURVE",
"633 842 CURVE",
"557 866 OFFCURVE",
"473 878 OFFCURVE",
"402 878 CURVE SMOOTH",
"210 878 OFFCURVE",
"92 781 OFFCURVE",
"92 624 CURVE SMOOTH",
"92 488 OFFCURVE",
"169 415 OFFCURVE",
"345 381 CURVE SMOOTH",
"367 377 OFFCURVE",
"391 371 OFFCURVE",
"413 367 CURVE SMOOTH",
"506 347 OFFCURVE",
"534 314 OFFCURVE",
"534 279 CURVE SMOOTH",
"534 251 OFFCURVE",
"513 199 OFFCURVE",
"388 199 CURVE SMOOTH",
"318 199 OFFCURVE",
"221 217 OFFCURVE",
"146 255 CURVE",
"147 255 LINE",
"111 274 OFFCURVE",
"88 259 OFFCURVE",
"85 221 CURVE SMOOTH",
"73 82 LINE",
"72 57 OFFCURVE",
"86 40 OFFCURVE",
"109 32 CURVE SMOOTH",
"196 1 OFFCURVE",
"303 -13 OFFCURVE",
"377 -13 CURVE SMOOTH",
"596 -13 OFFCURVE",
"711 76 OFFCURVE",
"711 249 CURVE SMOOTH",
"711 393 OFFCURVE",
"630 478 OFFCURVE",
"452 511 CURVE SMOOTH",
"430 515 OFFCURVE",
"407 521 OFFCURVE",
"385 525 CURVE SMOOTH",
"282 545 OFFCURVE",
"243 575 OFFCURVE",
"243 633 CURVE SMOOTH",
"243 707 OFFCURVE",
"305 750 OFFCURVE",
"414 750 CURVE SMOOTH",
"470 750 OFFCURVE",
"525 733 OFFCURVE",
"590 706 CURVE SMOOTH",
"621 692 OFFCURVE",
"653 706 OFFCURVE",
"661 740 CURVE",
"660 739 LINE"
);
}
);
width = 784;
}
);
unicode = 0053;
},
{
color = 6;
glyphname = T;
lastChange = "2014-03-15 20:44:14 -0500";
layers = (
{
anchors = (
{
name = bottom;
position = "{426, 0}";
},
{
name = center;
position = "{452, 365}";
},
{
name = top;
position = "{452, 837}";
}
);
layerId = "6B6936E6-7670-4A82-900D-EAF583C971AF";
name = Regular;
paths = (
{
closed = 1;
nodes = (
"73 832 LINE SMOOTH",
"73 851 OFFCURVE",
"83 860 OFFCURVE",
"102 860 CURVE SMOOTH",
"772 860 LINE SMOOTH",
"792 860 OFFCURVE",
"802 850 OFFCURVE",
"802 832 CURVE SMOOTH",
"802 792 LINE SMOOTH",
"802 773 OFFCURVE",
"791 762 OFFCURVE",
"772 763 CURVE SMOOTH",
"525 773 LINE SMOOTH",
"507 773 OFFCURVE",
"496 763 OFFCURVE",
"497 743 CURVE SMOOTH",
"525 29 LINE SMOOTH",
"527 11 OFFCURVE",
"517 0 OFFCURVE",
"498 0 CURVE SMOOTH",
"379 0 LINE SMOOTH",
"360 0 OFFCURVE",
"351 11 OFFCURVE",
"351 29 CURVE SMOOTH",
"378 743 LINE SMOOTH",
"378 763 OFFCURVE",
"368 773 OFFCURVE",
"350 773 CURVE SMOOTH",
"103 763 LINE SMOOTH",
"83 762 OFFCURVE",
"73 773 OFFCURVE",
"73 792 CURVE SMOOTH"
);
}
);
width = 875;
},
{
layerId = "2BF3D7EC-9255-448B-A62B-3A7110FF42CA";
name = Bold;
paths = (
{
closed = 1;
nodes = (
"73 776 LINE SMOOTH",
"73 746 OFFCURVE",
"90 728 OFFCURVE",
"122 729 CURVE SMOOTH",
"358 739 LINE",
"362 738 OFFCURVE",
"365 735 OFFCURVE",
"365 730 CURVE",
"339 47 LINE",
"339 18 OFFCURVE",
"353 0 OFFCURVE",
"385 0 CURVE SMOOTH",
"499 0 LINE SMOOTH",
"531 0 OFFCURVE",
"547 18 OFFCURVE",
"544 49 CURVE",
"544 48 LINE",
"517 730 LINE",
"517 735 OFFCURVE",
"519 738 OFFCURVE",
"524 739 CURVE",
"760 729 LINE SMOOTH",
"790 728 OFFCURVE",
"808 746 OFFCURVE",
"808 776 CURVE SMOOTH",
"808 815 LINE SMOOTH",
"808 844 OFFCURVE",
"792 860 OFFCURVE",
"761 860 CURVE SMOOTH",
"120 860 LINE SMOOTH",
"90 860 OFFCURVE",
"73 846 OFFCURVE",
"73 815 CURVE SMOOTH"
);
}
);
width = 881;
}
);
unicode = 0054;
},
{
color = 6;
glyphname = U;
lastChange = "2014-03-15 20:44:14 -0500";
layers = (
{
anchors = (
{
name = hookabovecomb;
position = "{408, 867}";
},
{
name = horn;
position = "{710, 727}";
},
{
name = ogonek;
position = "{417, 3}";
},
{
name = top;
position = "{408, 863}";
}
);
layerId = "6B6936E6-7670-4A82-900D-EAF583C971AF";
name = Regular;
paths = (
{
closed = 1;
nodes = (
"73 834 LINE SMOOTH",
"73 853 OFFCURVE",
"82 863 OFFCURVE",
"101 863 CURVE SMOOTH",
"167 863 LINE SMOOTH",
"186 863 OFFCURVE",
"196 852 OFFCURVE",
"196 833 CURVE SMOOTH",
"191 420 LINE SMOOTH",
"190 282 OFFCURVE",
"259 207 OFFCURVE",
"409 207 CURVE SMOOTH",
"558 207 OFFCURVE",
"627 282 OFFCURVE",
"626 420 CURVE SMOOTH",
"622 833 LINE SMOOTH",
"622 852 OFFCURVE",
"631 863 OFFCURVE",
"650 863 CURVE SMOOTH",
"715 863 LINE SMOOTH",
"734 863 OFFCURVE",
"743 852 OFFCURVE",
"743 834 CURVE SMOOTH",
"738 326 LINE SMOOTH",
"736 102 OFFCURVE",
"625 -14 OFFCURVE",
"409 -14 CURVE SMOOTH",
"192 -14 OFFCURVE",
"81 102 OFFCURVE",
"79 326 CURVE SMOOTH"
);
}
);
width = 816;
},
{
layerId = "2BF3D7EC-9255-448B-A62B-3A7110FF42CA";
name = Bold;
paths = (
{
closed = 1;
nodes = (
"78 331 LINE SMOOTH",
"80 104 OFFCURVE",
"193 -13 OFFCURVE",
"413 -13 CURVE SMOOTH",
"632 -13 OFFCURVE",
"745 104 OFFCURVE",
"747 331 CURVE SMOOTH",
"751 816 LINE SMOOTH",
"751 845 OFFCURVE",
"737 863 OFFCURVE",
"706 863 CURVE SMOOTH",
"643 863 LINE SMOOTH",
"612 863 OFFCURVE",
"598 846 OFFCURVE",
"598 816 CURVE SMOOTH",
"601 421 LINE SMOOTH",
"602 301 OFFCURVE",
"542 236 OFFCURVE",
"413 236 CURVE SMOOTH",
"283 236 OFFCURVE",
"223 301 OFFCURVE",
"224 421 CURVE SMOOTH",
"228 816 LINE SMOOTH",
"228 846 OFFCURVE",
"212 863 OFFCURVE",
"182 863 CURVE SMOOTH",
"119 863 LINE SMOOTH",
"87 863 OFFCURVE",
"73 847 OFFCURVE",
"73 816 CURVE SMOOTH"
);
}
);
width = 824;
}
);
unicode = 0055;
},
{
color = 6;
glyphname = V;
lastChange = "2014-03-15 20:44:14 -0500";
layers = (
{
layerId = "6B6936E6-7670-4A82-900D-EAF583C971AF";
name = Regular;
paths = (
{
closed = 1;
nodes = (
"360 0 LINE SMOOTH",
"343 0 OFFCURVE",
"331 7 OFFCURVE",
"327 24 CURVE SMOOTH",
"75 827 LINE SMOOTH",
"68 847 OFFCURVE",
"78 860 OFFCURVE",
"99 860 CURVE SMOOTH",
"162 860 LINE SMOOTH",
"178 860 OFFCURVE",
"189 853 OFFCURVE",
"195 838 CURVE SMOOTH",
"410 262 LINE SMOOTH",
"419 238 OFFCURVE",
"439 238 OFFCURVE",
"448 262 CURVE SMOOTH",
"665 838 LINE SMOOTH",
"670 853 OFFCURVE",
"682 860 OFFCURVE",
"698 860 CURVE SMOOTH",
"760 860 LINE SMOOTH",
"781 860 OFFCURVE",
"789 847 OFFCURVE",
"783 827 CURVE SMOOTH",
"533 24 LINE SMOOTH",
"527 7 OFFCURVE",
"517 0 OFFCURVE",
"500 0 CURVE SMOOTH"
);
}
);
width = 857.939;
},
{
layerId = "2BF3D7EC-9255-448B-A62B-3A7110FF42CA";
name = Bold;
paths = (
{
closed = 1;
nodes = (
"501 0 LINE SMOOTH",
"527 0 OFFCURVE",
"543 11 OFFCURVE",
"551 35 CURVE SMOOTH",
"790 804 LINE SMOOTH",
"801 838 OFFCURVE",
"786 860 OFFCURVE",
"750 860 CURVE SMOOTH",
"691 860 LINE SMOOTH",
"667 860 OFFCURVE",
"649 850 OFFCURVE",
"641 826 CURVE",
"641 827 LINE",
"434 276 LINE",
"228 827 LINE",
"218 850 OFFCURVE",
"202 860 OFFCURVE",
"178 860 CURVE SMOOTH",
"118 860 LINE SMOOTH",
"83 860 OFFCURVE",
"65 837 OFFCURVE",
"77 803 CURVE",
"77 804 LINE",
"318 36 LINE",
"318 37 LINE",
"324 11 OFFCURVE",
"342 0 OFFCURVE",
"368 0 CURVE SMOOTH"
);
}
);
width = 866.539;
}
);
unicode = 0056;
},
{
color = 6;
glyphname = W;
lastChange = "2014-03-15 20:44:14 -0500";
layers = (
{
anchors = (
{
name = top;
position = "{610, 729}";
}
);
layerId = "6B6936E6-7670-4A82-900D-EAF583C971AF";
name = Regular;
paths = (
{
closed = 1;
nodes = (
"74 828 LINE SMOOTH",
"69 848 OFFCURVE",
"80 860 OFFCURVE",
"100 860 CURVE SMOOTH",
"154 860 LINE SMOOTH",
"171 860 OFFCURVE",
"180 852 OFFCURVE",
"186 835 CURVE SMOOTH",
"379 287 LINE SMOOTH",
"387 262 OFFCURVE",
"403 258 OFFCURVE",
"418 283 CURVE SMOOTH",
"545 523 LINE SMOOTH",
"552 537 OFFCURVE",
"564 543 OFFCURVE",
"579 543 CURVE SMOOTH",
"635 543 LINE SMOOTH",
"651 543 OFFCURVE",
"662 537 OFFCURVE",
"669 523 CURVE SMOOTH",
"783 280 LINE SMOOTH",
"795 255 OFFCURVE",
"810 256 OFFCURVE",
"821 282 CURVE SMOOTH",
"1045 835 LINE SMOOTH",
"1052 852 OFFCURVE",
"1061 860 OFFCURVE",
"1078 860 CURVE SMOOTH",
"1133 860 LINE SMOOTH",
"1153 860 OFFCURVE",
"1164 848 OFFCURVE",
"1159 828 CURVE SMOOTH",
"917 25 LINE SMOOTH",
"912 8 OFFCURVE",
"901 0 OFFCURVE",
"885 0 CURVE SMOOTH",
"764 0 LINE SMOOTH",
"748 0 OFFCURVE",
"738 7 OFFCURVE",
"731 22 CURVE SMOOTH",
"629 250 LINE SMOOTH",
"618 276 OFFCURVE",
"604 276 OFFCURVE",
"592 250 CURVE SMOOTH",
"485 21 LINE SMOOTH",
"478 6 OFFCURVE",
"467 0 OFFCURVE",
"451 0 CURVE SMOOTH",
"320 0 LINE SMOOTH",
"302 0 OFFCURVE",
"292 8 OFFCURVE",
"288 26 CURVE SMOOTH"
);
}
);
width = 1233.2;
},
{
layerId = "2BF3D7EC-9255-448B-A62B-3A7110FF42CA";
name = Bold;
paths = (
{
closed = 1;
nodes = (
"280 39 LINE",
"279 40 LINE",
"284 12 OFFCURVE",
"300 0 OFFCURVE",
"328 0 CURVE SMOOTH",
"454 0 LINE SMOOTH",
"478 0 OFFCURVE",
"493 10 OFFCURVE",
"503 32 CURVE SMOOTH",
"536 102 OFFCURVE",
"573 180 OFFCURVE",
"606 250 CURVE",
"606 251 LINE",
"606 250 OFFCURVE",
"607 250 OFFCURVE",
"607 250 CURVE",
"704 33 LINE",
"715 11 OFFCURVE",
"730 0 OFFCURVE",
"753 0 CURVE SMOOTH",
"869 0 LINE SMOOTH",
"893 0 OFFCURVE",
"910 14 OFFCURVE",
"917 37 CURVE SMOOTH",
"1149 805 LINE",
"1157 839 OFFCURVE",
"1139 860 OFFCURVE",
"1106 860 CURVE SMOOTH",
"1053 860 LINE SMOOTH",
"1027 860 OFFCURVE",
"1014 849 OFFCURVE",
"1003 824 CURVE SMOOTH",
"789 295 LINE",
"790 296 LINE",
"789 294 OFFCURVE",
"789 294 OFFCURVE",
"788 295 CURVE",
"788 294 LINE",
"679 527 LINE SMOOTH",
"669 548 OFFCURVE",
"653 557 OFFCURVE",
"630 557 CURVE SMOOTH",
"576 557 LINE SMOOTH",
"554 557 OFFCURVE",
"537 549 OFFCURVE",
"526 528 CURVE SMOOTH",
"488 454 OFFCURVE",
"443 372 OFFCURVE",
"405 298 CURVE",
"404 297 OFFCURVE",
"404 297 OFFCURVE",
"403 299 CURVE",
"403 300 LINE",
"219 824 LINE SMOOTH",
"210 849 OFFCURVE",
"197 860 OFFCURVE",
"170 860 CURVE SMOOTH",
"118 860 LINE SMOOTH",
"85 860 OFFCURVE",
"67 840 OFFCURVE",
"75 806 CURVE SMOOTH"
);
}
);
width = 1223.89;
}
);
unicode = 0057;
},
{
color = 6;
glyphname = X;
lastChange = "2014-03-15 20:44:14 -0500";
layers = (
{
layerId = "6B6936E6-7670-4A82-900D-EAF583C971AF";
name = Regular;
paths = (
{
closed = 1;
nodes = (
"125 826 LINE SMOOTH",
"115 846 OFFCURVE",
"123 860 OFFCURVE",
"145 860 CURVE SMOOTH",
"208 860 LINE SMOOTH",
"224 860 OFFCURVE",
"235 854 OFFCURVE",
"243 840 CURVE SMOOTH",
"424 529 LINE SMOOTH",
"436 509 OFFCURVE",
"452 509 OFFCURVE",
"464 529 CURVE SMOOTH",
"646 840 LINE SMOOTH",
"654 854 OFFCURVE",
"665 860 OFFCURVE",
"681 860 CURVE SMOOTH",
"743 860 LINE SMOOTH",
"766 860 OFFCURVE",
"774 846 OFFCURVE",
"763 826 CURVE SMOOTH",
"531 421 LINE SMOOTH",
"523 406 OFFCURVE",
"522 395 OFFCURVE",
"532 381 CURVE SMOOTH",
"790 35 LINE SMOOTH",
"804 17 OFFCURVE",
"796 0 OFFCURVE",
"772 0 CURVE SMOOTH",
"637 0 LINE SMOOTH",
"621 0 OFFCURVE",
"610 6 OFFCURVE",
"602 20 CURVE SMOOTH",
"455 262 LINE SMOOTH",
"443 281 OFFCURVE",
"427 281 OFFCURVE",
"416 262 CURVE SMOOTH",
"267 20 LINE SMOOTH",
"259 6 OFFCURVE",
"248 0 OFFCURVE",
"232 0 CURVE SMOOTH",
"98 0 LINE SMOOTH",
"73 0 OFFCURVE",
"65 15 OFFCURVE",
"81 35 CURVE SMOOTH",
"347 382 LINE SMOOTH",
"357 395 OFFCURVE",
"358 408 OFFCURVE",
"350 422 CURVE SMOOTH"
);
}
);
width = 869.889;
},
{
layerId = "2BF3D7EC-9255-448B-A62B-3A7110FF42CA";
name = Bold;
paths = (
{
closed = 1;
nodes = (
"342 413 LINE",
"345 407 OFFCURVE",
"345 402 OFFCURVE",
"340 396 CURVE",
"86 64 LINE SMOOTH",
"61 30 OFFCURVE",
"73 0 OFFCURVE",
"117 0 CURVE SMOOTH",
"245 0 LINE SMOOTH",
"267 0 OFFCURVE",
"284 10 OFFCURVE",
"295 29 CURVE SMOOTH",
"438 260 LINE",
"438 262 OFFCURVE",
"440 262 OFFCURVE",
"442 259 CURVE",
"442 260 LINE",
"583 29 LINE SMOOTH",
"594 10 OFFCURVE",
"611 0 OFFCURVE",
"633 0 CURVE SMOOTH",
"762 0 LINE SMOOTH",
"805 0 OFFCURVE",
"817 32 OFFCURVE",
"794 64 CURVE SMOOTH",
"547 395 LINE",
"545 401 OFFCURVE",
"545 406 OFFCURVE",
"547 412 CURVE",
"769 799 LINE SMOOTH",
"789 836 OFFCURVE",
"774 860 OFFCURVE",
"734 860 CURVE SMOOTH",
"675 860 LINE SMOOTH",
"653 860 OFFCURVE",
"636 851 OFFCURVE",
"625 832 CURVE SMOOTH",
"451 534 LINE",
"449 533 OFFCURVE",
"447 533 OFFCURVE",
"445 534 CURVE",
"272 832 LINE SMOOTH",
"261 851 OFFCURVE",
"244 860 OFFCURVE",
"222 860 CURVE SMOOTH",
"162 860 LINE SMOOTH",
"122 860 OFFCURVE",
"108 836 OFFCURVE",
"126 799 CURVE"
);
}
);
width = 878.482;
}
);
unicode = 0058;
},
{
color = 6;
glyphname = Y;
lastChange = "2014-03-15 20:44:14 -0500";
layers = (
{
anchors = (
{
name = hookabovecomb;
position = "{429, 709}";
},
{
name = top;
position = "{422, 817}";
}
);
layerId = "6B6936E6-7670-4A82-900D-EAF583C971AF";
name = Regular;
paths = (
{
closed = 1;
nodes = (
"77 826 LINE SMOOTH",
"67 846 OFFCURVE",
"76 860 OFFCURVE",
"98 860 CURVE SMOOTH",
"163 860 LINE SMOOTH",
"178 860 OFFCURVE",
"189 854 OFFCURVE",
"196 840 CURVE SMOOTH",
"405 457 LINE SMOOTH",
"415 437 OFFCURVE",
"433 437 OFFCURVE",
"444 457 CURVE SMOOTH",
"650 840 LINE SMOOTH",
"657 854 OFFCURVE",
"668 860 OFFCURVE",
"683 860 CURVE SMOOTH",
"748 860 LINE SMOOTH",
"771 860 OFFCURVE",
"779 846 OFFCURVE",
"768 826 CURVE SMOOTH",
"508 312 LINE SMOOTH",
"502 299 OFFCURVE",
"498 289 OFFCURVE",
"499 275 CURVE SMOOTH",
"523 28 LINE SMOOTH",
"524 11 OFFCURVE",
"512 0 OFFCURVE",
"493 0 CURVE SMOOTH",
"347 0 LINE SMOOTH",
"328 0 OFFCURVE",
"315 9 OFFCURVE",
"318 28 CURVE SMOOTH",
"341 275 LINE SMOOTH",
"342 289 OFFCURVE",
"339 299 OFFCURVE",
"333 312 CURVE SMOOTH"
);
}
);
width = 845.878;
},
{
layerId = "2BF3D7EC-9255-448B-A62B-3A7110FF42CA";
name = Bold;
paths = (
{
closed = 1;
nodes = (
"324 310 LINE",
"328 301 OFFCURVE",
"331 293 OFFCURVE",
"330 283 CURVE SMOOTH",
"324 205 OFFCURVE",
"315 126 OFFCURVE",
"308 48 CURVE",
"308 49 LINE",
"303 15 OFFCURVE",
"324 0 OFFCURVE",
"355 0 CURVE SMOOTH",
"495 0 LINE SMOOTH",
"524 0 OFFCURVE",
"544 18 OFFCURVE",
"542 47 CURVE SMOOTH",
"520 284 LINE",
"520 292 OFFCURVE",
"522 302 OFFCURVE",
"526 310 CURVE",
"526 309 LINE",
"775 800 LINE",
"775 799 LINE",
"795 836 OFFCURVE",
"780 860 OFFCURVE",
"738 860 CURVE SMOOTH",
"676 860 LINE SMOOTH",
"654 860 OFFCURVE",
"638 852 OFFCURVE",
"628 831 CURVE",
"431 465 LINE",
"431 466 LINE",
"430 464 OFFCURVE",
"429 464 OFFCURVE",
"428 465 CURVE",
"228 832 LINE",
"228 831 LINE",
"217 852 OFFCURVE",
"201 860 OFFCURVE",
"179 860 CURVE SMOOTH",
"117 860 LINE SMOOTH",
"79 860 OFFCURVE",
"63 835 OFFCURVE",
"80 800 CURVE SMOOTH"
);
}
);
width = 856.768;
}
);
unicode = 0059;
},
{
color = 6;
glyphname = Z;
lastChange = "2014-03-15 20:44:14 -0500";
layers = (
{
anchors = (
{
name = top;
position = "{450, 839}";
}
);
layerId = "6B6936E6-7670-4A82-900D-EAF583C971AF";
name = Regular;
paths = (
{
closed = 1;
nodes = (
"75 832 LINE SMOOTH",
"75 851 OFFCURVE",
"84 860 OFFCURVE",
"103 860 CURVE SMOOTH",
"769 860 LINE SMOOTH",
"788 860 OFFCURVE",
"798 850 OFFCURVE",
"798 832 CURVE SMOOTH",
"798 792 LINE SMOOTH",
"798 778 OFFCURVE",
"794 768 OFFCURVE",
"784 756 CURVE SMOOTH",
"333 236 LINE SMOOTH",
"318 217 OFFCURVE",
"324 201 OFFCURVE",
"349 201 CURVE SMOOTH",
"752 201 LINE SMOOTH",
"771 201 OFFCURVE",
"782 191 OFFCURVE",
"782 172 CURVE SMOOTH",
"782 28 LINE SMOOTH",
"782 11 OFFCURVE",
"771 0 OFFCURVE",
"752 0 CURVE SMOOTH",
"101 0 LINE SMOOTH",
"83 0 OFFCURVE",
"73 11 OFFCURVE",
"73 28 CURVE SMOOTH",
"73 171 LINE SMOOTH",
"73 186 OFFCURVE",
"77 196 OFFCURVE",
"87 206 CURVE SMOOTH",
"573 727 LINE SMOOTH",
"591 746 OFFCURVE",
"584 762 OFFCURVE",
"558 762 CURVE SMOOTH",
"103 762 LINE SMOOTH",
"84 762 OFFCURVE",
"75 773 OFFCURVE",
"75 791 CURVE SMOOTH"
);
}
);
width = 871;
},
{
layerId = "2BF3D7EC-9255-448B-A62B-3A7110FF42CA";
name = Bold;
paths = (
{
closed = 1;
nodes = (
"75 775 LINE SMOOTH",
"75 747 OFFCURVE",
"89 729 OFFCURVE",
"121 729 CURVE SMOOTH",
"556 729 LINE SMOOTH",
"557 729 OFFCURVE",
"557 729 OFFCURVE",
"556 728 CURVE",
"91 229 LINE",
"92 229 LINE",
"79 216 OFFCURVE",
"73 203 OFFCURVE",
"73 183 CURVE SMOOTH",
"73 46 LINE SMOOTH",
"73 18 OFFCURVE",
"89 0 OFFCURVE",
"119 0 CURVE SMOOTH",
"742 0 LINE SMOOTH",
"772 0 OFFCURVE",
"789 18 OFFCURVE",
"789 46 CURVE SMOOTH",
"789 184 LINE SMOOTH",
"789 214 OFFCURVE",
"772 230 OFFCURVE",
"742 230 CURVE SMOOTH",
"356 230 LINE SMOOTH",
"355 230 OFFCURVE",
"355 231 OFFCURVE",
"356 233 CURVE",
"355 232 LINE",
"786 729 LINE SMOOTH",
"799 745 OFFCURVE",
"805 758 OFFCURVE",
"805 776 CURVE SMOOTH",
"805 815 LINE SMOOTH",
"805 844 OFFCURVE",
"788 860 OFFCURVE",
"758 860 CURVE SMOOTH",
"121 860 LINE SMOOTH",
"89 860 OFFCURVE",
"75 846 OFFCURVE",
"75 815 CURVE SMOOTH"
);
}
);
width = 878;
}
);
unicode = 005A;
},
{
glyphname = bracketleft;
lastChange = "2014-03-15 20:44:14 -0500";
layers = (
{
layerId = "6B6936E6-7670-4A82-900D-EAF583C971AF";
name = Regular;
paths = (
{
closed = 1;
nodes = (
"91 955 LINE SMOOTH",
"91 967 OFFCURVE",
"97 973 OFFCURVE",
"109 973 CURVE SMOOTH",
"318 969 LINE SMOOTH",
"330 969 OFFCURVE",
"336 963 OFFCURVE",
"336 951 CURVE SMOOTH",
"335 904 LINE SMOOTH",
"335 892 OFFCURVE",
"329 886 OFFCURVE",
"317 886 CURVE SMOOTH",
"214 888 LINE SMOOTH",
"202 888 OFFCURVE",
"197 882 OFFCURVE",
"197 870 CURVE SMOOTH",
"183 -24 LINE SMOOTH",
"183 -36 OFFCURVE",
"187 -42 OFFCURVE",
"199 -42 CURVE SMOOTH",
"302 -44 LINE SMOOTH",
"314 -44 OFFCURVE",
"320 -49 OFFCURVE",
"320 -61 CURVE SMOOTH",
"318 -196 LINE SMOOTH",
"318 -208 OFFCURVE",
"312 -214 OFFCURVE",
"300 -214 CURVE SMOOTH",
"91 -210 LINE SMOOTH",
"79 -210 OFFCURVE",
"73 -204 OFFCURVE",
"73 -192 CURVE SMOOTH"
);
}
);
width = 409;
},
{
layerId = "2BF3D7EC-9255-448B-A62B-3A7110FF42CA";
name = Bold;
paths = (
{
closed = 1;
nodes = (
"73 -164 LINE SMOOTH",
"73 -188 OFFCURVE",
"86 -201 OFFCURVE",
"109 -201 CURVE SMOOTH",
"309 -205 LINE SMOOTH",
"333 -205 OFFCURVE",
"346 -192 OFFCURVE",
"346 -168 CURVE SMOOTH",
"348 -39 LINE SMOOTH",
"348 -14 OFFCURVE",
"335 -4 OFFCURVE",
"311 -4 CURVE SMOOTH",
"217 -2 LINE",
"230 849 LINE",
"326 847 LINE SMOOTH",
"349 847 OFFCURVE",
"362 859 OFFCURVE",
"362 883 CURVE SMOOTH",
"363 928 LINE SMOOTH",
"363 952 OFFCURVE",
"350 965 OFFCURVE",
"327 965 CURVE SMOOTH",
"127 968 LINE SMOOTH",
"104 968 OFFCURVE",
"91 954 OFFCURVE",
"90 932 CURVE SMOOTH"
);
}
);
width = 436;
}
);
unicode = 005B;
},
{
glyphname = backslash;
lastChange = "2014-03-15 20:44:14 -0500";
layers = (
{
components = (
{
name = slash;
transform = "{-1, 0, 0, 1, 619, 0}";
}
);
layerId = "6B6936E6-7670-4A82-900D-EAF583C971AF";
name = Regular;
width = 619.376;
},
{
layerId = "2BF3D7EC-9255-448B-A62B-3A7110FF42CA";
name = Bold;
paths = (
{
closed = 1;
nodes = (
"181 839 LINE SMOOTH",
"172 859 OFFCURVE",
"160 869 OFFCURVE",
"138 869 CURVE",
"115 868 LINE",
"82 868 OFFCURVE",
"64 847 OFFCURVE",
"77 815 CURVE",
"76 816 LINE",
"184 538 OFFCURVE",
"312 217 OFFCURVE",
"420 -60 CURVE",
"427 -80 OFFCURVE",
"443 -92 OFFCURVE",
"464 -92 CURVE SMOOTH",
"524 -90 LINE SMOOTH",
"557 -88 OFFCURVE",
"573 -68 OFFCURVE",
"560 -35 CURVE SMOOTH"
);
}
);
width = 637.516;
}
);
unicode = 005C;
},
{
glyphname = bracketright;
lastChange = "2014-03-15 20:44:14 -0500";
layers = (
{
components = (
{
disableAlignment = 1;
name = bracketleft;
transform = "{-1, 0, 0, 1, 409, 0}";
}
);
layerId = "6B6936E6-7670-4A82-900D-EAF583C971AF";
name = Regular;
width = 409;
},
{
layerId = "2BF3D7EC-9255-448B-A62B-3A7110FF42CA";
name = Bold;
paths = (
{
closed = 1;
nodes = (
"346 932 LINE",
"346 956 OFFCURVE",
"333 968 OFFCURVE",
"309 968 CURVE SMOOTH",
"109 965 LINE SMOOTH",
"86 965 OFFCURVE",
"73 952 OFFCURVE",
"73 928 CURVE SMOOTH",
"74 883 LINE SMOOTH",
"74 859 OFFCURVE",
"87 847 OFFCURVE",
"110 847 CURVE SMOOTH",
"206 849 LINE",
"210 569 OFFCURVE",
"216 278 OFFCURVE",
"219 -2 CURVE",
"125 -4 LINE SMOOTH",
"101 -4 OFFCURVE",
"88 -14 OFFCURVE",
"88 -39 CURVE SMOOTH",
"90 -168 LINE SMOOTH",
"90 -192 OFFCURVE",
"103 -205 OFFCURVE",
"127 -205 CURVE SMOOTH",
"327 -201 LINE SMOOTH",
"350 -201 OFFCURVE",
"363 -188 OFFCURVE",
"363 -164 CURVE"
);
}
);
width = 436;
}
);
unicode = 005D;
},
{
glyphname = asciicircum;
lastChange = "2014-03-15 20:44:14 -0500";
layers = (
{
layerId = "6B6936E6-7670-4A82-900D-EAF583C971AF";
name = Regular;
paths = (
{
closed = 1;
nodes = (
"400 729 LINE SMOOTH",
"408 729 OFFCURVE",
"413 727 OFFCURVE",
"419 721 CURVE SMOOTH",
"667 475 LINE SMOOTH",
"677 466 OFFCURVE",
"673 457 OFFCURVE",
"660 457 CURVE SMOOTH",
"545 457 LINE SMOOTH",
"537 457 OFFCURVE",
"532 460 OFFCURVE",
"527 466 CURVE SMOOTH",
"384 664 LINE SMOOTH",
"377 673 OFFCURVE",
"369 673 OFFCURVE",
"362 664 CURVE SMOOTH",
"219 466 LINE SMOOTH",
"214 460 OFFCURVE",
"209 457 OFFCURVE",
"201 457 CURVE SMOOTH",
"86 457 LINE SMOOTH",
"73 457 OFFCURVE",
"69 466 OFFCURVE",
"79 475 CURVE SMOOTH",
"327 721 LINE SMOOTH",
"333 727 OFFCURVE",
"338 729 OFFCURVE",
"346 729 CURVE SMOOTH"
);
}
);
width = 745.61;
},
{
layerId = "2BF3D7EC-9255-448B-A62B-3A7110FF42CA";
name = Bold;
paths = (
{
closed = 1;
nodes = (
"357 735 LINE SMOOTH",
"344 735 OFFCURVE",
"335 731 OFFCURVE",
"325 722 CURVE",
"88 487 LINE SMOOTH",
"61 461 OFFCURVE",
"72 437 OFFCURVE",
"108 437 CURVE SMOOTH",
"218 437 LINE SMOOTH",
"234 437 OFFCURVE",
"242 443 OFFCURVE",
"250 452 CURVE",
"383 636 LINE",
"515 452 LINE",
"523 442 OFFCURVE",
"533 437 OFFCURVE",
"547 437 CURVE SMOOTH",
"657 437 LINE SMOOTH",
"693 437 OFFCURVE",
"703 461 OFFCURVE",
"677 487 CURVE SMOOTH",
"440 722 LINE SMOOTH",
"431 731 OFFCURVE",
"422 735 OFFCURVE",
"409 735 CURVE SMOOTH"
);
}
);
width = 764.594;
}
);
unicode = 005E;
},
{
glyphname = underscore;
lastChange = "2014-03-15 20:44:14 -0500";
layers = (
{
hints = (
{
horizontal = 1;
place = "{-216.000000, 88.000000}";
}
);
layerId = "6B6936E6-7670-4A82-900D-EAF583C971AF";
name = Regular;
paths = (
{
closed = 1;
nodes = (
"578 -121 LINE SMOOTH",
"588 -121 OFFCURVE",
"593 -126 OFFCURVE",
"593 -136 CURVE SMOOTH",
"593 -201 LINE SMOOTH",
"593 -211 OFFCURVE",
"588 -216 OFFCURVE",
"578 -216 CURVE SMOOTH",
"88 -216 LINE SMOOTH",
"78 -216 OFFCURVE",
"73 -211 OFFCURVE",
"73 -201 CURVE SMOOTH",
"73 -136 LINE SMOOTH",
"73 -126 OFFCURVE",
"78 -121 OFFCURVE",
"88 -121 CURVE SMOOTH"
);
}
);
width = 666;
},
{
layerId = "2BF3D7EC-9255-448B-A62B-3A7110FF42CA";
name = Bold;
paths = (
{
closed = 1;
nodes = (
"106 -77 LINE SMOOTH",
"84 -77 OFFCURVE",
"73 -89 OFFCURVE",
"73 -111 CURVE SMOOTH",
"73 -173 LINE SMOOTH",
"73 -195 OFFCURVE",
"84 -207 OFFCURVE",
"106 -207 CURVE SMOOTH",
"575 -207 LINE SMOOTH",
"597 -207 OFFCURVE",
"608 -195 OFFCURVE",
"608 -173 CURVE SMOOTH",
"608 -111 LINE SMOOTH",
"608 -89 OFFCURVE",
"597 -77 OFFCURVE",
"575 -77 CURVE SMOOTH"
);
}
);
width = 681;
}
);
unicode = 005F;
},
{
glyphname = grave;
lastChange = "2014-03-15 20:44:14 -0500";
layers = (
{
anchors = (
{
name = _top;
position = "{227, 398}";
}
);
layerId = "6B6936E6-7670-4A82-900D-EAF583C971AF";
name = Regular;
paths = (
{
closed = 1;
nodes = (
"151 839 LINE SMOOTH",
"159 839 OFFCURVE",
"164 836 OFFCURVE",
"169 830 CURVE SMOOTH",
"286 674 LINE SMOOTH",
"294 664 OFFCURVE",
"290 656 OFFCURVE",
"277 656 CURVE SMOOTH",
"179 656 LINE SMOOTH",
"171 656 OFFCURVE",
"165 659 OFFCURVE",
"161 667 CURVE SMOOTH",
"76 821 LINE SMOOTH",
"70 831 OFFCURVE",
"75 839 OFFCURVE",
"86 839 CURVE SMOOTH"
);
}
);
width = 363.119;
},
{
layerId = "2BF3D7EC-9255-448B-A62B-3A7110FF42CA";
name = Bold;
paths = (
{
closed = 1;
nodes = (
"105 840 LINE SMOOTH",
"78 840 OFFCURVE",
"64 820 OFFCURVE",
"79 794 CURVE",
"160 648 LINE",
"167 633 OFFCURVE",
"180 627 OFFCURVE",
"194 627 CURVE SMOOTH",
"288 627 LINE SMOOTH",
"323 627 OFFCURVE",
"332 649 OFFCURVE",
"312 675 CURVE SMOOTH",
"187 838 OFFCURVE",
"195 840 OFFCURVE",
"167 840 CURVE SMOOTH"
);
}
);
width = 395.471;
}
);
unicode = 0060;
},
{
color = 7;
glyphname = a;
lastChange = "2014-03-15 20:44:14 -0500";
layers = (
{
components = (
{
name = a.001;
transform = "{1, 0, 0, 1, 0, 0}";
}
);
layerId = "6B6936E6-7670-4A82-900D-EAF583C971AF";
name = Regular;
width = 608;
},
{
layerId = "2BF3D7EC-9255-448B-A62B-3A7110FF42CA";
name = Bold;
paths = (
{
closed = 1;
nodes = (
"251 559 OFFCURVE",
"196 550 OFFCURVE",
"141 529 CURVE SMOOTH",
"121 522 OFFCURVE",
"110 508 OFFCURVE",
"110 485 CURVE SMOOTH",
"110 466 LINE SMOOTH",
"110 432 OFFCURVE",
"132 418 OFFCURVE",
"164 433 CURVE",
"163 433 LINE",
"200 450 OFFCURVE",
"250 459 OFFCURVE",
"293 460 CURVE",
"374 453 OFFCURVE",
"419 413 OFFCURVE",
"419 349 CURVE",
"419 355 OFFCURVE",
"418 359 OFFCURVE",
"416 359 CURVE SMOOTH",
"321 359 LINE SMOOTH",
"157 359 OFFCURVE",
"73 294 OFFCURVE",
"73 167 CURVE SMOOTH",
"73 58 OFFCURVE",
"147 -13 OFFCURVE",
"262 -13 CURVE SMOOTH",
"330 -13 OFFCURVE",
"380 6 OFFCURVE",
"419 41 CURVE",
"419 14 OFFCURVE",
"434 0 OFFCURVE",
"461 0 CURVE SMOOTH",
"500 0 LINE SMOOTH",
"527 0 OFFCURVE",
"541 15 OFFCURVE",
"541 41 CURVE SMOOTH",
"541 309 LINE SMOOTH",
"541 477 OFFCURVE",
"462 559 OFFCURVE",
"302 559 CURVE SMOOTH"
);
},
{
closed = 1;
nodes = (
"228 152 OFFCURVE",
"193 155 OFFCURVE",
"183 183 CURVE",
"180 190 OFFCURVE",
"180 195 OFFCURVE",
"181 201 CURVE",
"185 242 OFFCURVE",
"216 260 OFFCURVE",
"316 260 CURVE SMOOTH",
"369 260 LINE SMOOTH",
"371 260 OFFCURVE",
"372 258 OFFCURVE",
"373 257 CURVE",
"371 172 OFFCURVE",
"343 152 OFFCURVE",
"275 152 CURVE SMOOTH"
);
}
);
width = 614;
}
);
unicode = 0061;
},
{
color = 7;
glyphname = b;
lastChange = "2014-03-15 20:44:14 -0500";
layers = (
{
anchors = (
{
name = "new anchor";
position = "{91, 150}";
}
);
hints = (
{
origin = "{0, 6}";
target = "{0, 0}";
}
);
layerId = "6B6936E6-7670-4A82-900D-EAF583C971AF";
name = Regular;
paths = (
{
closed = 1;
nodes = (
"494 299 CURVE SMOOTH",
"487 416 OFFCURVE",
"440 486 OFFCURVE",
"348 486 CURVE SMOOTH",
"253 486 OFFCURVE",
"196 411 OFFCURVE",
"196 279 CURVE",
"209 178 OFFCURVE",
"217 136 OFFCURVE",
"348 136 CURVE",
"464 144 OFFCURVE",
"494 217 OFFCURVE"
);
},
{
closed = 1;
nodes = (
"92 140 OFFCURVE",
"91 528 OFFCURVE",
"73 834 CURVE SMOOTH",
"72 850 OFFCURVE",
"81 860 OFFCURVE",
"97 860 CURVE SMOOTH",
"147 860 LINE SMOOTH",
"164 860 OFFCURVE",
"171 851 OFFCURVE",
"171 835 CURVE SMOOTH",
"164 517 LINE SMOOTH",
"164 495 OFFCURVE",
"173 492 OFFCURVE",
"188 508 CURVE SMOOTH",
"225 546 OFFCURVE",
"274 560 OFFCURVE",
"337 560 CURVE SMOOTH",
"470 560 OFFCURVE",
"561 445 OFFCURVE",
"561 273 CURVE SMOOTH",
"561 101 OFFCURVE",
"470 -14 OFFCURVE",
"337 -14 CURVE SMOOTH",
"194 -14 OFFCURVE",
"151 27 OFFCURVE",
"125 99 CURVE"
);
}
);
width = 634;
},
{
layerId = "2BF3D7EC-9255-448B-A62B-3A7110FF42CA";
name = Bold;
paths = (
{
closed = 1;
nodes = (
"150 30 OFFCURVE",
"194 -13 OFFCURVE",
"338 -13 CURVE SMOOTH",
"473 -13 OFFCURVE",
"566 102 OFFCURVE",
"566 273 CURVE SMOOTH",
"566 444 OFFCURVE",
"473 559 OFFCURVE",
"338 559 CURVE SMOOTH",
"279 559 OFFCURVE",
"232 547 OFFCURVE",
"196 515 CURVE",
"202 797 LINE SMOOTH",
"203 824 OFFCURVE",
"190 839 OFFCURVE",
"161 839 CURVE SMOOTH",
"114 839 LINE SMOOTH",
"87 839 OFFCURVE",
"72 822 OFFCURVE",
"73 795 CURVE SMOOTH",
"79 709 OFFCURVE",
"82 610 OFFCURVE",
"86 522 CURVE SMOOTH",
"94 337 OFFCURVE",
"101 148 OFFCURVE",
"123 104 CURVE"
);
},
{
closed = 1;
nodes = (
"226 391 OFFCURVE",
"272 453 OFFCURVE",
"348 453 CURVE SMOOTH",
"420 453 OFFCURVE",
"458 390 OFFCURVE",
"466 296 CURVE",
"464 232 OFFCURVE",
"438 171 OFFCURVE",
"347 164 CURVE",
"247 164 OFFCURVE",
"236 205 OFFCURVE",
"225 281 CURVE"
);
}
);
width = 639;
}
);
unicode = 0062;
},
{
color = 7;
glyphname = c;
lastChange = "2014-03-15 20:44:14 -0500";
layers = (
{
anchors = (
{
name = bottom;
position = "{310, 0}";
},
{
name = top;
position = "{310, 547}";
}
);
layerId = "6B6936E6-7670-4A82-900D-EAF583C971AF";
name = Regular;
paths = (
{
closed = 1;
nodes = (
"506 479 LINE SMOOTH",
"506 461 OFFCURVE",
"494 454 OFFCURVE",
"477 462 CURVE SMOOTH",
"436 480 OFFCURVE",
"394 489 OFFCURVE",
"352 489 CURVE SMOOTH",
"235 489 OFFCURVE",
"173 406 OFFCURVE",
"173 273 CURVE",
"182 179 OFFCURVE",
"231 129 OFFCURVE",
"348 123 CURVE",
"391 123 OFFCURVE",
"434 136 OFFCURVE",
"476 150 CURVE SMOOTH",
"493 156 OFFCURVE",
"504 150 OFFCURVE",
"504 132 CURVE SMOOTH",
"505 42 LINE SMOOTH",
"506 27 OFFCURVE",
"500 18 OFFCURVE",
"487 13 CURVE SMOOTH",
"442 -5 OFFCURVE",
"395 -14 OFFCURVE",
"342 -14 CURVE SMOOTH",
"177 -14 OFFCURVE",
"73 97 OFFCURVE",
"73 273 CURVE SMOOTH",
"73 451 OFFCURVE",
"177 560 OFFCURVE",
"348 560 CURVE SMOOTH",
"396 560 OFFCURVE",
"443 552 OFFCURVE",
"487 535 CURVE SMOOTH",
"500 530 OFFCURVE",
"506 521 OFFCURVE",
"506 507 CURVE SMOOTH"
);
}
);
width = 579;
},
{
layerId = "2BF3D7EC-9255-448B-A62B-3A7110FF42CA";
name = Bold;
paths = (
{
closed = 1;
nodes = (
"514 491 LINE SMOOTH",
"514 512 OFFCURVE",
"503 527 OFFCURVE",
"484 535 CURVE SMOOTH",
"443 551 OFFCURVE",
"395 559 OFFCURVE",
"348 559 CURVE SMOOTH",
"178 559 OFFCURVE",
"73 450 OFFCURVE",
"73 273 CURVE SMOOTH",
"73 98 OFFCURVE",
"178 -13 OFFCURVE",
"343 -13 CURVE SMOOTH",
"394 -13 OFFCURVE",
"442 -4 OFFCURVE",
"484 13 CURVE SMOOTH",
"503 21 OFFCURVE",
"513 35 OFFCURVE",
"513 58 CURVE",
"512 142 LINE",
"512 175 OFFCURVE",
"492 187 OFFCURVE",
"461 176 CURVE",
"462 176 LINE",
"425 164 OFFCURVE",
"385 152 OFFCURVE",
"348 152 CURVE",
"349 152 LINE",
"254 157 OFFCURVE",
"213 201 OFFCURVE",
"204 275 CURVE",
"204 387 OFFCURVE",
"255 456 OFFCURVE",
"352 456 CURVE SMOOTH",
"388 456 OFFCURVE",
"425 448 OFFCURVE",
"461 432 CURVE",
"460 432 LINE",
"492 417 OFFCURVE",
"514 431 OFFCURVE",
"514 465 CURVE SMOOTH"
);
}
);
width = 587;
}
);
leftKerningGroup = Round;
rightKerningGroup = Round;
unicode = 0063;
},
{
color = 7;
glyphname = d;
lastChange = "2014-03-15 20:44:14 -0500";
layers = (
{
anchors = (
{
name = center;
position = "{368, 273}";
},
{
name = top;
position = "{297, 560}";
}
);
layerId = "6B6936E6-7670-4A82-900D-EAF583C971AF";
name = Regular;
paths = (
{
closed = 1;
nodes = (
"563 860 OFFCURVE",
"571 851 OFFCURVE",
"571 835 CURVE SMOOTH",
"562 24 LINE SMOOTH",
"562 8 OFFCURVE",
"554 0 OFFCURVE",
"538 0 CURVE SMOOTH",
"497 0 LINE SMOOTH",
"480 0 OFFCURVE",
"472 9 OFFCURVE",
"472 24 CURVE SMOOTH",
"472 38 LINE SMOOTH",
"472 60 OFFCURVE",
"461 63 OFFCURVE",
"446 46 CURVE SMOOTH",
"410 5 OFFCURVE",
"361 -14 OFFCURVE",
"297 -14 CURVE SMOOTH",
"164 -14 OFFCURVE",
"73 101 OFFCURVE",
"73 273 CURVE SMOOTH",
"73 445 OFFCURVE",
"164 560 OFFCURVE",
"297 560 CURVE SMOOTH",
"361 560 OFFCURVE",
"411 540 OFFCURVE",
"447 500 CURVE SMOOTH",
"461 482 OFFCURVE",
"474 485 OFFCURVE",
"474 507 CURVE SMOOTH",
"481 836 LINE SMOOTH",
"481 851 OFFCURVE",
"490 860 OFFCURVE",
"506 860 CURVE SMOOTH",
"547 860 LINE SMOOTH"
);
},
{
closed = 1;
nodes = (
"199 495 OFFCURVE",
"142 421 OFFCURVE",
"138 298 CURVE SMOOTH",
"138 287 OFFCURVE",
"138 279 OFFCURVE",
"140 268 CURVE SMOOTH",
"157 184 OFFCURVE",
"198 149 OFFCURVE",
"288 149 CURVE SMOOTH",
"383 149 OFFCURVE",
"429 169 OFFCURVE",
"432 290 CURVE SMOOTH",
"429 422 OFFCURVE",
"386 495 OFFCURVE",
"290 495 CURVE SMOOTH"
);
}
);
width = 644;
},
{
layerId = "2BF3D7EC-9255-448B-A62B-3A7110FF42CA";
name = Bold;
paths = (
{
closed = 1;
nodes = (
"454 496 OFFCURVE",
"454 497 OFFCURVE",
"453 497 CURVE",
"454 497 OFFCURVE",
"454 496 OFFCURVE",
"454 496 CURVE SMOOTH"
);
},
{
closed = 1;
nodes = (
"495 839 LINE SMOOTH",
"468 839 OFFCURVE",
"454 823 OFFCURVE",
"454 798 CURVE SMOOTH",
"447 503 LINE",
"410 540 OFFCURVE",
"361 559 OFFCURVE",
"301 559 CURVE SMOOTH",
"166 559 OFFCURVE",
"73 444 OFFCURVE",
"73 273 CURVE SMOOTH",
"73 102 OFFCURVE",
"166 -13 OFFCURVE",
"301 -13 CURVE SMOOTH",
"359 -13 OFFCURVE",
"409 6 OFFCURVE",
"445 40 CURVE",
"445 15 OFFCURVE",
"458 0 OFFCURVE",
"487 0 CURVE SMOOTH",
"525 0 LINE SMOOTH",
"551 0 OFFCURVE",
"565 16 OFFCURVE",
"566 41 CURVE SMOOTH",
"575 797 LINE SMOOTH",
"575 824 OFFCURVE",
"561 839 OFFCURVE",
"534 839 CURVE SMOOTH"
);
},
{
closed = 1;
nodes = (
"372 461 OFFCURVE",
"405 400 OFFCURVE",
"408 289 CURVE",
"405 192 OFFCURVE",
"369 176 OFFCURVE",
"292 176 CURVE SMOOTH",
"222 176 OFFCURVE",
"188 208 OFFCURVE",
"173 272 CURVE SMOOTH",
"171 280 OFFCURVE",
"171 288 OFFCURVE",
"171 295 CURVE",
"175 399 OFFCURVE",
"221 461 OFFCURVE",
"294 461 CURVE SMOOTH"
);
}
);
width = 648;
}
);
leftKerningGroup = Round;
unicode = 0064;
},
{
color = 7;
glyphname = e;
lastChange = "2014-03-15 20:44:14 -0500";
layers = (
{
anchors = (
{
name = bottom;
position = "{323, 0}";
},
{
name = hookabovecomb;
position = "{340, 539}";
},
{
name = ogonek;
position = "{421, -7}";
},
{
name = top;
position = "{323, 547}";
}
);
guideLines = (
{
angle = 90;
position = "{173, 384}";
}
);
layerId = "6B6936E6-7670-4A82-900D-EAF583C971AF";
name = Regular;
paths = (
{
closed = 1;
nodes = (
"557 310 LINE SMOOTH",
"557 294 OFFCURVE",
"548 285 OFFCURVE",
"533 285 CURVE SMOOTH",
"196 285 LINE SMOOTH",
"180 285 OFFCURVE",
"172 276 OFFCURVE",
"172 260 CURVE SMOOTH",
"173 145 OFFCURVE",
"219 123 OFFCURVE",
"349 123 CURVE",
"408 123 OFFCURVE",
"478 125 OFFCURVE",
"519 135 CURVE SMOOTH",
"535 139 OFFCURVE",
"547 135 OFFCURVE",
"547 117 CURVE SMOOTH",
"548 44 LINE SMOOTH",
"549 30 OFFCURVE",
"543 22 OFFCURVE",
"530 16 CURVE SMOOTH",
"473 -12 OFFCURVE",
"431 -14 OFFCURVE",
"346 -14 CURVE",
"159 -8 OFFCURVE",
"73 84 OFFCURVE",
"73 257 CURVE",
"80 437 OFFCURVE",
"170 560 OFFCURVE",
"335 560 CURVE",
"445 560 OFFCURVE",
"545 476 OFFCURVE",
"557 319 CURVE"
);
},
{
closed = 1;
nodes = (
"465 359 LINE SMOOTH",
"482 359 OFFCURVE",
"489 370 OFFCURVE",
"486 386 CURVE SMOOTH",
"473 461 OFFCURVE",
"414 510 OFFCURVE",
"335 510 CURVE SMOOTH",
"248 510 OFFCURVE",
"181 455 OFFCURVE",
"173 384 CURVE SMOOTH",
"171 368 OFFCURVE",
"179 358 OFFCURVE",
"196 358 CURVE SMOOTH"
);
}
);
width = 630;
},
{
layerId = "2BF3D7EC-9255-448B-A62B-3A7110FF42CA";
name = Bold;
paths = (
{
closed = 1;
nodes = (
"561 317 LINE",
"549 474 OFFCURVE",
"448 559 OFFCURVE",
"336 559 CURVE SMOOTH",
"170 559 OFFCURVE",
"81 437 OFFCURVE",
"73 258 CURVE",
"73 85 OFFCURVE",
"159 -7 OFFCURVE",
"345 -13 CURVE SMOOTH",
"428 -13 OFFCURVE",
"469 -11 OFFCURVE",
"526 17 CURVE",
"525 17 LINE",
"545 26 OFFCURVE",
"553 37 OFFCURVE",
"553 60 CURVE",
"552 128 LINE",
"552 160 OFFCURVE",
"530 168 OFFCURVE",
"503 162 CURVE SMOOTH",
"467 154 OFFCURVE",
"403 152 OFFCURVE",
"349 152 CURVE SMOOTH",
"242 152 OFFCURVE",
"204 170 OFFCURVE",
"203 261 CURVE",
"203 264 OFFCURVE",
"204 266 OFFCURVE",
"206 266 CURVE SMOOTH",
"520 266 LINE SMOOTH",
"546 266 OFFCURVE",
"561 280 OFFCURVE",
"561 308 CURVE SMOOTH"
);
},
{
closed = 1;
nodes = (
"206 371 LINE",
"205 372 OFFCURVE",
"203 373 OFFCURVE",
"204 375 CURVE",
"210 431 OFFCURVE",
"265 475 OFFCURVE",
"336 475 CURVE SMOOTH",
"399 475 OFFCURVE",
"448 435 OFFCURVE",
"458 375 CURVE",
"459 373 OFFCURVE",
"458 372 OFFCURVE",
"457 372 CURVE SMOOTH"
);
}
);
width = 634;
}
);
unicode = 0065;
},
{
color = 7;
glyphname = f;
lastChange = "2014-03-15 20:44:14 -0500";
layers = (
{
layerId = "6B6936E6-7670-4A82-900D-EAF583C971AF";
name = Regular;
paths = (
{
closed = 1;
nodes = (
"441 838 LINE SMOOTH",
"455 836 OFFCURVE",
"464 828 OFFCURVE",
"464 813 CURVE SMOOTH",
"464 787 LINE SMOOTH",
"464 770 OFFCURVE",
"455 762 OFFCURVE",
"438 764 CURVE SMOOTH",
"383 771 LINE",
"338 776 OFFCURVE",
"321 758 OFFCURVE",
"319 595 CURVE",
"322 570 LINE SMOOTH",
"323 555 OFFCURVE",
"332 547 OFFCURVE",
"348 547 CURVE SMOOTH",
"471 547 LINE SMOOTH",
"487 547 OFFCURVE",
"495 539 OFFCURVE",
"495 522 CURVE SMOOTH",
"495 482 LINE SMOOTH",
"495 466 OFFCURVE",
"486 458 OFFCURVE",
"471 458 CURVE SMOOTH",
"349 458 LINE SMOOTH",
"333 458 OFFCURVE",
"325 449 OFFCURVE",
"325 433 CURVE SMOOTH",
"338 25 LINE SMOOTH",
"338 9 OFFCURVE",
"330 0 OFFCURVE",
"314 0 CURVE SMOOTH",
"212 0 LINE SMOOTH",
"196 0 OFFCURVE",
"187 9 OFFCURVE",
"189 25 CURVE SMOOTH",
"223 433 LINE SMOOTH",
"225 449 OFFCURVE",
"215 458 OFFCURVE",
"199 458 CURVE SMOOTH",
"98 458 LINE SMOOTH",
"82 458 OFFCURVE",
"73 466 OFFCURVE",
"73 482 CURVE SMOOTH",
"73 522 LINE SMOOTH",
"73 539 OFFCURVE",
"82 547 OFFCURVE",
"98 547 CURVE SMOOTH",
"201 547 LINE SMOOTH",
"216 547 OFFCURVE",
"225 555 OFFCURVE",
"227 570 CURVE SMOOTH",
"229 585 LINE",
"231 802 OFFCURVE",
"300 854 OFFCURVE",
"384 845 CURVE"
);
}
);
width = 568;
},
{
layerId = "2BF3D7EC-9255-448B-A62B-3A7110FF42CA";
name = Bold;
paths = (
{
closed = 1;
nodes = (
"383 825 LINE SMOOTH",
"294 835 OFFCURVE",
"220 783 OFFCURVE",
"218 564 CURVE SMOOTH",
"218 560 OFFCURVE",
"217 556 OFFCURVE",
"217 553 CURVE",
"216 550 OFFCURVE",
"214 547 OFFCURVE",
"211 547 CURVE SMOOTH",
"115 547 LINE SMOOTH",
"88 547 OFFCURVE",
"73 534 OFFCURVE",
"73 505 CURVE SMOOTH",
"73 468 LINE SMOOTH",
"73 441 OFFCURVE",
"88 427 OFFCURVE",
"115 427 CURVE SMOOTH",
"209 427 LINE SMOOTH",
"211 427 OFFCURVE",
"213 426 OFFCURVE",
"213 424 CURVE",
"181 44 LINE SMOOTH",
"179 18 OFFCURVE",
"194 0 OFFCURVE",
"221 0 CURVE SMOOTH",
"316 0 LINE SMOOTH",
"343 0 OFFCURVE",
"357 15 OFFCURVE",
"357 42 CURVE",
"345 423 LINE",
"345 425 OFFCURVE",
"346 427 OFFCURVE",
"349 427 CURVE SMOOTH",
"463 427 LINE SMOOTH",
"488 427 OFFCURVE",
"504 441 OFFCURVE",
"504 468 CURVE SMOOTH",
"504 505 LINE SMOOTH",
"504 534 OFFCURVE",
"490 547 OFFCURVE",
"463 547 CURVE SMOOTH",
"348 547 LINE SMOOTH",
"344 547 OFFCURVE",
"342 548 OFFCURVE",
"342 551 CURVE",
"340 575 LINE",
"341 707 OFFCURVE",
"352 721 OFFCURVE",
"379 718 CURVE SMOOTH",
"430 712 LINE",
"457 710 OFFCURVE",
"475 723 OFFCURVE",
"475 752 CURVE SMOOTH",
"475 776 LINE SMOOTH",
"475 801 OFFCURVE",
"460 814 OFFCURVE",
"436 818 CURVE SMOOTH"
);
}
);
width = 577;
}
);
unicode = 0066;
},
{
color = 7;
glyphname = g;
lastChange = "2014-03-15 20:44:14 -0500";
layers = (
{
anchors = (
{
name = comma;
position = "{300, -262}";
},
{
name = top;
position = "{333, 547}";
}
);
layerId = "6B6936E6-7670-4A82-900D-EAF583C971AF";
name = Regular;
paths = (
{
closed = 1;
nodes = (
"437 416 OFFCURVE",
"381 490 OFFCURVE",
"284 490 CURVE SMOOTH",
"188 490 OFFCURVE",
"141 416 OFFCURVE",
"141 285 CURVE",
"154 156 OFFCURVE",
"181 146 OFFCURVE",
"277 146 CURVE SMOOTH",
"374 146 OFFCURVE",
"437 156 OFFCURVE",
"437 285 CURVE SMOOTH"
);
},
{
closed = 1;
nodes = (
"557 68 LINE SMOOTH",
"547 -277 OFFCURVE",
"471 -355 OFFCURVE",
"300 -355 CURVE SMOOTH",
"245 -355 OFFCURVE",
"196 -348 OFFCURVE",
"149 -333 CURVE SMOOTH",
"136 -329 OFFCURVE",
"129 -320 OFFCURVE",
"129 -306 CURVE SMOOTH",
"129 -198 LINE SMOOTH",
"129 -180 OFFCURVE",
"141 -173 OFFCURVE",
"158 -181 CURVE SMOOTH",
"201 -200 OFFCURVE",
"243 -208 OFFCURVE",
"286 -208 CURVE SMOOTH",
"380 -208 OFFCURVE",
"432 -143 OFFCURVE",
"455 10 CURVE SMOOTH",
"461 48 OFFCURVE",
"469 77 OFFCURVE",
"440 51 CURVE SMOOTH",
"407 21 OFFCURVE",
"358 0 OFFCURVE",
"297 0 CURVE SMOOTH",
"163 0 OFFCURVE",
"73 111 OFFCURVE",
"73 280 CURVE SMOOTH",
"73 449 OFFCURVE",
"163 560 OFFCURVE",
"297 560 CURVE SMOOTH",
"362 560 OFFCURVE",
"412 540 OFFCURVE",
"448 498 CURVE SMOOTH",
"462 481 OFFCURVE",
"475 483 OFFCURVE",
"477 505 CURVE SMOOTH",
"479 526 LINE SMOOTH",
"481 540 OFFCURVE",
"490 547 OFFCURVE",
"505 547 CURVE SMOOTH",
"547 547 LINE SMOOTH",
"563 547 OFFCURVE",
"571 538 OFFCURVE",
"571 522 CURVE SMOOTH"
);
}
);
width = 644;
},
{
layerId = "2BF3D7EC-9255-448B-A62B-3A7110FF42CA";
name = Bold;
paths = (
{
closed = 1;
nodes = (
"460 492 LINE",
"459 491 LINE",
"456 494 LINE"
);
},
{
closed = 1;
nodes = (
"575 504 LINE SMOOTH",
"575 531 OFFCURVE",
"561 547 OFFCURVE",
"534 547 CURVE SMOOTH",
"495 547 LINE SMOOTH",
"469 547 OFFCURVE",
"454 535 OFFCURVE",
"452 512 CURVE",
"452 508 OFFCURVE",
"451 504 OFFCURVE",
"451 500 CURVE",
"412 540 OFFCURVE",
"362 559 OFFCURVE",
"301 559 CURVE SMOOTH",
"165 559 OFFCURVE",
"73 448 OFFCURVE",
"73 280 CURVE SMOOTH",
"73 111 OFFCURVE",
"165 0 OFFCURVE",
"301 0 CURVE SMOOTH",
"353 0 OFFCURVE",
"398 17 OFFCURVE",
"431 40 CURVE",
"431 36 OFFCURVE",
"429 33 OFFCURVE",
"429 30 CURVE",
"429 31 LINE",
"410 -101 OFFCURVE",
"367 -157 OFFCURVE",
"290 -157 CURVE SMOOTH",
"253 -157 OFFCURVE",
"216 -150 OFFCURVE",
"179 -133 CURVE",
"180 -133 LINE",
"148 -118 OFFCURVE",
"126 -132 OFFCURVE",
"126 -166 CURVE SMOOTH",
"126 -267 LINE SMOOTH",
"126 -289 OFFCURVE",
"137 -303 OFFCURVE",
"157 -309 CURVE SMOOTH",
"203 -324 OFFCURVE",
"250 -331 OFFCURVE",
"304 -331 CURVE SMOOTH",
"475 -331 OFFCURVE",
"551 -255 OFFCURVE",
"562 81 CURVE SMOOTH"
);
},
{
closed = 1;
nodes = (
"413 182 OFFCURVE",
"361 173 OFFCURVE",
"282 173 CURVE SMOOTH",
"208 173 OFFCURVE",
"185 193 OFFCURVE",
"174 286 CURVE",
"175 394 OFFCURVE",
"212 457 OFFCURVE",
"289 457 CURVE SMOOTH",
"367 457 OFFCURVE",
"413 394 OFFCURVE",
"413 284 CURVE SMOOTH"
);
}
);
width = 648;
}
);
unicode = 0067;
},
{
color = 7;
glyphname = h;
lastChange = "2014-03-15 20:44:14 -0500";
layers = (
{
anchors = (
{
name = center;
position = "{287, 273}";
},
{
name = top;
position = "{287, 547}";
}
);
layerId = "6B6936E6-7670-4A82-900D-EAF583C971AF";
name = Regular;
paths = (
{
closed = 1;
nodes = (
"568 25 LINE SMOOTH",
"569 9 OFFCURVE",
"560 0 OFFCURVE",
"544 0 CURVE SMOOTH",
"480 0 LINE SMOOTH",
"464 0 OFFCURVE",
"455 9 OFFCURVE",
"456 25 CURVE SMOOTH",
"470 327 LINE SMOOTH",
"475 452 OFFCURVE",
"429 492 OFFCURVE",
"349 492 CURVE SMOOTH",
"251 492 OFFCURVE",
"192 416 OFFCURVE",
"192 309 CURVE SMOOTH",
"201 25 LINE SMOOTH",
"201 9 OFFCURVE",
"193 0 OFFCURVE",
"177 0 CURVE SMOOTH",
"97 0 LINE SMOOTH",
"81 0 OFFCURVE",
"72 9 OFFCURVE",
"73 25 CURVE SMOOTH",
"111 836 LINE SMOOTH",
"112 852 OFFCURVE",
"120 860 OFFCURVE",
"136 860 CURVE SMOOTH",
"177 860 LINE SMOOTH",
"193 860 OFFCURVE",
"202 851 OFFCURVE",
"201 835 CURVE SMOOTH",
"193 507 LINE SMOOTH",
"193 485 OFFCURVE",
"204 481 OFFCURVE",
"220 498 CURVE SMOOTH",
"259 540 OFFCURVE",
"308 560 OFFCURVE",
"369 560 CURVE SMOOTH",
"494 560 OFFCURVE",
"559 481 OFFCURVE",
"559 330 CURVE SMOOTH"
);
}
);
width = 641.075;
},
{
layerId = "2BF3D7EC-9255-448B-A62B-3A7110FF42CA";
name = Bold;
paths = (
{
closed = 1;
nodes = (
"563 327 LINE",
"563 479 OFFCURVE",
"495 559 OFFCURVE",
"368 559 CURVE SMOOTH",
"308 559 OFFCURVE",
"262 541 OFFCURVE",
"222 503 CURVE",
"224 600 OFFCURVE",
"228 699 OFFCURVE",
"230 796 CURVE",
"232 823 OFFCURVE",
"216 839 OFFCURVE",
"189 839 CURVE SMOOTH",
"151 839 LINE SMOOTH",
"125 839 OFFCURVE",
"111 826 OFFCURVE",
"109 799 CURVE SMOOTH",
"98 569 OFFCURVE",
"84 273 OFFCURVE",
"73 43 CURVE",
"74 20 OFFCURVE",
"89 0 OFFCURVE",
"114 0 CURVE SMOOTH",
"189 0 LINE SMOOTH",
"216 0 OFFCURVE",
"230 15 OFFCURVE",
"230 42 CURVE",
"221 308 LINE",
"223 392 OFFCURVE",
"271 458 OFFCURVE",
"349 458 CURVE SMOOTH",
"412 458 OFFCURVE",
"448 426 OFFCURVE",
"443 324 CURVE SMOOTH",
"440 231 OFFCURVE",
"434 136 OFFCURVE",
"430 43 CURVE SMOOTH",
"428 16 OFFCURVE",
"444 0 OFFCURVE",
"471 0 CURVE SMOOTH",
"531 0 LINE SMOOTH",
"556 0 OFFCURVE",
"571 20 OFFCURVE",
"572 43 CURVE"
);
}
);
width = 645;
}
);
unicode = 0068;
},
{
color = 7;
glyphname = i;
lastChange = "2014-03-15 20:44:14 -0500";
layers = (
{
components = (
{
name = dotlessi;
transform = "{1, 0, 0, 1, 0, 0}";
},
{
disableAlignment = 1;
name = dotaccent;
transform = "{1, 0, 0, 1, 24, 0}";
}
);
layerId = "6B6936E6-7670-4A82-900D-EAF583C971AF";
name = Regular;
width = 287.148;
},
{
layerId = "2BF3D7EC-9255-448B-A62B-3A7110FF42CA";
name = Bold;
paths = (
{
closed = 1;
nodes = (
"96 643 LINE SMOOTH",
"96 622 OFFCURVE",
"107 610 OFFCURVE",
"128 610 CURVE SMOOTH",
"193 610 LINE SMOOTH",
"215 610 OFFCURVE",
"226 622 OFFCURVE",
"226 643 CURVE",
"224 712 LINE",
"224 733 OFFCURVE",
"213 745 OFFCURVE",
"192 745 CURVE SMOOTH",
"130 744 LINE SMOOTH",
"109 744 OFFCURVE",
"97 732 OFFCURVE",
"97 711 CURVE SMOOTH"
);
},
{
closed = 1;
nodes = (
"73 39 LINE",
"70 9 OFFCURVE",
"85 -5 OFFCURVE",
"114 -5 CURVE SMOOTH",
"201 -5 LINE SMOOTH",
"228 -5 OFFCURVE",
"249 12 OFFCURVE",
"240 44 CURVE",
"240 43 LINE",
"221 113 OFFCURVE",
"214 206 OFFCURVE",
"214 298 CURVE SMOOTH",
"214 365 OFFCURVE",
"219 438 OFFCURVE",
"224 499 CURVE SMOOTH",
"226 525 OFFCURVE",
"210 542 OFFCURVE",
"183 542 CURVE SMOOTH",
"144 542 LINE SMOOTH",
"117 542 OFFCURVE",
"102 526 OFFCURVE",
"102 502 CURVE",
"105 460 OFFCURVE",
"106 424 OFFCURVE",
"106 388 CURVE SMOOTH",
"106 262 OFFCURVE",
"92 161 OFFCURVE",
"73 40 CURVE"
);
}
);
width = 315.114;
}
);
unicode = 0069;
},
{
color = 7;
glyphname = j;
lastChange = "2014-03-15 20:44:14 -0500";
layers = (
{
layerId = "6B6936E6-7670-4A82-900D-EAF583C971AF";
name = Regular;
paths = (
{
closed = 1;
nodes = (
"290 521 LINE SMOOTH",
"290 537 OFFCURVE",
"299 545 OFFCURVE",
"315 545 CURVE SMOOTH",
"392 543 LINE SMOOTH",
"407 543 OFFCURVE",
"416 534 OFFCURVE",
"415 519 CURVE SMOOTH",
"372 -72 LINE SMOOTH",
"362 -212 OFFCURVE",
"239 -347 OFFCURVE",
"122 -351 CURVE",
"97 -351 LINE SMOOTH",
"81 -350 OFFCURVE",
"73 -342 OFFCURVE",
"73 -326 CURVE SMOOTH",
"75 -201 LINE SMOOTH",
"75 -185 OFFCURVE",
"84 -176 OFFCURVE",
"100 -177 CURVE SMOOTH",
"114 -177 LINE",
"182 -171 OFFCURVE",
"281 -133 OFFCURVE",
"283 46 CURVE SMOOTH"
);
},
{
closed = 1;
nodes = (
"315 736 LINE SMOOTH",
"315 751 OFFCURVE",
"324 760 OFFCURVE",
"339 760 CURVE SMOOTH",
"372 760 LINE SMOOTH",
"387 760 OFFCURVE",
"396 751 OFFCURVE",
"397 736 CURVE SMOOTH",
"400 671 LINE SMOOTH",
"400 655 OFFCURVE",
"392 646 OFFCURVE",
"376 646 CURVE SMOOTH",
"336 646 LINE SMOOTH",
"319 646 OFFCURVE",
"311 655 OFFCURVE",
"312 671 CURVE SMOOTH"
);
}
);
width = 488.076;
},
{
layerId = "2BF3D7EC-9255-448B-A62B-3A7110FF42CA";
name = Bold;
paths = (
{
closed = 1;
nodes = (
"295 645 LINE",
"296 622 OFFCURVE",
"310 602 OFFCURVE",
"336 602 CURVE SMOOTH",
"374 602 LINE SMOOTH",
"401 602 OFFCURVE",
"415 617 OFFCURVE",
"415 644 CURVE",
"412 705 LINE SMOOTH",
"410 731 OFFCURVE",
"395 745 OFFCURVE",
"370 745 CURVE SMOOTH",
"339 745 LINE SMOOTH",
"314 745 OFFCURVE",
"299 729 OFFCURVE",
"298 705 CURVE SMOOTH"
);
},
{
closed = 1;
nodes = (
"268 62 LINE SMOOTH",
"267 -91 OFFCURVE",
"185 -123 OFFCURVE",
"128 -128 CURVE",
"116 -128 LINE",
"89 -126 OFFCURVE",
"75 -142 OFFCURVE",
"75 -169 CURVE SMOOTH",
"73 -285 LINE SMOOTH",
"73 -311 OFFCURVE",
"86 -325 OFFCURVE",
"113 -327 CURVE",
"137 -327 LINE",
"254 -322 OFFCURVE",
"378 -188 OFFCURVE",
"389 -49 CURVE SMOOTH",
"429 501 LINE SMOOTH",
"431 527 OFFCURVE",
"415 543 OFFCURVE",
"389 543 CURVE SMOOTH",
"317 545 LINE SMOOTH",
"290 545 OFFCURVE",
"275 531 OFFCURVE",
"275 504 CURVE SMOOTH"
);
}
);
width = 502.168;
}
);
unicode = 006A;
},
{
color = 7;
glyphname = k;
lastChange = "2014-03-15 20:44:14 -0500";
layers = (
{
anchors = (
{
name = bottom;
position = "{261, 0}";
}
);
layerId = "6B6936E6-7670-4A82-900D-EAF583C971AF";
name = Regular;
paths = (
{
closed = 1;
nodes = (
"92 736 LINE SMOOTH",
"92 751 OFFCURVE",
"101 760 OFFCURVE",
"116 760 CURVE SMOOTH",
"158 760 LINE SMOOTH",
"174 760 OFFCURVE",
"183 751 OFFCURVE",
"182 735 CURVE SMOOTH",
"178 377 LINE SMOOTH",
"178 354 OFFCURVE",
"194 349 OFFCURVE",
"208 366 CURVE SMOOTH",
"351 533 LINE SMOOTH",
"360 543 OFFCURVE",
"368 547 OFFCURVE",
"381 547 CURVE SMOOTH",
"439 547 LINE SMOOTH",
"460 547 OFFCURVE",
"467 533 OFFCURVE",
"453 517 CURVE SMOOTH",
"285 309 LINE SMOOTH",
"276 297 OFFCURVE",
"277 286 OFFCURVE",
"288 275 CURVE SMOOTH",
"542 30 LINE SMOOTH",
"558 15 OFFCURVE",
"552 0 OFFCURVE",
"529 0 CURVE SMOOTH",
"405 0 LINE SMOOTH",
"393 0 OFFCURVE",
"384 4 OFFCURVE",
"376 14 CURVE SMOOTH",
"210 218 LINE SMOOTH",
"196 236 OFFCURVE",
"179 230 OFFCURVE",
"181 207 CURVE SMOOTH",
"191 25 LINE SMOOTH",
"192 9 OFFCURVE",
"184 0 OFFCURVE",
"168 0 CURVE SMOOTH",
"98 0 LINE SMOOTH",
"82 0 OFFCURVE",
"73 9 OFFCURVE",
"73 25 CURVE SMOOTH"
);
}
);
width = 623.984;
},
{
layerId = "2BF3D7EC-9255-448B-A62B-3A7110FF42CA";
name = Bold;
paths = (
{
closed = 1;
nodes = (
"204 372 LINE",
"204 372 OFFCURVE",
"204 373 OFFCURVE",
"204 373 CURVE"
);
},
{
closed = 1;
nodes = (
"206 207 LINE",
"205 208 OFFCURVE",
"204 209 OFFCURVE",
"204 210 CURVE"
);
},
{
closed = 1;
nodes = (
"73 42 LINE SMOOTH",
"73 15 OFFCURVE",
"88 0 OFFCURVE",
"115 0 CURVE SMOOTH",
"180 0 LINE SMOOTH",
"207 0 OFFCURVE",
"222 16 OFFCURVE",
"220 43 CURVE SMOOTH",
"211 200 LINE",
"359 20 LINE",
"359 21 LINE",
"371 6 OFFCURVE",
"384 0 OFFCURVE",
"401 0 CURVE SMOOTH",
"517 0 LINE SMOOTH",
"562 0 OFFCURVE",
"573 30 OFFCURVE",
"542 61 CURVE",
"542 60 LINE",
"305 288 LINE SMOOTH",
"303 290 OFFCURVE",
"302 293 OFFCURVE",
"304 295 CURVE",
"304 294 LINE",
"461 488 LINE",
"460 488 LINE",
"487 520 OFFCURVE",
"474 547 OFFCURVE",
"433 547 CURVE SMOOTH",
"379 547 LINE SMOOTH",
"360 547 OFFCURVE",
"349 541 OFFCURVE",
"337 527 CURVE SMOOTH",
"208 377 LINE",
"212 704 LINE SMOOTH",
"213 730 OFFCURVE",
"197 745 OFFCURVE",
"171 745 CURVE SMOOTH",
"132 745 LINE SMOOTH",
"106 745 OFFCURVE",
"91 730 OFFCURVE",
"91 705 CURVE SMOOTH"
);
}
);
width = 632.586;
}
);
unicode = 006B;
},
{
color = 7;
glyphname = l;
lastChange = "2014-03-15 20:44:14 -0500";
layers = (
{
anchors = (
{
name = bottom;
position = "{125, 0}";
},
{
name = dot;
position = "{229, 406}";
},
{
name = top;
position = "{151, 685}";
},
{
name = topright;
position = "{267, 641}";
}
);
layerId = "6B6936E6-7670-4A82-900D-EAF583C971AF";
name = Regular;
paths = (
{
closed = 1;
nodes = (
"71 289 OFFCURVE",
"127 535 OFFCURVE",
"74 714 CURVE SMOOTH",
"69 730 OFFCURVE",
"84 738 OFFCURVE",
"99 738 CURVE SMOOTH",
"151 738 LINE SMOOTH",
"167 738 OFFCURVE",
"172 729 OFFCURVE",
"174 713 CURVE SMOOTH",
"194 568 OFFCURVE",
"165 322 OFFCURVE",
"197 146 CURVE SMOOTH",
"200 129 OFFCURVE",
"205 121 OFFCURVE",
"221 121 CURVE SMOOTH",
"282 121 LINE SMOOTH",
"299 121 OFFCURVE",
"307 113 OFFCURVE",
"307 96 CURVE SMOOTH",
"307 24 LINE SMOOTH",
"307 9 OFFCURVE",
"298 0 OFFCURVE",
"282 0 CURVE SMOOTH",
"117 0 LINE SMOOTH",
"101 0 OFFCURVE",
"94 9 OFFCURVE",
"93 25 CURVE SMOOTH"
);
}
);
width = 380;
},
{
layerId = "2BF3D7EC-9255-448B-A62B-3A7110FF42CA";
name = Bold;
paths = (
{
closed = 1;
nodes = (
"287 0 LINE SMOOTH",
"314 0 OFFCURVE",
"329 15 OFFCURVE",
"329 41 CURVE SMOOTH",
"329 108 LINE SMOOTH",
"329 137 OFFCURVE",
"316 150 OFFCURVE",
"287 150 CURVE SMOOTH",
"230 150 LINE SMOOTH",
"229 150 OFFCURVE",
"228 153 OFFCURVE",
"227 157 CURVE",
"214 228 OFFCURVE",
"212 308 OFFCURVE",
"212 389 CURVE SMOOTH",
"212 461 LINE SMOOTH",
"212 487 OFFCURVE",
"213 513 OFFCURVE",
"213 539 CURVE SMOOTH",
"213 593 OFFCURVE",
"211 646 OFFCURVE",
"205 686 CURVE SMOOTH",
"202 711 OFFCURVE",
"193 725 OFFCURVE",
"165 725 CURVE SMOOTH",
"117 725 LINE SMOOTH",
"92 725 OFFCURVE",
"65 709 OFFCURVE",
"76 678 CURVE",
"76 679 LINE",
"92 623 OFFCURVE",
"97 559 OFFCURVE",
"97 488 CURVE SMOOTH",
"97 443 OFFCURVE",
"94 395 OFFCURVE",
"92 345 CURVE SMOOTH",
"91 289 OFFCURVE",
"88 230 OFFCURVE",
"88 171 CURVE SMOOTH",
"88 128 OFFCURVE",
"89 84 OFFCURVE",
"92 40 CURVE SMOOTH",
"94 15 OFFCURVE",
"106 0 OFFCURVE",
"133 0 CURVE SMOOTH"
);
}
);
width = 402;
}
);
unicode = 006C;
},
{
color = 7;
glyphname = m;
lastChange = "2014-03-15 20:44:14 -0500";
layers = (
{
layerId = "6B6936E6-7670-4A82-900D-EAF583C971AF";
name = Regular;
paths = (
{
closed = 1;
nodes = (
"580 528 OFFCURVE",
"630 560 OFFCURVE",
"707 560 CURVE SMOOTH",
"821 560 OFFCURVE",
"881 468 OFFCURVE",
"885 330 CURVE SMOOTH",
"895 15 LINE SMOOTH",
"895 5 OFFCURVE",
"890 0 OFFCURVE",
"880 0 CURVE SMOOTH",
"777 0 LINE SMOOTH",
"767 0 OFFCURVE",
"762 6 OFFCURVE",
"763 16 CURVE SMOOTH",
"795 342 LINE",
"795 438 OFFCURVE",
"773 488 OFFCURVE",
"697 488 CURVE SMOOTH",
"603 488 OFFCURVE",
"556 407 OFFCURVE",
"551 309 CURVE SMOOTH",
"537 15 LINE SMOOTH",
"536 5 OFFCURVE",
"531 0 OFFCURVE",
"521 0 CURVE SMOOTH",
"428 0 LINE SMOOTH",
"418 0 OFFCURVE",
"413 6 OFFCURVE",
"414 16 CURVE SMOOTH",
"456 347 LINE",
"464 457 OFFCURVE",
"419 492 OFFCURVE",
"342 492 CURVE SMOOTH",
"260 492 OFFCURVE",
"207 406 OFFCURVE",
"207 309 CURVE SMOOTH",
"207 15 LINE SMOOTH",
"207 5 OFFCURVE",
"202 0 OFFCURVE",
"192 0 CURVE SMOOTH",
"87 0 LINE SMOOTH",
"77 0 OFFCURVE",
"72 5 OFFCURVE",
"73 15 CURVE SMOOTH",
"106 532 LINE SMOOTH",
"107 542 OFFCURVE",
"112 547 OFFCURVE",
"122 547 CURVE SMOOTH",
"181 547 LINE SMOOTH",
"191 547 OFFCURVE",
"196 541 OFFCURVE",
"195 531 CURVE SMOOTH",
"191 495 LINE SMOOTH",
"189 481 OFFCURVE",
"197 478 OFFCURVE",
"206 490 CURVE SMOOTH",
"245 538 OFFCURVE",
"296 560 OFFCURVE",
"353 560 CURVE SMOOTH",
"426 560 OFFCURVE",
"487 526 OFFCURVE",
"518 461 CURVE SMOOTH",
"523 450 OFFCURVE",
"530 450 OFFCURVE",
"537 460 CURVE SMOOTH"
);
}
);
width = 968;
},
{
layerId = "2BF3D7EC-9255-448B-A62B-3A7110FF42CA";
name = Bold;
paths = (
{
closed = 1;
nodes = (
"203 489 LINE",
"201 486 LINE"
);
},
{
closed = 1;
nodes = (
"220 477 LINE",
"220 481 LINE"
);
},
{
closed = 1;
nodes = (
"523 456 LINE",
"521 458 LINE"
);
},
{
closed = 1;
nodes = (
"304 559 OFFCURVE",
"260 543 OFFCURVE",
"224 511 CURVE",
"224 512 LINE",
"226 534 OFFCURVE",
"215 547 OFFCURVE",
"192 547 CURVE SMOOTH",
"137 547 LINE SMOOTH",
"117 547 OFFCURVE",
"105 537 OFFCURVE",
"104 515 CURVE SMOOTH",
"73 34 LINE",
"73 15 OFFCURVE",
"84 0 OFFCURVE",
"105 0 CURVE SMOOTH",
"202 0 LINE SMOOTH",
"224 0 OFFCURVE",
"235 11 OFFCURVE",
"235 33 CURVE SMOOTH",
"235 307 LINE SMOOTH",
"235 387 OFFCURVE",
"277 458 OFFCURVE",
"342 458 CURVE SMOOTH",
"401 458 OFFCURVE",
"436 431 OFFCURVE",
"430 343 CURVE",
"430 345 LINE",
"391 35 LINE SMOOTH",
"389 13 OFFCURVE",
"400 0 OFFCURVE",
"422 0 CURVE SMOOTH",
"509 0 LINE SMOOTH",
"531 0 OFFCURVE",
"541 10 OFFCURVE",
"543 31 CURVE",
"546 122 OFFCURVE",
"552 214 OFFCURVE",
"556 306 CURVE SMOOTH",
"559 388 OFFCURVE",
"598 455 OFFCURVE",
"673 455 CURVE SMOOTH",
"729 455 OFFCURVE",
"746 416 OFFCURVE",
"746 339 CURVE",
"716 35 LINE",
"716 17 OFFCURVE",
"727 0 OFFCURVE",
"748 0 CURVE SMOOTH",
"844 0 LINE SMOOTH",
"865 0 OFFCURVE",
"876 11 OFFCURVE",
"876 33 CURVE",
"867 327 LINE SMOOTH",
"863 466 OFFCURVE",
"801 559 OFFCURVE",
"682 559 CURVE SMOOTH",
"608 559 OFFCURVE",
"557 530 OFFCURVE",
"516 469 CURVE",
"481 528 OFFCURVE",
"421 559 OFFCURVE",
"352 559 CURVE SMOOTH"
);
}
);
width = 949;
}
);
unicode = 006D;
},
{
color = 7;
glyphname = n;
lastChange = "2014-03-15 20:44:14 -0500";
layers = (
{
anchors = (
{
name = bottom;
position = "{310, 0}";
},
{
name = top;
position = "{310, 547}";
}
);
layerId = "6B6936E6-7670-4A82-900D-EAF583C971AF";
name = Regular;
paths = (
{
closed = 1;
nodes = (
"583 25 LINE SMOOTH",
"585 9 OFFCURVE",
"576 0 OFFCURVE",
"559 0 CURVE SMOOTH",
"461 0 LINE SMOOTH",
"444 0 OFFCURVE",
"436 9 OFFCURVE",
"437 25 CURVE SMOOTH",
"455 332 LINE",
"455 436 OFFCURVE",
"424 487 OFFCURVE",
"344 487 CURVE SMOOTH",
"234 487 OFFCURVE",
"182 421 OFFCURVE",
"182 314 CURVE",
"206 25 LINE SMOOTH",
"207 9 OFFCURVE",
"198 0 OFFCURVE",
"182 0 CURVE SMOOTH",
"97 0 LINE SMOOTH",
"81 0 OFFCURVE",
"72 9 OFFCURVE",
"73 25 CURVE SMOOTH",
"86 528 LINE SMOOTH",
"87 543 OFFCURVE",
"95 552 OFFCURVE",
"111 552 CURVE SMOOTH",
"153 552 LINE SMOOTH",
"169 552 OFFCURVE",
"177 543 OFFCURVE",
"177 527 CURVE SMOOTH",
"177 523 LINE SMOOTH",
"177 502 OFFCURVE",
"190 496 OFFCURVE",
"206 508 CURVE SMOOTH",
"245 535 OFFCURVE",
"294 560 OFFCURVE",
"354 560 CURVE SMOOTH",
"479 560 OFFCURVE",
"534 481 OFFCURVE",
"550 330 CURVE SMOOTH"
);
}
);
width = 656.275;
},
{
layerId = "2BF3D7EC-9255-448B-A62B-3A7110FF42CA";
name = Bold;
paths = (
{
closed = 1;
nodes = (
"554 328 LINE SMOOTH",
"538 476 OFFCURVE",
"480 559 OFFCURVE",
"353 559 CURVE SMOOTH",
"293 559 OFFCURVE",
"245 535 OFFCURVE",
"207 509 CURVE",
"207 510 LINE SMOOTH",
"207 537 OFFCURVE",
"193 552 OFFCURVE",
"166 552 CURVE SMOOTH",
"127 552 LINE SMOOTH",
"100 552 OFFCURVE",
"87 536 OFFCURVE",
"85 511 CURVE",
"73 42 LINE",
"71 16 OFFCURVE",
"87 0 OFFCURVE",
"114 0 CURVE SMOOTH",
"193 0 LINE SMOOTH",
"220 0 OFFCURVE",
"236 16 OFFCURVE",
"234 43 CURVE SMOOTH",
"211 313 LINE",
"212 400 OFFCURVE",
"255 454 OFFCURVE",
"344 454 CURVE SMOOTH",
"403 454 OFFCURVE",
"427 407 OFFCURVE",
"429 329 CURVE",
"412 43 LINE",
"413 20 OFFCURVE",
"427 0 OFFCURVE",
"453 0 CURVE SMOOTH",
"544 0 LINE SMOOTH",
"572 0 OFFCURVE",
"587 18 OFFCURVE",
"585 44 CURVE SMOOTH"
);
}
);
width = 658.177;
}
);
unicode = 006E;
},
{
color = 7;
glyphname = o;
lastChange = "2014-03-15 20:44:14 -0500";
layers = (
{
anchors = (
{
name = _;
position = "{331, 547}";
},
{
name = hookabovecomb;
position = "{324, 551}";
},
{
name = horn;
position = "{515, 392}";
},
{
name = top;
position = "{324, 547}";
}
);
layerId = "6B6936E6-7670-4A82-900D-EAF583C971AF";
name = Regular;
paths = (
{
closed = 1;
nodes = (
"228 494 OFFCURVE",
"168 416 OFFCURVE",
"168 289 CURVE SMOOTH",
"168 161 OFFCURVE",
"227 141 OFFCURVE",
"324 141 CURVE SMOOTH",
"420 141 OFFCURVE",
"480 162 OFFCURVE",
"480 289 CURVE SMOOTH",
"480 414 OFFCURVE",
"420 494 OFFCURVE",
"324 494 CURVE SMOOTH"
);
},
{
closed = 1;
nodes = (
"480 560 OFFCURVE",
"575 453 OFFCURVE",
"575 273 CURVE SMOOTH",
"575 94 OFFCURVE",
"480 -14 OFFCURVE",
"324 -14 CURVE SMOOTH",
"167 -14 OFFCURVE",
"73 94 OFFCURVE",
"73 273 CURVE SMOOTH",
"73 453 OFFCURVE",
"167 560 OFFCURVE",
"324 560 CURVE SMOOTH"
);
}
);
width = 648;
},
{
layerId = "2BF3D7EC-9255-448B-A62B-3A7110FF42CA";
name = Bold;
paths = (
{
closed = 1;
nodes = (
"168 559 OFFCURVE",
"73 453 OFFCURVE",
"73 273 CURVE SMOOTH",
"73 95 OFFCURVE",
"168 -13 OFFCURVE",
"326 -13 CURVE SMOOTH",
"483 -13 OFFCURVE",
"578 95 OFFCURVE",
"578 273 CURVE SMOOTH",
"578 453 OFFCURVE",
"483 559 OFFCURVE",
"326 559 CURVE SMOOTH"
);
},
{
closed = 1;
nodes = (
"404 460 OFFCURVE",
"453 393 OFFCURVE",
"453 288 CURVE SMOOTH",
"453 185 OFFCURVE",
"404 169 OFFCURVE",
"326 169 CURVE SMOOTH",
"247 169 OFFCURVE",
"199 185 OFFCURVE",
"199 288 CURVE SMOOTH",
"199 395 OFFCURVE",
"248 460 OFFCURVE",
"326 460 CURVE SMOOTH"
);
}
);
width = 651;
}
);
unicode = 006F;
},
{
color = 7;
glyphname = p;
lastChange = "2014-03-15 20:44:14 -0500";
layers = (
{
hints = (
{
place = "{141.000000, 115.000000}";
},
{
horizontal = 1;
place = "{497.000000, 63.000000}";
},
{
horizontal = 1;
place = "{-3.000000, 140.000000}";
},
{
place = "{562.000000, 63.000000}";
}
);
layerId = "6B6936E6-7670-4A82-900D-EAF583C971AF";
name = Regular;
paths = (
{
closed = 1;
nodes = (
"186 -184 LINE SMOOTH",
"184 -200 OFFCURVE",
"177 -208 OFFCURVE",
"161 -208 CURVE SMOOTH",
"97 -208 LINE SMOOTH",
"81 -208 OFFCURVE",
"71 -199 OFFCURVE",
"74 -182 CURVE SMOOTH",
"113 123 LINE",
"114 514 LINE SMOOTH",
"113 530 OFFCURVE",
"123 539 OFFCURVE",
"139 539 CURVE SMOOTH",
"177 539 LINE SMOOTH",
"194 539 OFFCURVE",
"203 529 OFFCURVE",
"199 512 CURVE SMOOTH",
"199 509 LINE SMOOTH",
"194 487 OFFCURVE",
"201 484 OFFCURVE",
"217 501 CURVE SMOOTH",
"253 541 OFFCURVE",
"301 560 OFFCURVE",
"364 560 CURVE",
"497 560 OFFCURVE",
"598 445 OFFCURVE",
"598 273 CURVE SMOOTH",
"598 67 OFFCURVE",
"503 -14 OFFCURVE",
"364 -14 CURVE SMOOTH",
"338 -14 OFFCURVE",
"261 -15 OFFCURVE",
"224 26 CURVE SMOOTH",
"209 43 OFFCURVE",
"200 40 OFFCURVE",
"198 18 CURVE SMOOTH"
);
},
{
closed = 1;
nodes = (
"531 409 OFFCURVE",
"472 488 OFFCURVE",
"377 488 CURVE SMOOTH",
"282 488 OFFCURVE",
"225 409 OFFCURVE",
"225 277 CURVE SMOOTH",
"225 144 OFFCURVE",
"287 123 OFFCURVE",
"382 123 CURVE SMOOTH",
"477 123 OFFCURVE",
"531 144 OFFCURVE",
"531 277 CURVE SMOOTH"
);
}
);
width = 671;
},
{
layerId = "2BF3D7EC-9255-448B-A62B-3A7110FF42CA";
name = Bold;
paths = (
{
closed = 1;
nodes = (
"503 -13 OFFCURVE",
"599 68 OFFCURVE",
"599 273 CURVE SMOOTH",
"599 444 OFFCURVE",
"497 559 OFFCURVE",
"363 559 CURVE SMOOTH",
"307 559 OFFCURVE",
"264 546 OFFCURVE",
"228 514 CURVE",
"225 532 OFFCURVE",
"210 540 OFFCURVE",
"188 540 CURVE SMOOTH",
"153 540 LINE SMOOTH",
"127 540 OFFCURVE",
"109 524 OFFCURVE",
"111 497 CURVE",
"111 376 OFFCURVE",
"110 256 OFFCURVE",
"110 136 CURVE",
"74 -148 LINE",
"69 -176 OFFCURVE",
"87 -194 OFFCURVE",
"114 -194 CURVE SMOOTH",
"173 -194 LINE SMOOTH",
"200 -194 OFFCURVE",
"213 -181 OFFCURVE",
"215 -155 CURVE SMOOTH",
"226 23 LINE",
"268 -12 OFFCURVE",
"338 -13 OFFCURVE",
"363 -13 CURVE SMOOTH"
);
},
{
closed = 1;
nodes = (
"500 169 OFFCURVE",
"456 152 OFFCURVE",
"379 152 CURVE SMOOTH",
"302 152 OFFCURVE",
"252 169 OFFCURVE",
"252 277 CURVE SMOOTH",
"252 388 OFFCURVE",
"297 455 OFFCURVE",
"375 455 CURVE SMOOTH",
"452 455 OFFCURVE",
"500 388 OFFCURVE",
"500 277 CURVE SMOOTH"
);
}
);
width = 672;
}
);
rightKerningGroup = RoundRight;
unicode = 0070;
},
{
color = 7;
glyphname = q;
lastChange = "2014-03-15 20:44:14 -0500";
layers = (
{
associatedMasterId = "6B6936E6-7670-4A82-900D-EAF583C971AF";
layerId = "550EFC85-22CC-4D43-B167-1DAEAAA2FB65";
name = "Regular May 31 12, 16:28";
paths = (
{
closed = 1;
nodes = (
"157 153 OFFCURVE",
"212 136 OFFCURVE",
"308 136 CURVE SMOOTH",
"403 136 OFFCURVE",
"463 153 OFFCURVE",
"463 286 CURVE SMOOTH",
"463 418 OFFCURVE",
"405 498 OFFCURVE",
"310 498 CURVE SMOOTH",
"215 498 OFFCURVE",
"157 418 OFFCURVE",
"157 286 CURVE SMOOTH"
);
},
{
closed = 1;
nodes = (
"497 82 LINE",
"459 17 OFFCURVE",
"402 -14 OFFCURVE",
"321 -14 CURVE SMOOTH",
"189 -14 OFFCURVE",
"98 101 OFFCURVE",
"98 273 CURVE SMOOTH",
"98 445 OFFCURVE",
"189 560 OFFCURVE",
"321 560 CURVE SMOOTH",
"402 560 OFFCURVE",
"459 529 OFFCURVE",
"497 464 CURVE",
"511 547 LINE",
"598 547 LINE",
"561 -118 LINE SMOOTH",
"557 -208 LINE",
"474 -208 LINE"
);
}
);
width = 718;
},
{
layerId = "6B6936E6-7670-4A82-900D-EAF583C971AF";
name = Regular;
paths = (
{
closed = 1;
nodes = (
"142 153 OFFCURVE",
"188 136 OFFCURVE",
"283 136 CURVE SMOOTH",
"378 136 OFFCURVE",
"439 153 OFFCURVE",
"439 286 CURVE SMOOTH",
"439 418 OFFCURVE",
"380 496 OFFCURVE",
"285 496 CURVE SMOOTH",
"190 496 OFFCURVE",
"142 418 OFFCURVE",
"142 286 CURVE SMOOTH"
);
},
{
closed = 1;
nodes = (
"467 36 LINE SMOOTH",
"470 59 OFFCURVE",
"460 62 OFFCURVE",
"445 45 CURVE SMOOTH",
"408 5 OFFCURVE",
"359 -14 OFFCURVE",
"296 -14 CURVE SMOOTH",
"164 -14 OFFCURVE",
"73 101 OFFCURVE",
"73 273 CURVE SMOOTH",
"73 445 OFFCURVE",
"164 560 OFFCURVE",
"296 560 CURVE SMOOTH",
"362 560 OFFCURVE",
"412 539 OFFCURVE",
"449 497 CURVE SMOOTH",
"463 480 OFFCURVE",
"475 482 OFFCURVE",
"479 503 CURVE SMOOTH",
"483 523 LINE SMOOTH",
"486 538 OFFCURVE",
"494 545 OFFCURVE",
"509 545 CURVE SMOOTH",
"548 545 LINE SMOOTH",
"565 545 OFFCURVE",
"573 536 OFFCURVE",
"572 520 CURVE SMOOTH",
"536 -167 LINE SMOOTH",
"535 -180 OFFCURVE",
"531 -198 OFFCURVE",
"549 -198 CURVE SMOOTH",
"638 -196 LINE SMOOTH",
"653 -196 OFFCURVE",
"649 -219 OFFCURVE",
"637 -230 CURVE SMOOTH",
"567 -295 LINE SMOOTH",
"557 -304 OFFCURVE",
"549 -307 OFFCURVE",
"537 -307 CURVE SMOOTH",
"453 -308 LINE SMOOTH",
"437 -308 OFFCURVE",
"428 -299 OFFCURVE",
"430 -282 CURVE SMOOTH"
);
}
);
width = 720.711;
},
{
layerId = "2BF3D7EC-9255-448B-A62B-3A7110FF42CA";
name = Bold;
paths = (
{
closed = 1;
nodes = (
"440 52 OFFCURVE",
"439 51 OFFCURVE",
"439 49 CURVE",
"440 54 LINE"
);
},
{
closed = 1;
nodes = (
"460 488 LINE",
"458 490 OFFCURVE",
"457 491 OFFCURVE",
"456 493 CURVE",
"458 493 OFFCURVE",
"459 492 OFFCURVE",
"462 491 CURVE"
);
},
{
closed = 1;
nodes = (
"405 -242 LINE",
"403 -269 OFFCURVE",
"418 -287 OFFCURVE",
"445 -287 CURVE SMOOTH",
"524 -286 LINE SMOOTH",
"540 -286 OFFCURVE",
"551 -282 OFFCURVE",
"564 -270 CURVE SMOOTH",
"629 -210 LINE SMOOTH",
"651 -189 OFFCURVE",
"651 -145 OFFCURVE",
"618 -145 CURVE SMOOTH",
"538 -147 LINE",
"541 -146 OFFCURVE",
"541 -144 OFFCURVE",
"541 -143 CURVE SMOOTH",
"541 -138 LINE",
"575 502 LINE",
"574 526 OFFCURVE",
"560 545 OFFCURVE",
"534 545 CURVE SMOOTH",
"498 545 LINE SMOOTH",
"473 545 OFFCURVE",
"459 534 OFFCURVE",
"455 509 CURVE",
"452 497 LINE",
"413 538 OFFCURVE",
"362 559 OFFCURVE",
"299 559 CURVE SMOOTH",
"165 559 OFFCURVE",
"73 444 OFFCURVE",
"73 273 CURVE SMOOTH",
"73 102 OFFCURVE",
"165 -13 OFFCURVE",
"299 -13 CURVE SMOOTH",
"356 -13 OFFCURVE",
"402 2 OFFCURVE",
"437 34 CURVE"
);
},
{
closed = 1;
nodes = (
"174 396 OFFCURVE",
"212 462 OFFCURVE",
"289 462 CURVE SMOOTH",
"366 462 OFFCURVE",
"414 396 OFFCURVE",
"414 285 CURVE SMOOTH",
"414 178 OFFCURVE",
"364 164 OFFCURVE",
"287 164 CURVE SMOOTH",
"211 164 OFFCURVE",
"174 178 OFFCURVE",
"174 285 CURVE SMOOTH"
);
}
);
width = 717.333;
}
);
leftKerningGroup = Round;
unicode = 0071;
},
{
color = 7;
glyphname = r;
lastChange = "2014-03-15 20:44:14 -0500";
layers = (
{
anchors = (
{
name = bottom;
position = "{191, 0}";
},
{
name = top;
position = "{191, 547}";
}
);
layerId = "6B6936E6-7670-4A82-900D-EAF583C971AF";
name = Regular;
paths = (
{
closed = 1;
nodes = (
"401 482 LINE SMOOTH",
"401 464 OFFCURVE",
"392 460 OFFCURVE",
"374 463 CURVE SMOOTH",
"362 465 OFFCURVE",
"350 465 OFFCURVE",
"333 465 CURVE SMOOTH",
"232 465 OFFCURVE",
"192 433 OFFCURVE",
"192 315 CURVE",
"218 25 LINE SMOOTH",
"219 9 OFFCURVE",
"211 0 OFFCURVE",
"194 0 CURVE SMOOTH",
"96 0 LINE SMOOTH",
"79 0 OFFCURVE",
"71 10 OFFCURVE",
"74 27 CURVE SMOOTH",
"109 225 OFFCURVE",
"114 311 OFFCURVE",
"108 517 CURVE SMOOTH",
"108 533 OFFCURVE",
"116 542 OFFCURVE",
"132 542 CURVE SMOOTH",
"166 542 LINE SMOOTH",
"182 542 OFFCURVE",
"190 535 OFFCURVE",
"190 522 CURVE SMOOTH",
"190 502 OFFCURVE",
"203 496 OFFCURVE",
"219 507 CURVE SMOOTH",
"250 526 OFFCURVE",
"300 550 OFFCURVE",
"360 550 CURVE SMOOTH",
"367 550 OFFCURVE",
"372 550 OFFCURVE",
"380 549 CURVE SMOOTH",
"393 547 OFFCURVE",
"400 538 OFFCURVE",
"400 523 CURVE SMOOTH"
);
}
);
width = 474;
},
{
layerId = "2BF3D7EC-9255-448B-A62B-3A7110FF42CA";
name = Bold;
paths = (
{
closed = 1;
nodes = (
"415 506 LINE SMOOTH",
"414 528 OFFCURVE",
"402 545 OFFCURVE",
"380 549 CURVE",
"373 550 OFFCURVE",
"367 550 OFFCURVE",
"360 550 CURVE SMOOTH",
"302 550 OFFCURVE",
"251 526 OFFCURVE",
"220 507 CURVE",
"219 530 OFFCURVE",
"205 542 OFFCURVE",
"179 542 CURVE SMOOTH",
"147 542 LINE SMOOTH",
"120 542 OFFCURVE",
"106 527 OFFCURVE",
"106 500 CURVE SMOOTH",
"107 457 OFFCURVE",
"108 418 OFFCURVE",
"108 384 CURVE SMOOTH",
"108 268 OFFCURVE",
"100 189 OFFCURVE",
"74 47 CURVE SMOOTH",
"69 18 OFFCURVE",
"84 0 OFFCURVE",
"113 0 CURVE SMOOTH",
"205 0 LINE SMOOTH",
"234 0 OFFCURVE",
"248 16 OFFCURVE",
"246 43 CURVE SMOOTH",
"222 314 LINE",
"223 407 OFFCURVE",
"254 433 OFFCURVE",
"334 433 CURVE SMOOTH",
"348 433 OFFCURVE",
"359 433 OFFCURVE",
"370 431 CURVE",
"401 427 OFFCURVE",
"416 435 OFFCURVE",
"416 468 CURVE"
);
}
);
width = 489;
}
);
unicode = 0072;
},
{
color = 7;
glyphname = s;
lastChange = "2014-03-15 20:44:14 -0500";
layers = (
{
anchors = (
{
name = bottom;
position = "{274, 0}";
},
{
name = top;
position = "{274, 547}";
}
);
layerId = "6B6936E6-7670-4A82-900D-EAF583C971AF";
name = Regular;
paths = (
{
closed = 1;
nodes = (
"462 486 LINE SMOOTH",
"462 467 OFFCURVE",
"451 460 OFFCURVE",
"434 468 CURVE SMOOTH",
"391 485 OFFCURVE",
"346 494 OFFCURVE",
"298 494 CURVE SMOOTH",
"208 494 OFFCURVE",
"159 461 OFFCURVE",
"159 407 CURVE SMOOTH",
"159 359 OFFCURVE",
"188 337 OFFCURVE",
"284 316 CURVE SMOOTH",
"315 309 LINE SMOOTH",
"442 282 OFFCURVE",
"491 239 OFFCURVE",
"491 149 CURVE SMOOTH",
"491 47 OFFCURVE",
"406 -14 OFFCURVE",
"265 -14 CURVE SMOOTH",
"212 -14 OFFCURVE",
"156 -5 OFFCURVE",
"94 14 CURVE SMOOTH",
"80 18 OFFCURVE",
"73 27 OFFCURVE",
"73 41 CURVE SMOOTH",
"73 139 LINE SMOOTH",
"73 158 OFFCURVE",
"85 165 OFFCURVE",
"102 157 CURVE SMOOTH",
"158 132 OFFCURVE",
"213 119 OFFCURVE",
"267 119 CURVE SMOOTH",
"385 119 OFFCURVE",
"375 218 OFFCURVE",
"285 239 CURVE SMOOTH",
"235 250 LINE SMOOTH",
"124 274 OFFCURVE",
"77 314 OFFCURVE",
"77 399 CURVE SMOOTH",
"77 502 OFFCURVE",
"153 560 OFFCURVE",
"287 560 CURVE SMOOTH",
"345 560 OFFCURVE",
"397 553 OFFCURVE",
"442 538 CURVE SMOOTH",
"456 533 OFFCURVE",
"462 524 OFFCURVE",
"462 510 CURVE SMOOTH"
);
}
);
width = 564;
},
{
layerId = "2BF3D7EC-9255-448B-A62B-3A7110FF42CA";
name = Bold;
paths = (
{
closed = 1;
nodes = (
"473 494 LINE SMOOTH",
"473 515 OFFCURVE",
"463 530 OFFCURVE",
"441 538 CURVE SMOOTH",
"397 553 OFFCURVE",
"347 559 OFFCURVE",
"291 559 CURVE SMOOTH",
"154 559 OFFCURVE",
"77 499 OFFCURVE",
"77 390 CURVE SMOOTH",
"77 300 OFFCURVE",
"125 258 OFFCURVE",
"239 233 CURVE SMOOTH",
"254 230 OFFCURVE",
"271 226 OFFCURVE",
"285 223 CURVE",
"315 215 OFFCURVE",
"335 196 OFFCURVE",
"335 180 CURVE SMOOTH",
"335 163 OFFCURVE",
"315 148 OFFCURVE",
"272 148 CURVE SMOOTH",
"225 148 OFFCURVE",
"176 159 OFFCURVE",
"126 182 CURVE",
"127 182 LINE",
"95 197 OFFCURVE",
"73 183 OFFCURVE",
"73 148 CURVE SMOOTH",
"73 57 LINE SMOOTH",
"73 34 OFFCURVE",
"84 21 OFFCURVE",
"107 14 CURVE",
"106 14 LINE",
"166 -5 OFFCURVE",
"220 -13 OFFCURVE",
"271 -13 CURVE SMOOTH",
"413 -13 OFFCURVE",
"500 50 OFFCURVE",
"500 157 CURVE SMOOTH",
"500 253 OFFCURVE",
"450 297 OFFCURVE",
"321 325 CURVE SMOOTH",
"292 332 LINE SMOOTH",
"217 349 OFFCURVE",
"190 365 OFFCURVE",
"190 398 CURVE SMOOTH",
"190 437 OFFCURVE",
"230 460 OFFCURVE",
"301 460 CURVE SMOOTH",
"343 460 OFFCURVE",
"383 452 OFFCURVE",
"422 437 CURVE",
"420 438 LINE",
"452 423 OFFCURVE",
"473 435 OFFCURVE",
"473 472 CURVE SMOOTH"
);
}
);
width = 573;
}
);
unicode = 0073;
},
{
color = 7;
glyphname = t;
lastChange = "2014-03-15 20:44:14 -0500";
layers = (
{
anchors = (
{
name = bottom;
position = "{282, 0}";
},
{
name = caron;
position = "{317, 616}";
},
{
name = center;
position = "{236, 273}";
},
{
name = circumflexbelowcomb;
position = "{290, -25}";
},
{
name = top;
position = "{187, 661}";
}
);
layerId = "6B6936E6-7670-4A82-900D-EAF583C971AF";
name = Regular;
paths = (
{
closed = 1;
nodes = (
"214 683 LINE SMOOTH",
"230 683 OFFCURVE",
"238 674 OFFCURVE",
"238 658 CURVE SMOOTH",
"235 572 LINE SMOOTH",
"234 556 OFFCURVE",
"243 547 OFFCURVE",
"259 547 CURVE SMOOTH",
"336 547 LINE SMOOTH",
"352 547 OFFCURVE",
"360 538 OFFCURVE",
"360 522 CURVE SMOOTH",
"360 501 LINE SMOOTH",
"360 486 OFFCURVE",
"352 477 OFFCURVE",
"336 477 CURVE SMOOTH",
"258 477 LINE SMOOTH",
"242 477 OFFCURVE",
"234 469 OFFCURVE",
"233 453 CURVE SMOOTH",
"229 239 LINE SMOOTH",
"227 120 OFFCURVE",
"222 124 OFFCURVE",
"322 124 CURVE SMOOTH",
"350 124 LINE SMOOTH",
"366 124 OFFCURVE",
"374 115 OFFCURVE",
"374 99 CURVE SMOOTH",
"374 24 LINE SMOOTH",
"374 9 OFFCURVE",
"365 0 OFFCURVE",
"350 0 CURVE SMOOTH",
"322 0 LINE SMOOTH",
"147 0 OFFCURVE",
"117 10 OFFCURVE",
"125 180 CURVE SMOOTH",
"138 453 LINE SMOOTH",
"139 468 OFFCURVE",
"130 477 OFFCURVE",
"114 477 CURVE SMOOTH",
"94 477 LINE SMOOTH",
"80 477 OFFCURVE",
"73 486 OFFCURVE",
"73 501 CURVE SMOOTH",
"73 522 LINE SMOOTH",
"73 539 OFFCURVE",
"81 547 OFFCURVE",
"97 547 CURVE SMOOTH",
"115 547 LINE SMOOTH",
"130 547 OFFCURVE",
"139 555 OFFCURVE",
"140 571 CURVE SMOOTH",
"143 659 LINE SMOOTH",
"143 674 OFFCURVE",
"152 683 OFFCURVE",
"168 683 CURVE SMOOTH"
);
}
);
width = 447;
},
{
layerId = "2BF3D7EC-9255-448B-A62B-3A7110FF42CA";
name = Bold;
paths = (
{
closed = 1;
nodes = (
"180 674 LINE SMOOTH",
"154 674 OFFCURVE",
"139 657 OFFCURVE",
"138 634 CURVE SMOOTH",
"135 552 LINE",
"135 550 OFFCURVE",
"134 547 OFFCURVE",
"131 547 CURVE SMOOTH",
"114 547 LINE SMOOTH",
"87 547 OFFCURVE",
"73 534 OFFCURVE",
"73 505 CURVE SMOOTH",
"73 485 LINE SMOOTH",
"73 459 OFFCURVE",
"86 444 OFFCURVE",
"111 444 CURVE SMOOTH",
"130 444 LINE SMOOTH",
"132 444 OFFCURVE",
"134 444 OFFCURVE",
"134 442 CURVE",
"121 187 LINE",
"121 172 OFFCURVE",
"121 158 OFFCURVE",
"121 146 CURVE SMOOTH",
"121 9 OFFCURVE",
"161 0 OFFCURVE",
"324 0 CURVE SMOOTH",
"350 0 LINE SMOOTH",
"375 0 OFFCURVE",
"391 15 OFFCURVE",
"391 41 CURVE SMOOTH",
"391 111 LINE SMOOTH",
"391 138 OFFCURVE",
"377 153 OFFCURVE",
"350 153 CURVE SMOOTH",
"324 153 LINE SMOOTH",
"263 153 OFFCURVE",
"255 151 OFFCURVE",
"255 195 CURVE SMOOTH",
"255 208 OFFCURVE",
"256 223 OFFCURVE",
"256 241 CURVE SMOOTH",
"259 441 LINE",
"259 440 LINE",
"259 443 OFFCURVE",
"261 444 OFFCURVE",
"264 444 CURVE SMOOTH",
"337 444 LINE SMOOTH",
"364 444 OFFCURVE",
"378 459 OFFCURVE",
"378 485 CURVE SMOOTH",
"378 505 LINE SMOOTH",
"378 532 OFFCURVE",
"364 547 OFFCURVE",
"337 547 CURVE SMOOTH",
"265 547 LINE SMOOTH",
"263 547 OFFCURVE",
"261 548 OFFCURVE",
"261 551 CURVE",
"264 631 LINE",
"264 658 OFFCURVE",
"250 674 OFFCURVE",
"223 674 CURVE SMOOTH"
);
}
);
width = 464;
}
);
unicode = 0074;
},
{
color = 7;
glyphname = u;
lastChange = "2014-03-15 20:44:14 -0500";
layers = (
{
anchors = (
{
name = hookabovecomb;
position = "{288, 524}";
},
{
name = horn;
position = "{513, 446}";
},
{
name = ogonek;
position = "{484, 5}";
},
{
name = top;
position = "{289, 547}";
}
);
layerId = "6B6936E6-7670-4A82-900D-EAF583C971AF";
name = Regular;
paths = (
{
closed = 1;
nodes = (
"73 522 LINE SMOOTH",
"73 539 OFFCURVE",
"81 547 OFFCURVE",
"97 547 CURVE SMOOTH",
"134 547 LINE SMOOTH",
"150 547 OFFCURVE",
"159 539 OFFCURVE",
"158 522 CURVE SMOOTH",
"149 288 LINE",
"149 133 OFFCURVE",
"188 123 OFFCURVE",
"269 123 CURVE SMOOTH",
"366 123 OFFCURVE",
"427 161 OFFCURVE",
"426 296 CURVE SMOOTH",
"425 523 LINE SMOOTH",
"425 539 OFFCURVE",
"434 546 OFFCURVE",
"450 547 CURVE SMOOTH",
"498 548 LINE SMOOTH",
"513 549 OFFCURVE",
"522 540 OFFCURVE",
"522 524 CURVE SMOOTH",
"523 26 LINE SMOOTH",
"523 10 OFFCURVE",
"514 2 OFFCURVE",
"498 1 CURVE SMOOTH",
"461 0 LINE SMOOTH",
"445 0 OFFCURVE",
"437 9 OFFCURVE",
"438 25 CURVE SMOOTH",
"438 38 LINE SMOOTH",
"439 60 OFFCURVE",
"428 64 OFFCURVE",
"412 47 CURVE SMOOTH",
"373 6 OFFCURVE",
"325 -14 OFFCURVE",
"265 -14 CURVE SMOOTH",
"139 -14 OFFCURVE",
"73 65 OFFCURVE",
"73 216 CURVE SMOOTH"
);
}
);
width = 596;
},
{
layerId = "2BF3D7EC-9255-448B-A62B-3A7110FF42CA";
name = Bold;
paths = (
{
closed = 1;
nodes = (
"73 220 LINE SMOOTH",
"73 67 OFFCURVE",
"141 -13 OFFCURVE",
"270 -13 CURVE SMOOTH",
"327 -13 OFFCURVE",
"374 5 OFFCURVE",
"413 41 CURVE",
"411 16 OFFCURVE",
"426 0 OFFCURVE",
"453 0 CURVE SMOOTH",
"487 1 LINE",
"514 3 OFFCURVE",
"529 16 OFFCURVE",
"529 43 CURVE",
"528 507 LINE",
"528 533 OFFCURVE",
"512 549 OFFCURVE",
"487 548 CURVE SMOOTH",
"442 547 LINE",
"415 545 OFFCURVE",
"401 534 OFFCURVE",
"401 506 CURVE SMOOTH",
"401 294 LINE SMOOTH",
"402 184 OFFCURVE",
"353 152 OFFCURVE",
"274 152 CURVE SMOOTH",
"210 152 OFFCURVE",
"181 160 OFFCURVE",
"181 286 CURVE",
"189 504 LINE SMOOTH",
"191 533 OFFCURVE",
"176 547 OFFCURVE",
"148 547 CURVE SMOOTH",
"114 547 LINE SMOOTH",
"87 547 OFFCURVE",
"73 534 OFFCURVE",
"73 505 CURVE SMOOTH"
);
}
);
width = 602;
}
);
unicode = 0075;
},
{
color = 7;
glyphname = v;
lastChange = "2014-03-15 20:44:14 -0500";
layers = (
{
layerId = "6B6936E6-7670-4A82-900D-EAF583C971AF";
name = Regular;
paths = (
{
closed = 1;
nodes = (
"75 519 LINE SMOOTH",
"69 536 OFFCURVE",
"77 547 OFFCURVE",
"95 547 CURVE SMOOTH",
"140 547 LINE SMOOTH",
"154 547 OFFCURVE",
"163 541 OFFCURVE",
"168 528 CURVE SMOOTH",
"325 185 LINE SMOOTH",
"334 165 OFFCURVE",
"348 165 OFFCURVE",
"357 185 CURVE SMOOTH",
"514 528 LINE SMOOTH",
"520 541 OFFCURVE",
"528 547 OFFCURVE",
"543 547 CURVE SMOOTH",
"588 547 LINE SMOOTH",
"606 547 OFFCURVE",
"614 536 OFFCURVE",
"607 519 CURVE SMOOTH",
"414 20 LINE SMOOTH",
"409 6 OFFCURVE",
"400 0 OFFCURVE",
"386 0 CURVE SMOOTH",
"296 0 LINE SMOOTH",
"282 0 OFFCURVE",
"274 6 OFFCURVE",
"268 20 CURVE SMOOTH"
);
}
);
width = 682.518;
},
{
layerId = "2BF3D7EC-9255-448B-A62B-3A7110FF42CA";
name = Bold;
paths = (
{
closed = 1;
nodes = (
"257 30 LINE",
"266 9 OFFCURVE",
"278 0 OFFCURVE",
"300 0 CURVE SMOOTH",
"384 0 LINE SMOOTH",
"405 0 OFFCURVE",
"421 11 OFFCURVE",
"428 31 CURVE SMOOTH",
"608 496 LINE",
"607 495 LINE",
"620 526 OFFCURVE",
"605 547 OFFCURVE",
"573 547 CURVE SMOOTH",
"531 547 LINE SMOOTH",
"507 547 OFFCURVE",
"496 538 OFFCURVE",
"487 518 CURVE SMOOTH",
"342 202 LINE",
"198 518 LINE",
"199 517 LINE",
"191 538 OFFCURVE",
"177 547 OFFCURVE",
"155 547 CURVE SMOOTH",
"113 547 LINE SMOOTH",
"81 547 OFFCURVE",
"66 526 OFFCURVE",
"77 496 CURVE SMOOTH"
);
}
);
width = 684.675;
}
);
unicode = 0076;
},
{
color = 7;
glyphname = w;
lastChange = "2014-03-15 20:44:14 -0500";
layers = (
{
anchors = (
{
name = top;
position = "{431, 547}";
}
);
layerId = "6B6936E6-7670-4A82-900D-EAF583C971AF";
name = Regular;
paths = (
{
closed = 1;
nodes = (
"74 520 LINE SMOOTH",
"70 537 OFFCURVE",
"77 547 OFFCURVE",
"95 547 CURVE SMOOTH",
"135 547 LINE SMOOTH",
"149 547 OFFCURVE",
"158 541 OFFCURVE",
"162 526 CURVE SMOOTH",
"264 206 LINE SMOOTH",
"271 185 OFFCURVE",
"286 183 OFFCURVE",
"296 203 CURVE SMOOTH",
"364 330 LINE SMOOTH",
"370 342 OFFCURVE",
"379 347 OFFCURVE",
"393 347 CURVE SMOOTH",
"465 347 LINE SMOOTH",
"479 347 OFFCURVE",
"487 341 OFFCURVE",
"494 330 CURVE SMOOTH",
"567 203 LINE SMOOTH",
"578 184 OFFCURVE",
"593 185 OFFCURVE",
"599 206 CURVE SMOOTH",
"700 526 LINE SMOOTH",
"705 541 OFFCURVE",
"713 547 OFFCURVE",
"727 547 CURVE SMOOTH",
"767 547 LINE SMOOTH",
"785 547 OFFCURVE",
"793 537 OFFCURVE",
"788 520 CURVE SMOOTH",
"651 21 LINE SMOOTH",
"648 7 OFFCURVE",
"639 0 OFFCURVE",
"624 0 CURVE SMOOTH",
"540 0 LINE SMOOTH",
"526 0 OFFCURVE",
"517 6 OFFCURVE",
"512 19 CURVE SMOOTH",
"447 174 LINE SMOOTH",
"439 195 OFFCURVE",
"424 195 OFFCURVE",
"415 174 CURVE SMOOTH",
"346 18 LINE SMOOTH",
"341 6 OFFCURVE",
"332 0 OFFCURVE",
"318 0 CURVE SMOOTH",
"239 0 LINE SMOOTH",
"224 0 OFFCURVE",
"216 7 OFFCURVE",
"212 21 CURVE SMOOTH"
);
}
);
width = 862.464;
},
{
layerId = "2BF3D7EC-9255-448B-A62B-3A7110FF42CA";
name = Bold;
paths = (
{
closed = 1;
nodes = (
"204 34 LINE SMOOTH",
"210 11 OFFCURVE",
"222 0 OFFCURVE",
"246 0 CURVE SMOOTH",
"320 0 LINE SMOOTH",
"341 0 OFFCURVE",
"354 9 OFFCURVE",
"363 28 CURVE SMOOTH",
"424 168 LINE",
"444 122 OFFCURVE",
"465 75 OFFCURVE",
"484 29 CURVE",
"483 30 LINE",
"491 9 OFFCURVE",
"505 0 OFFCURVE",
"527 0 CURVE SMOOTH",
"605 0 LINE SMOOTH",
"630 0 OFFCURVE",
"644 11 OFFCURVE",
"649 34 CURVE",
"648 34 LINE",
"690 188 OFFCURVE",
"734 344 OFFCURVE",
"776 499 CURVE",
"776 498 LINE",
"785 528 OFFCURVE",
"771 547 OFFCURVE",
"738 547 CURVE SMOOTH",
"701 547 LINE SMOOTH",
"679 547 OFFCURVE",
"667 538 OFFCURVE",
"658 514 CURVE",
"566 221 LINE",
"500 335 LINE SMOOTH",
"490 351 OFFCURVE",
"478 361 OFFCURVE",
"457 361 CURVE SMOOTH",
"390 361 LINE SMOOTH",
"369 361 OFFCURVE",
"355 353 OFFCURVE",
"346 335 CURVE SMOOTH",
"286 222 LINE",
"192 514 LINE",
"192 513 LINE",
"186 538 OFFCURVE",
"172 547 OFFCURVE",
"149 547 CURVE SMOOTH",
"112 547 LINE SMOOTH",
"80 547 OFFCURVE",
"67 529 OFFCURVE",
"75 499 CURVE SMOOTH"
);
}
);
width = 851.672;
}
);
unicode = 0077;
},
{
color = 7;
glyphname = x;
lastChange = "2014-03-15 20:44:14 -0500";
layers = (
{
layerId = "6B6936E6-7670-4A82-900D-EAF583C971AF";
name = Regular;
paths = (
{
closed = 1;
nodes = (
"559 547 LINE SMOOTH",
"579 547 OFFCURVE",
"586 534 OFFCURVE",
"576 517 CURVE SMOOTH",
"414 274 LINE SMOOTH",
"406 262 OFFCURVE",
"406 250 OFFCURVE",
"416 240 CURVE SMOOTH",
"600 30 LINE SMOOTH",
"614 14 OFFCURVE",
"607 0 OFFCURVE",
"586 0 CURVE SMOOTH",
"489 0 LINE SMOOTH",
"476 0 OFFCURVE",
"468 4 OFFCURVE",
"459 16 CURVE SMOOTH",
"362 145 LINE SMOOTH",
"351 160 OFFCURVE",
"339 160 OFFCURVE",
"328 146 CURVE SMOOTH",
"222 15 LINE SMOOTH",
"213 4 OFFCURVE",
"205 0 OFFCURVE",
"192 0 CURVE SMOOTH",
"95 0 LINE SMOOTH",
"74 0 OFFCURVE",
"66 14 OFFCURVE",
"80 30 CURVE SMOOTH",
"269 245 LINE SMOOTH",
"279 256 OFFCURVE",
"279 268 OFFCURVE",
"271 279 CURVE SMOOTH",
"113 517 LINE SMOOTH",
"102 534 OFFCURVE",
"109 547 OFFCURVE",
"129 547 CURVE SMOOTH",
"170 547 LINE SMOOTH",
"183 547 OFFCURVE",
"192 542 OFFCURVE",
"200 531 CURVE SMOOTH",
"323 348 LINE SMOOTH",
"333 333 OFFCURVE",
"346 332 OFFCURVE",
"357 347 CURVE SMOOTH",
"493 532 LINE SMOOTH",
"500 542 OFFCURVE",
"509 547 OFFCURVE",
"522 547 CURVE SMOOTH"
);
}
);
width = 680.292;
},
{
layerId = "2BF3D7EC-9255-448B-A62B-3A7110FF42CA";
name = Bold;
paths = (
{
closed = 1;
nodes = (
"513 547 LINE SMOOTH",
"495 547 OFFCURVE",
"482 540 OFFCURVE",
"471 525 CURVE",
"471 526 LINE",
"344 353 LINE",
"343 352 OFFCURVE",
"343 352 OFFCURVE",
"343 353 CURVE",
"228 524 LINE SMOOTH",
"217 540 OFFCURVE",
"204 547 OFFCURVE",
"185 547 CURVE SMOOTH",
"147 547 LINE SMOOTH",
"109 547 OFFCURVE",
"96 523 OFFCURVE",
"116 490 CURVE",
"263 267 LINE",
"265 265 OFFCURVE",
"266 262 OFFCURVE",
"263 259 CURVE",
"87 59 LINE SMOOTH",
"60 27 OFFCURVE",
"74 0 OFFCURVE",
"115 0 CURVE SMOOTH",
"205 0 LINE SMOOTH",
"223 0 OFFCURVE",
"235 6 OFFCURVE",
"247 21 CURVE SMOOTH",
"347 143 LINE",
"348 144 OFFCURVE",
"348 144 OFFCURVE",
"349 143 CURVE",
"439 22 LINE SMOOTH",
"451 6 OFFCURVE",
"464 0 OFFCURVE",
"482 0 CURVE SMOOTH",
"573 0 LINE SMOOTH",
"613 0 OFFCURVE",
"624 28 OFFCURVE",
"600 59 CURVE",
"427 254 LINE",
"425 256 OFFCURVE",
"425 260 OFFCURVE",
"428 264 CURVE",
"579 490 LINE",
"598 522 OFFCURVE",
"585 547 OFFCURVE",
"547 547 CURVE SMOOTH"
);
}
);
width = 685.596;
}
);
leftKerningGroup = Round;
unicode = 0078;
},
{
color = 7;
glyphname = y;
lastChange = "2014-03-15 20:44:14 -0500";
layers = (
{
anchors = (
{
name = hookabovecomb;
position = "{353, 478}";
},
{
name = top;
position = "{352, 547}";
}
);
layerId = "6B6936E6-7670-4A82-900D-EAF583C971AF";
name = Regular;
paths = (
{
closed = 1;
nodes = (
"392 -49 LINE",
"300 -243 OFFCURVE",
"235 -287 OFFCURVE",
"154 -287 CURVE SMOOTH",
"97 -287 LINE SMOOTH",
"81 -287 OFFCURVE",
"73 -279 OFFCURVE",
"73 -263 CURVE SMOOTH",
"73 -188 LINE SMOOTH",
"73 -173 OFFCURVE",
"81 -164 OFFCURVE",
"97 -164 CURVE SMOOTH",
"135 -164 LINE SMOOTH",
"204 -164 OFFCURVE",
"284 -58 OFFCURVE",
"313 29 CURVE SMOOTH",
"316 38 OFFCURVE",
"319 50 OFFCURVE",
"313 62 CURVE SMOOTH",
"100 518 LINE SMOOTH",
"92 535 OFFCURVE",
"100 547 OFFCURVE",
"119 547 CURVE SMOOTH",
"163 547 LINE SMOOTH",
"176 547 OFFCURVE",
"185 542 OFFCURVE",
"192 530 CURVE SMOOTH",
"357 259 LINE SMOOTH",
"368 242 OFFCURVE",
"382 243 OFFCURVE",
"391 261 CURVE SMOOTH",
"516 529 LINE SMOOTH",
"522 541 OFFCURVE",
"530 547 OFFCURVE",
"544 547 CURVE SMOOTH",
"591 547 LINE SMOOTH",
"609 547 OFFCURVE",
"618 536 OFFCURVE",
"611 519 CURVE SMOOTH"
);
}
);
width = 686.376;
},
{
layerId = "2BF3D7EC-9255-448B-A62B-3A7110FF42CA";
name = Bold;
paths = (
{
closed = 1;
nodes = (
"611 496 LINE",
"610 495 LINE",
"623 526 OFFCURVE",
"606 547 OFFCURVE",
"574 547 CURVE SMOOTH",
"531 547 LINE SMOOTH",
"509 547 OFFCURVE",
"497 538 OFFCURVE",
"488 519 CURVE SMOOTH",
"450 437 OFFCURVE",
"410 352 OFFCURVE",
"372 270 CURVE",
"371 269 LINE",
"218 522 LINE SMOOTH",
"208 539 OFFCURVE",
"195 547 OFFCURVE",
"176 547 CURVE SMOOTH",
"135 547 LINE SMOOTH",
"100 547 OFFCURVE",
"85 525 OFFCURVE",
"100 493 CURVE",
"100 494 LINE",
"299 68 LINE",
"301 63 OFFCURVE",
"300 56 OFFCURVE",
"298 51 CURVE",
"272 -24 OFFCURVE",
"205 -116 OFFCURVE",
"149 -116 CURVE SMOOTH",
"114 -116 LINE SMOOTH",
"87 -116 OFFCURVE",
"73 -131 OFFCURVE",
"73 -157 CURVE SMOOTH",
"73 -226 LINE SMOOTH",
"73 -253 OFFCURVE",
"87 -267 OFFCURVE",
"114 -267 CURVE SMOOTH",
"167 -267 LINE SMOOTH",
"250 -267 OFFCURVE",
"315 -225 OFFCURVE",
"406 -34 CURVE"
);
}
);
width = 687.392;
}
);
unicode = 0079;
},
